<svg width="36" height="35" viewBox="0 0 36 35" fill="none" xmlns="http://www.w3.org/2000/svg">
<mask id="mask0_1710_14110" style="mask-type:luminance" maskUnits="userSpaceOnUse" x="14" y="5" width="17" height="19">
<path d="M17.6431 5.75656L14.3594 21.1091L26.8172 23.7226L30.1009 8.37006L17.6431 5.75656Z" fill="white"/>
</mask>
<g mask="url(#mask0_1710_14110)">
<path d="M17.5844 11.6353L17.5722 11.6926C17.5417 11.7772 17.3542 11.9719 17.2932 12.061C16.4364 13.3625 15.5659 14.6746 15.4394 16.2629C15.3281 17.6369 15.7794 20.0511 16.7566 21.0808C17.6057 21.9761 18.5082 22.0501 19.6714 21.9822C22.0192 21.8417 23.8928 20.8739 25.2451 18.9882C25.5225 18.6001 25.8015 18.1774 26.0637 17.7803C26.1247 17.6912 26.3 17.3002 26.3366 17.2715L17.5859 11.6353H17.5844Z" fill="#DBB39F"/>
<path d="M28.7803 14.0314C28.791 14.895 28.5364 15.739 28.108 16.4924C27.9601 16.7566 27.4692 17.1175 27.1796 17.1945C26.9219 17.2609 26.5454 17.0858 26.338 17.2594L17.5843 11.6337C17.6163 11.3997 17.3358 11.063 17.3083 10.8169C17.2443 10.2613 17.4806 9.81137 17.8191 9.39465C18.2673 8.83752 19.1804 8.1747 19.871 7.98749C21.1867 7.6372 22.26 7.82593 23.353 8.48875C23.4567 8.54612 23.539 8.61256 23.6412 8.67597C23.8287 8.79374 24.1991 9.22102 24.4187 8.9115C24.4431 8.88131 24.4705 8.81337 24.504 8.76656C24.6473 8.54914 24.8196 8.26077 24.9629 8.06751C25.2389 7.68552 25.4218 7.54359 25.9218 7.50887C26.242 7.49226 26.7436 7.84405 26.8396 8.14149C27.0896 8.96435 26.3533 9.50336 26.0255 10.1813C26.0316 10.213 26.4386 10.4968 26.5012 10.5467C26.739 10.7112 27.114 10.8984 27.3183 11.0796C28.0821 11.7455 28.7696 13.0228 28.7788 14.0359V14.0298L28.7803 14.0314Z" fill="#A07765"/>
</g>
<mask id="mask1_1710_14110" style="mask-type:luminance" maskUnits="userSpaceOnUse" x="7" y="8" width="13" height="15">
<path d="M9.20075 8.77112L7.03418 21.015L16.969 22.7393L19.1355 10.4954L9.20075 8.77112Z" fill="white"/>
</mask>
<g mask="url(#mask1_1710_14110)">
<path d="M17.4244 14.8328L17.4168 14.8781C17.4138 14.949 17.493 15.1468 17.5129 15.2314C17.7537 16.4392 18.0022 17.6577 17.6226 18.861C17.2948 19.9028 16.2429 21.5455 15.2169 22.0166C14.3266 22.4257 13.6406 22.2174 12.8052 21.8263C11.1221 21.0367 10.0336 19.7775 9.60216 17.9959C9.51374 17.6305 9.43446 17.2364 9.36128 16.8695C9.34299 16.7865 9.33079 16.4468 9.3125 16.4151L17.4244 14.8328Z" fill="#EBC5B2"/>
<path d="M8.48144 13.3184C8.21617 13.9495 8.15062 14.644 8.24209 15.3234C8.27258 15.5605 8.52565 15.9696 8.71469 16.1115C8.88391 16.2354 9.21321 16.2172 9.31382 16.4045L17.4242 14.8312C17.47 14.65 17.7779 14.4855 17.8709 14.3118C18.0828 13.9223 18.0447 13.5222 17.9197 13.116C17.7566 12.5755 17.2825 11.8206 16.8312 11.4824C15.9683 10.8392 15.1237 10.6656 14.1237 10.8332C14.0307 10.8452 13.9499 10.8694 13.8553 10.886C13.6816 10.9177 13.2821 11.123 13.2135 10.8317C13.2044 10.8015 13.2044 10.7456 13.1937 10.7003C13.1525 10.4995 13.1129 10.2368 13.0641 10.0526C12.9742 9.69172 12.8827 9.53319 12.526 9.36258C12.2958 9.25689 11.8216 9.36862 11.6631 9.55886C11.2347 10.0903 11.6143 10.7018 11.6524 11.2967C11.6387 11.3178 11.2545 11.4084 11.1935 11.425C10.9694 11.4764 10.6386 11.5035 10.4343 11.5775C9.67361 11.8432 8.78787 12.58 8.47991 13.3229V13.3184H8.48144Z" fill="#A07765"/>
</g>
<path fill-rule="evenodd" clip-rule="evenodd" d="M17.9983 2.11377C10.994 2.11377 5.30522 7.74644 5.30522 14.6847V24.3129H30.6914V14.6847C30.6914 7.7478 25.004 2.11377 17.9983 2.11377ZM3.1709 14.6847C3.1709 6.57889 9.81541 0 17.9983 0C26.1829 0 32.8257 6.58055 32.8257 14.6847V26.4267H3.1709V14.6847Z" fill="#AE8F74"/>
<path d="M28.6386 35H7.3549C5.07576 35 3.11371 33.4041 2.67007 31.1892L1.06934 23.1931H34.9272L33.3204 31.1922C32.8752 33.4056 30.9147 35 28.6356 35H28.6386Z" fill="#DAC3B0"/>
<path d="M5.0498 25.1984H8.54883" stroke="#AE8F74"/>
<path d="M10.6494 25.1984H14.1484" stroke="#AE8F74"/>
<path d="M16.249 25.1984H19.748" stroke="#AE8F74"/>
<path d="M21.8486 25.1984H25.3477" stroke="#AE8F74"/>
<path d="M27.4482 25.1984H30.9473" stroke="#AE8F74"/>
<path d="M7.85156 28.6984H11.3506" stroke="#AE8F74"/>
<path d="M13.4512 28.6984H16.9502" stroke="#AE8F74"/>
<path d="M19.0508 28.6984H22.5498" stroke="#AE8F74"/>
<path d="M24.6504 28.6984H28.1494" stroke="#AE8F74"/>
<path d="M10.6494 32.1984H14.1484" stroke="#AE8F74"/>
<path d="M16.249 32.1984H19.748" stroke="#AE8F74"/>
<path d="M21.8486 32.1984H25.3477" stroke="#AE8F74"/>
<path d="M34.7489 16.5695H1.25078C0.605839 16.5695 0.0830078 17.0873 0.0830078 17.726V22.0366C0.0830078 22.6753 0.605839 23.1931 1.25078 23.1931H34.7489C35.3938 23.1931 35.9167 22.6753 35.9167 22.0366V17.726C35.9167 17.0873 35.3938 16.5695 34.7489 16.5695Z" fill="#C7AB93"/>
</svg>
