<svg width="72" height="72" viewBox="0 0 72 72" fill="none" xmlns="http://www.w3.org/2000/svg">
<rect width="72" height="72" rx="10" fill="#F7F8F9"/>
<g clip-path="url(#clip0_1495_7820)">
<path d="M51.471 38.164C51.503 38.3267 51.4287 38.4768 51.4088 38.6321C51.3076 39.4016 51.1202 40.1571 50.9549 40.9161C50.7794 41.7189 50.5011 42.4929 50.1911 43.2558C50.0643 43.5664 49.9473 43.8775 49.8182 44.1857C49.6271 44.6446 49.3801 45.0841 49.1646 45.5347C48.6589 46.5952 47.9798 47.5623 47.3105 48.5323C47.0306 48.9397 46.6834 49.3085 46.4348 49.7317C45.9575 50.5416 45.2433 51.1591 44.6025 51.8365C43.8897 52.5895 43.0507 53.2119 42.2257 53.8492C41.6076 54.3271 41.0244 54.8419 40.3577 55.2612C39.8155 55.6032 39.2983 55.9816 38.6965 56.241C38.3099 56.4069 37.9704 56.6548 37.6267 56.8907C37.499 56.9795 37.3538 57.0301 37.2155 57.0903C36.8953 57.2295 36.607 57.4171 36.3049 57.5852C35.7007 57.9216 35.0874 58.2457 34.4043 58.4121C33.9769 58.5151 33.5325 58.5706 33.0936 58.6194C32.5619 58.6772 32.0359 58.7633 31.5085 58.833C31.3578 58.8529 31.207 58.8354 31.0567 58.8484C30.5436 58.8885 30.0285 58.8818 29.5181 58.8007C29.4071 58.7831 29.3082 58.7334 29.1946 58.718C28.6639 58.6428 28.1508 58.4868 27.671 58.2767C26.9972 57.9837 26.3707 57.6139 25.8134 57.1335C25.0106 56.4415 24.2339 55.7299 23.5052 54.9695C23.1339 54.5808 22.7731 54.1833 22.428 53.7749C21.8398 53.0758 21.3429 52.3115 20.7546 51.6147C20.4118 51.2088 20.1128 50.7796 19.8447 50.3334C19.5315 49.8148 19.1975 49.309 18.8818 48.7902C18.5299 48.2135 18.27 47.5997 18.0181 46.9793C17.6865 46.1609 17.4108 45.3268 17.2058 44.4755C17.044 43.8086 16.8898 43.1375 16.7531 42.4673C16.6791 42.1038 16.6832 41.7259 16.6496 41.353C16.599 40.7761 16.5036 40.2015 16.4907 39.6196C16.4842 39.4092 16.4877 39.197 16.4633 38.9926C16.4408 38.7977 16.4528 38.6093 16.445 38.4174C16.4354 38.1765 16.4756 37.9359 16.4857 37.6984C16.4977 37.4703 16.5594 37.2449 16.5295 37.0099C16.5092 36.8594 16.6191 36.6973 16.6343 36.537C16.6754 36.1238 16.8369 35.738 16.9197 35.3363C16.985 35.0154 17.0969 34.704 17.1842 34.3889C17.2033 34.3222 17.2276 34.2535 17.2194 34.1877C17.1929 33.9763 17.3025 33.7814 17.3781 33.6104C17.7765 32.7099 18.0822 31.7787 18.4221 30.8586C18.5033 30.6389 18.6143 30.4208 18.6048 30.1776C18.7722 30.2099 18.8445 30.3655 18.9821 30.4336C19.3921 30.6447 19.7261 30.9544 20.1089 31.2014C20.4917 31.4483 20.866 31.7112 21.2597 31.9424C21.8359 32.2815 22.4427 32.5708 23.0468 32.8624C23.3875 33.0277 23.7059 33.2292 24.0474 33.3806C24.8275 33.726 25.625 34.0302 26.4252 34.3323C26.7852 34.4684 27.1236 34.6686 27.4934 34.7678C28.0346 34.9136 28.5724 35.0732 29.1103 35.2305C29.6923 35.3995 30.2903 35.4736 30.8828 35.5568C31.3591 35.6244 31.8468 35.632 32.327 35.6788C32.4038 35.6852 32.4808 35.6497 32.5497 35.6627C32.766 35.707 32.9824 35.7513 33.2037 35.7562C33.3827 35.7612 33.5663 35.7734 33.7309 35.8079C34.0013 35.8644 34.2781 35.898 34.5441 35.9846C35.0614 36.1525 35.5932 36.2884 36.0981 36.4953C36.8264 36.7935 37.5678 37.0411 38.3717 37.0889C38.6273 37.1027 38.8802 37.1606 39.1333 37.2139C39.5168 37.2928 39.9041 37.351 40.2913 37.4115C40.6563 37.4684 41.0214 37.5231 41.3867 37.5754C41.8631 37.643 42.3354 37.7361 42.8166 37.7666C42.9457 37.7735 43.0803 37.7714 43.2026 37.806C43.714 37.9502 44.2416 38.0346 44.7687 38.0885C45.6274 38.1744 46.4831 38.309 47.3508 38.3323C47.6493 38.339 47.9481 38.3784 48.245 38.371C48.8711 38.3557 49.4984 38.3217 50.1257 38.2877C50.4155 38.273 50.711 38.2865 50.9945 38.2154C51.154 38.1749 51.3125 38.1484 51.4756 38.1689L51.471 38.164Z" fill="#E8EBED"/>
<path d="M31.1178 17.4338C31.0943 17.4512 31.0719 17.45 31.0481 17.4324C31.0714 17.4197 31.0937 17.4209 31.1178 17.4338Z" fill="#FF743F"/>
<path d="M33.5411 17.611C33.5258 17.6102 33.5104 17.6094 33.4925 17.6084C33.5086 17.5973 33.5241 17.5957 33.5411 17.611Z" fill="#FF743F"/>
<path d="M55.598 32.7562C55.5736 32.3954 55.4716 32.0422 55.4147 31.682C55.3565 31.3054 55.3284 30.9235 55.2324 30.5542C55.0678 29.9291 54.8601 29.3181 54.6066 28.721C54.4335 28.3102 54.3088 27.8811 54.1282 27.4699C53.9344 27.0324 53.6345 26.6568 53.3993 26.2427C53.202 25.8983 52.9687 25.5707 52.7484 25.2368C52.5258 24.898 52.2574 24.5755 51.9256 24.3103C51.8663 24.2627 51.7885 24.2329 51.7582 24.1612C51.6807 23.9703 51.4907 23.8644 51.3709 23.711C51.1062 23.37 50.7073 23.1805 50.3859 22.9065C50.1401 22.6995 49.8895 22.4877 49.6144 22.3095C49.2128 22.0452 48.8736 21.7002 48.4119 21.519C48.3802 21.508 48.3516 21.4877 48.3254 21.47C47.7439 21.0956 47.1058 20.8303 46.4513 20.5874C45.9379 20.3964 45.3866 20.3318 44.86 20.1914C44.3678 20.06 43.8979 19.89 43.4685 19.6312C43.2048 19.47 42.936 19.3108 42.7097 19.1096C42.774 19.0384 42.8348 18.9833 42.8836 18.9205C43.2381 18.4751 43.682 18.1138 44.1699 17.804C44.8266 17.3864 45.528 17.0483 46.2955 16.8445C46.4882 16.7919 46.675 16.7132 46.7976 16.5471C46.808 16.5406 46.8185 16.5318 46.8314 16.5255C46.8447 16.5122 46.858 16.499 46.8737 16.4858C47.1917 16.3022 47.2684 15.6831 46.9404 15.4367C46.9243 15.4149 46.906 15.3905 46.8901 15.3663C46.8959 15.3526 46.8912 15.3477 46.8764 15.3469C46.8053 15.2497 46.7106 15.1723 46.6074 15.1107C45.6081 14.5319 44.686 13.8358 43.6043 13.3785C43.0829 13.1568 42.5741 13.0898 42.0474 13.3439C42.0395 13.3505 42.0316 13.357 42.0237 13.3636L42.0132 13.3724C42.0028 13.3788 41.99 13.3852 41.9796 13.3916L41.9746 13.3913C41.9551 13.3856 41.9421 13.3943 41.9384 13.4127L41.9332 13.4171C41.7332 13.5067 41.5729 13.6382 41.4477 13.8065L41.4424 13.8109C41.3185 13.8789 41.2231 13.9695 41.1846 14.1051L41.1794 14.1095C41.1103 14.1385 41.0892 14.1957 41.0728 14.2578C40.9217 14.3617 40.8515 14.526 40.7457 14.6627C40.3491 15.1829 39.8621 15.6352 39.4844 16.1704C39.1178 16.6875 38.6746 17.1562 38.399 17.7296C38.3619 17.8046 38.3402 17.9505 38.173 17.9158C37.7648 17.8332 37.3496 17.7829 36.9381 17.7141C36.524 17.6452 36.1119 17.5857 35.6926 17.5608C35.628 17.5574 35.5641 17.5446 35.4979 17.527C35.2163 17.4512 34.9308 17.3985 34.6298 17.4314C34.2636 17.4724 33.9105 17.5818 33.5403 17.6062C33.5254 17.6054 33.5105 17.6046 33.4932 17.6037C33.1931 17.5829 32.8956 17.5622 32.5955 17.5414L32.585 17.5502L32.5757 17.5404C32.5164 17.5325 32.4546 17.5245 32.3954 17.5167C32.1507 17.4872 31.9 17.5134 31.6573 17.4513C31.6465 17.4648 31.6391 17.4644 31.63 17.4499C31.4586 17.443 31.2872 17.4361 31.1158 17.4292C31.0923 17.4467 31.0699 17.4455 31.0461 17.4278C30.8052 17.4172 30.5657 17.4627 30.3259 17.4358C29.9674 17.3932 29.6113 17.4721 29.2514 17.4528C29.1099 17.4452 28.9608 17.4395 28.8177 17.4575C28.2507 17.5227 27.6805 17.5597 27.1279 17.7121C26.7401 17.8173 26.3384 17.8681 25.9579 18.0157C25.3578 18.2495 24.7775 18.5241 24.1908 18.782C23.668 19.013 23.1746 19.2922 22.6808 19.5761C22.1947 19.8581 21.7038 20.1375 21.257 20.4659C20.8677 20.7531 20.4804 21.0474 20.1091 21.3635C19.5324 21.8554 19.1008 22.4554 18.6242 23.0179C18.0885 23.6497 17.6992 24.3663 17.3417 25.094C17.2303 25.3191 17.1714 25.5797 17.2151 25.8318C17.3215 26.4303 17.3956 27.0295 17.3546 27.6342C17.3379 27.897 17.3743 28.1487 17.4557 28.3958C17.568 28.745 17.6956 29.0879 17.9515 29.3724C18.0283 29.4582 18.1053 29.5394 18.1484 29.6444C18.1853 29.7304 18.246 29.7944 18.3247 29.85C18.4437 29.9357 18.5758 30.0128 18.6005 30.1729C18.7678 30.2052 18.8401 30.3608 18.9778 30.4289C19.3877 30.64 19.7217 30.9497 20.1045 31.1967C20.4873 31.4436 20.8616 31.7065 21.2554 31.9377C21.8316 32.2768 22.4383 32.5661 23.0425 32.8577C23.3831 33.023 23.7016 33.2245 24.0431 33.3759C24.8231 33.7213 25.6207 34.0255 26.4209 34.3276C26.7809 34.4636 27.1193 34.6639 27.4891 34.7631C28.0302 34.9089 28.568 35.0685 29.106 35.2258C29.688 35.3948 30.286 35.4689 30.8784 35.5521C31.3548 35.6197 31.8425 35.6273 32.3227 35.6741C32.3995 35.6805 32.4764 35.645 32.5454 35.658C32.7617 35.7023 32.9781 35.7466 33.1994 35.7515C33.3784 35.7565 33.5619 35.7687 33.7266 35.8032C33.997 35.8597 34.2738 35.8933 34.5398 35.9799C35.0571 36.1478 35.5889 36.2837 36.0938 36.4906C36.822 36.7888 37.5634 37.0364 38.3673 37.0842C38.623 37.098 38.8758 37.1559 39.129 37.2092C39.5125 37.2881 39.8998 37.3463 40.287 37.4068C40.652 37.4637 41.0171 37.5184 41.3824 37.5707C41.8588 37.6383 42.331 37.7313 42.8123 37.7619C42.9413 37.7688 43.076 37.7667 43.1983 37.8013C43.7097 37.9455 44.2373 38.0298 44.7643 38.0838C45.6231 38.1697 46.4788 38.3043 47.3465 38.3276C47.6448 38.3367 47.9438 38.3737 48.2406 38.3663C48.8668 38.351 49.494 38.317 50.1213 38.283C50.4112 38.2682 50.7067 38.2818 50.9902 38.2107C51.1496 38.1702 51.3082 38.1437 51.4713 38.1642C51.4958 38.0534 51.5926 38.019 51.6869 37.9844C52.0572 37.8409 52.4688 37.7906 52.7798 37.5226C52.7983 37.5049 52.8332 37.5044 52.8564 37.4917C53.0398 37.3895 53.27 37.3715 53.4303 37.2401C53.5564 37.1372 53.6877 37.0299 53.8247 36.9509C54.153 36.7631 54.4294 36.5282 54.6758 36.2567C54.957 35.9474 55.1438 35.5933 55.2634 35.2006C55.3517 34.9089 55.3981 34.6103 55.4812 34.3207C55.6286 33.8035 55.6321 33.2785 55.5956 32.756L55.598 32.7562Z" fill="#C9CDD2"/>
<path d="M31.6621 17.4567C31.6501 17.4717 31.6419 17.4712 31.632 17.4551C31.6434 17.4479 31.6516 17.4483 31.6621 17.4567Z" fill="#FF743F"/>
<path d="M32.6018 17.5475L32.589 17.5587L32.5777 17.5462L32.5902 17.5409L32.6018 17.5475Z" fill="#FF743F"/>
<path d="M30.6053 29.1466C30.9128 29.1281 31.2492 29.1252 31.5905 29.0851C32.3156 29.0004 32.9193 28.7107 33.4808 28.3021C33.674 28.1608 33.8176 27.9794 33.9588 27.7956C34.1409 27.5557 34.4233 27.5008 34.6707 27.6448C34.8795 27.7681 34.9902 27.9468 35.0105 28.1766C35.0359 28.4814 35.1474 28.7651 35.2564 29.0487C35.4322 29.497 35.7324 29.8679 36.09 30.1975C36.6547 30.718 37.3332 31.0136 38.1289 30.9956C38.4581 30.9877 38.7313 30.8039 38.965 30.5761C39.3979 30.1512 39.564 29.614 39.7328 29.0745C39.7732 28.9483 39.8184 28.8247 39.8709 28.7038C40.0285 28.3412 40.6072 28.1692 40.973 28.567C41.2036 28.8175 41.4236 29.079 41.6386 29.3403C41.8951 29.6552 42.1752 29.9503 42.4818 30.2212C42.9463 30.6313 43.427 31.0236 43.9945 31.3038C44.3928 31.5026 44.8205 31.591 45.2765 31.5104C45.5938 31.4551 45.9386 31.1235 45.9678 30.782C46.0014 30.4104 45.9683 30.0678 45.798 29.7296C45.6164 29.3744 45.8681 28.9398 46.2598 28.8908C46.5108 28.8599 46.8064 28.9902 46.9376 29.2376C46.9755 29.3074 47.0182 29.3797 47.0358 29.4553C47.1648 30.0131 47.5744 30.3875 47.9918 30.7554C48.2984 31.0263 48.6159 31.2814 48.9843 31.4809C49.6129 31.8181 50.2695 31.9491 50.9859 31.7682C51.4795 31.643 51.7218 31.3176 51.8413 30.8876C51.945 30.5104 52.0118 30.1242 52.0167 29.7346C52.0193 29.457 51.9874 29.1752 51.8869 28.9154C51.84 28.7915 51.7295 28.6875 51.6313 28.5866C51.4535 28.4066 51.4611 28.2086 51.5488 28.0033C51.616 27.8482 51.9062 27.7494 52.1145 27.8026C52.4259 27.88 52.6011 28.1019 52.7653 28.3394C52.9841 28.6593 53.045 29.0337 53.0996 29.389C53.1455 29.6856 53.1623 30.0086 53.0732 30.3142C53.0572 30.3694 53.0583 30.4301 53.0547 30.4883C53.0123 31.0369 52.8183 31.5423 52.5246 32.0096C52.3168 32.3416 51.9729 32.5401 51.5974 32.688C51.2346 32.8319 50.8556 32.9166 50.4683 32.8981C49.8699 32.8683 49.2734 32.8105 48.7281 32.5338C48.1322 32.2311 47.5818 31.8771 47.113 31.4154C47.0474 31.3512 47.0106 31.3422 46.9524 31.4348C46.7916 31.6922 46.6572 31.9651 46.3959 32.1588C45.9829 32.4657 45.5221 32.623 44.997 32.6158C44.7034 32.6117 44.4149 32.5658 44.1318 32.5133C43.9693 32.4835 43.8088 32.4235 43.6641 32.3481C43.1767 32.1025 42.7191 31.8165 42.2923 31.4784C41.8062 31.0929 41.3595 30.6768 40.9606 30.2119C40.891 30.1311 40.8267 30.0459 40.7494 29.9694C40.6697 29.8905 40.6243 29.8997 40.5855 30.0003C40.4757 30.2792 40.3827 30.5659 40.2025 30.8153C39.746 31.4537 39.1841 31.9486 38.3259 32.0495C37.8541 32.1059 37.4028 32.035 36.9531 31.9011C36.066 31.634 35.3608 31.1293 34.8014 30.4481C34.5563 30.1501 34.3555 29.8219 34.224 29.4624C34.1582 29.2815 34.0412 29.2425 33.8773 29.3527C33.2628 29.7725 32.5856 30.0442 31.8343 30.1486C31.211 30.2364 30.594 30.2266 29.962 30.139C29.3276 30.0489 28.7383 29.8772 28.1894 29.5793C27.7174 29.3252 27.3212 28.9748 27.0321 28.5461C26.8296 28.2458 26.6918 27.9046 26.6226 27.5438C26.5796 27.3197 26.5137 27.2975 26.2808 27.3574C26.0301 27.4233 25.7703 27.435 25.5137 27.4352C24.4904 27.4315 23.52 27.2207 22.6293 26.7364C21.8662 26.3196 21.3038 25.7245 21.0251 24.937C20.8435 24.423 20.86 23.8894 21.0873 23.3695C21.2998 22.8861 21.5936 22.4561 22.0416 22.1487C22.3983 21.9041 22.8001 21.7343 23.2638 21.7662C23.5216 21.7848 23.7646 21.9589 23.8096 22.1527C23.8679 22.4102 23.7621 22.5866 23.457 22.7242C23.3775 22.7597 23.2887 22.7852 23.2029 22.8039C22.5967 22.9371 22.2794 23.3448 22.117 23.8613C21.9079 24.5269 22.2182 25.0524 22.7288 25.4836C23.3151 25.9773 24.0303 26.2048 24.7968 26.3323C25.1739 26.3946 25.5446 26.4005 25.9167 26.3458C26.3165 26.2856 26.6284 26.0806 26.872 25.774C27.0182 25.5904 27.2027 25.4696 27.469 25.4723C27.6731 25.4739 27.8295 25.5617 27.9205 25.6973C28.0252 25.8523 28.1148 26.0485 27.9712 26.2322C27.7056 26.5703 27.6495 26.9431 27.7314 27.3396C27.85 27.9038 28.2073 28.3175 28.7083 28.6245C29.2716 28.9699 29.9112 29.0953 30.6052 29.1489L30.6053 29.1466Z" fill="#E8EBED"/>
<path d="M30.7589 21.5948C30.7761 21.1289 30.9584 20.7279 31.2966 20.3843C31.5096 20.167 31.8655 20.0928 32.0938 20.2241C32.3292 20.3604 32.4101 20.6939 32.2562 20.9214C32.2122 20.9867 32.1559 21.049 32.1046 21.1116C31.7772 21.5212 31.7727 21.9854 32.2505 22.3052C32.8478 22.7037 33.4951 22.9812 34.2396 22.9839C34.5733 22.9855 34.9086 22.9988 35.2442 22.9305C35.4209 22.8933 35.6056 22.8869 35.7877 22.843C36.0861 22.7727 36.2847 22.5873 36.4649 22.3776C36.5106 22.324 36.5563 22.2705 36.5973 22.2143C36.7366 22.0211 36.9399 21.9573 37.1691 21.9953C37.418 22.0367 37.577 22.1993 37.6376 22.4219C37.7248 22.7347 37.8226 23.0387 38.0896 23.2655C38.5882 23.689 39.1128 24.0954 39.7586 24.2794C40.238 24.4172 40.7439 24.3721 41.1917 24.067C41.4782 23.87 41.6819 23.6032 41.9493 23.3935C42.1772 23.2167 42.5084 23.1785 42.7658 23.3207C42.9271 23.4087 43.0695 23.5191 43.1931 23.6517C43.6244 24.1161 44.1719 24.4349 44.7438 24.7247C45.043 24.8762 45.3478 25.0186 45.6525 25.161C45.8775 25.2664 46.1214 25.3076 46.3715 25.2907C46.6317 25.272 46.8571 25.0577 46.8761 24.7973C46.8993 24.4718 46.9302 24.142 46.8933 23.8202C46.8708 23.6253 46.8183 23.4334 46.8436 23.2317C46.8709 22.9974 47.1458 22.7858 47.3587 22.8463C47.5031 22.8867 47.6363 22.9849 47.6888 23.0997C47.7784 23.296 47.9062 23.4802 47.9038 23.7135C47.8991 23.9046 47.9997 24.0851 48.0095 24.284C48.0368 24.834 47.9614 25.3551 47.5919 25.7997C47.3384 26.1059 46.9842 26.2712 46.5699 26.3236C46.246 26.3646 45.927 26.3288 45.6175 26.2608C45.3915 26.2113 45.1597 26.1358 44.9645 25.9946C44.8836 25.9343 44.77 25.9188 44.6731 25.8763C43.93 25.5376 43.2197 25.154 42.6109 24.6218C42.4836 24.5099 42.3907 24.5212 42.2618 24.6287C41.8047 25.0032 41.3181 25.3319 40.6891 25.3914C40.0577 25.4509 39.4472 25.3784 38.8778 25.0887C38.2482 24.7678 37.667 24.3888 37.1647 23.9066C37.1155 23.8573 37.0769 23.7992 37.0331 23.7432C36.918 23.5946 36.8208 23.5567 36.6603 23.6531C36.2534 23.902 35.7923 23.9473 35.3306 24.0018C34.8262 24.0611 34.3232 24.0597 33.8177 24.0185C33.072 23.9575 32.4094 23.6838 31.7906 23.3098C31.5627 23.1738 31.3481 23.0222 31.1687 22.8282C30.8889 22.5284 30.7029 22.0843 30.7583 21.6041L30.7589 21.5948Z" fill="#E8EBED"/>
<path d="M24.2118 39.4977C24.2128 39.0496 24.287 38.4701 24.3584 37.895C24.4336 37.2992 24.5482 36.7102 24.6087 36.1113C24.6346 35.8606 24.7906 35.6402 25.0942 35.5655C25.3294 35.5081 25.6246 35.7621 25.6894 36.0363C25.7892 36.4641 25.6812 36.8715 25.5976 37.2848C25.5869 37.3355 25.5736 37.3885 25.5679 37.4395C25.4985 38.2177 25.4192 38.9954 25.3771 39.775C25.3586 40.1451 25.2415 40.4983 25.1296 40.8494C25.0766 41.0169 24.869 41.1481 24.692 41.1503C24.4378 41.153 24.2969 41.0591 24.1973 40.8226C24.1564 40.7224 24.1377 40.6234 24.1472 40.5142C24.1709 40.219 24.1847 39.9233 24.2119 39.4953L24.2118 39.4977Z" fill="#C9CDD2"/>
<path d="M38.1224 47.7142C38.1466 47.5685 38.2764 47.3677 38.3913 47.1662C38.8866 46.3082 39.3577 45.4395 39.7684 44.542C39.8696 44.321 39.9561 44.0969 40.1131 43.9C40.2807 43.6919 40.5962 43.5478 40.8758 43.7332C41.0573 43.855 41.0769 44.0171 41.0676 44.2034C41.0472 44.5244 40.8829 44.7979 40.7527 45.0827C40.5675 45.4882 40.3628 45.888 40.151 46.2828C39.8402 46.8612 39.5199 47.4345 39.1924 48.0028C39.114 48.1386 39.004 48.2634 38.8379 48.3292C38.4138 48.4978 38.0776 48.1436 38.1222 47.7165L38.1224 47.7142Z" fill="#C9CDD2"/>
<path d="M18.8594 41.026C18.854 40.5215 19.0204 39.8233 19.0953 39.1154C19.1191 38.8973 19.1825 38.6836 19.2802 38.4788C19.4523 38.1216 19.8592 38.0291 20.156 38.2971C20.2974 38.4238 20.338 38.608 20.3272 38.7778C20.2972 39.25 20.2498 39.7213 20.1554 40.1877C20.1226 40.3516 20.124 40.5244 20.1134 40.6919C20.0803 41.213 20.0471 41.7363 20.0139 42.2574C20.0076 42.3574 19.9913 42.4569 19.9578 42.5531C19.8785 42.7823 19.6884 42.9121 19.4399 42.9034C19.1616 42.8931 18.9896 42.7392 18.9073 42.506C18.7597 42.085 18.839 41.6598 18.8643 41.0263L18.8594 41.026Z" fill="#C9CDD2"/>
<path d="M24.9205 49.6283C24.917 50.0762 24.9764 50.5135 24.966 50.9518C24.9551 51.3573 25.0443 51.7566 25.0061 52.163C24.9908 52.3255 24.9581 52.4872 24.9255 52.6465C24.8852 52.8497 24.7349 52.9817 24.5249 53.0334C24.3225 53.0832 24.1838 52.9917 24.0407 52.8533C23.8226 52.6409 23.8613 52.3839 23.8568 52.1409C23.8453 51.5778 23.8037 51.0177 23.8021 50.4551C23.8022 49.8249 23.7177 49.1948 23.8028 48.5622C23.821 48.4325 23.8608 48.3156 23.9324 48.2074C24.1195 47.928 24.6277 48.044 24.7542 48.2866C24.8897 48.5459 24.912 48.8225 24.9217 49.1008C24.9278 49.2785 24.9687 49.4581 24.923 49.6284L24.9205 49.6283Z" fill="#C9CDD2"/>
<path d="M30.4333 43.9282C30.4104 44.3658 30.3781 44.8752 30.2764 45.3786C30.1676 45.9143 30.1698 46.4675 30.0041 46.9978C29.9634 47.1287 29.8874 47.2273 29.778 47.3031C29.5826 47.4396 29.3595 47.3833 29.2128 47.184C29.0455 46.9556 29.0422 46.694 29.0533 46.4402C29.0876 45.6648 29.1738 44.8969 29.2923 44.1283C29.361 43.6746 29.3852 43.2161 29.4242 42.7583C29.4428 42.5446 29.5874 42.3843 29.8464 42.3072C30.0089 42.2576 30.2266 42.3206 30.3361 42.4782C30.4502 42.6431 30.4722 42.845 30.4802 43.0322C30.4902 43.3058 30.453 43.5792 30.4308 43.9281L30.4333 43.9282Z" fill="#C9CDD2"/>
<path d="M34.1451 51.8301C34.0947 51.9955 34.0683 52.1761 33.9841 52.3256C33.8292 52.6067 33.7945 52.9176 33.679 53.2078C33.5397 53.5575 33.4003 53.9094 33.2489 54.2537C33.1271 54.5249 32.9881 54.7905 32.8809 55.0672C32.7501 55.4009 32.6084 55.5147 32.2361 55.5344C32.0411 55.5449 31.854 55.4321 31.8007 55.2519C31.7454 55.0645 31.7321 54.8818 31.8045 54.6826C31.9617 54.2476 32.1797 53.8345 32.3416 53.402C32.5185 52.9307 32.6833 52.4541 32.87 51.9857C32.9651 51.7434 33.0073 51.4702 33.2357 51.2864C33.372 51.1794 33.5227 51.0801 33.7074 51.1531C33.892 51.226 34.0811 51.3085 34.0883 51.547C34.0923 51.6406 34.1516 51.7278 34.1451 51.8301Z" fill="#C9CDD2"/>
<path d="M37.2066 38.6835C37.4053 38.6919 37.6147 38.8852 37.6616 39.0488C37.7452 39.3403 37.6435 39.608 37.5713 39.8818C37.378 40.6113 37.1872 41.341 36.9891 42.0679C36.9112 42.3531 36.8137 42.6326 36.7286 42.9152C36.6876 43.0507 36.6105 43.1656 36.5047 43.2626C36.3458 43.4128 36.1598 43.4774 35.9383 43.3979C35.7848 43.3429 35.6789 43.1295 35.6748 42.9192C35.6684 42.5501 35.7926 42.202 35.887 41.8523C36.1179 41.0011 36.3488 40.1499 36.587 39.3014C36.6645 39.0232 36.778 38.7655 37.1237 38.6954C37.1565 38.6878 37.1891 38.6849 37.2041 38.6834L37.2066 38.6835Z" fill="#C9CDD2"/>
<path d="M46.1973 43.1182C46.2008 42.8266 46.3846 42.5611 46.5604 42.3021C46.9371 41.7435 47.2413 41.1507 47.5286 40.5476C47.6034 40.3905 47.6686 40.226 47.7797 40.0849C47.9016 39.9304 48.0726 39.8649 48.2786 39.876C48.4698 39.8863 48.61 39.9918 48.6731 40.1353C48.7725 40.374 48.7787 40.6288 48.6685 40.8749C48.4188 41.4333 48.1449 41.9811 47.8252 42.5054C47.6056 42.8648 47.4042 43.2507 47.0103 43.4933C46.8729 43.577 46.7234 43.6179 46.5663 43.6212C46.4391 43.6237 46.3416 43.5507 46.2526 43.4619C46.1566 43.3657 46.2058 43.2587 46.1997 43.1183L46.1973 43.1182Z" fill="#C9CDD2"/>
<path d="M40.6213 52.9974C40.2117 52.9754 40.014 52.5983 40.2092 52.2307C40.4328 51.8085 40.7307 51.4324 41.0119 51.0438C41.252 50.7136 41.4922 50.3833 41.7179 50.0454C41.9217 49.7389 42.224 49.6454 42.5062 49.8683C42.6864 50.0111 42.7423 50.3081 42.6226 50.5841C42.4823 50.9104 42.3009 51.218 42.0808 51.5073C41.7929 51.884 41.524 52.2733 41.2409 52.6526C41.0913 52.8522 40.9117 53.013 40.6236 52.9998L40.6213 52.9974Z" fill="#C9CDD2"/>
</g>
<defs>
<clipPath id="clip0_1495_7820">
<rect width="38.8311" height="46.2898" fill="white" transform="matrix(0.998559 0.0536589 -0.063405 0.997988 18.0801 11.8597)"/>
</clipPath>
</defs>
</svg>
