<svg width="205" height="122" viewBox="0 0 205 122" fill="none" xmlns="http://www.w3.org/2000/svg">
<path d="M108.416 75.496C108.347 74.3867 108.312 73.572 108.312 73.052L108.364 71.388C108.433 70.348 108.849 69.6893 109.612 69.412C110.409 69.1 111.553 68.944 113.044 68.944C114.465 68.944 115.523 69.1 116.216 69.412C116.944 69.724 117.273 70.4173 117.204 71.492L116.996 75.184L119.44 74.768C120.619 74.56 121.364 74.456 121.676 74.456C122.369 74.456 122.924 74.664 123.34 75.08C123.756 75.4613 124.068 76.1546 124.276 77.16C124.449 78.2 124.536 78.9973 124.536 79.552C124.536 80.5227 124.311 81.2853 123.86 81.84C123.444 82.36 122.716 82.7413 121.676 82.984C118.452 83.712 114.899 84.076 111.016 84.076C108.277 84.076 105.851 83.9027 103.736 83.556C102.765 83.3827 102.055 83.0186 101.604 82.464C101.153 81.8746 100.928 81.0253 100.928 79.916C100.928 79.5693 100.997 78.876 101.136 77.836C101.275 76.796 101.535 76.0853 101.916 75.704C102.332 75.3227 102.956 75.132 103.788 75.132C104.343 75.132 105.036 75.184 105.868 75.288L108.416 75.496ZM112.992 111.584C109.352 111.584 106.631 110.44 104.828 108.152C103.025 105.864 102.124 102.657 102.124 98.532C102.124 94.5106 103.025 91.3386 104.828 89.016C106.665 86.6933 109.387 85.532 112.992 85.532C116.424 85.532 119.093 86.728 121 89.12C122.907 91.4773 123.86 94.6146 123.86 98.532C123.86 102.657 122.959 105.864 121.156 108.152C119.388 110.44 116.667 111.584 112.992 111.584ZM112.992 102.848C113.997 102.848 114.76 102.484 115.28 101.756C115.8 101.028 116.06 99.9533 116.06 98.532C116.06 97.2493 115.783 96.2266 115.228 95.464C114.708 94.6666 113.963 94.268 112.992 94.268C112.056 94.268 111.311 94.6666 110.756 95.464C110.201 96.2266 109.924 97.2493 109.924 98.532C109.924 99.9533 110.184 101.028 110.704 101.756C111.259 102.484 112.021 102.848 112.992 102.848ZM147.156 115.432C147.225 116.749 146.879 117.633 146.116 118.084C145.388 118.569 144.261 118.812 142.736 118.812C141.245 118.812 140.188 118.621 139.564 118.24C138.975 117.859 138.645 117.009 138.576 115.692C138.299 109.868 138.16 103.021 138.16 95.152H135.04C135.04 102.224 135.179 108.637 135.456 114.392C135.525 115.709 135.213 116.593 134.52 117.044C133.861 117.529 132.787 117.772 131.296 117.772C129.771 117.772 128.661 117.581 127.968 117.2C127.309 116.819 126.945 115.969 126.876 114.652C126.599 108.377 126.46 101.34 126.46 93.54C126.46 85.6707 126.599 78.6333 126.876 72.428C126.945 71.076 127.327 70.14 128.02 69.62C128.748 69.0653 129.84 68.788 131.296 68.788C132.787 68.788 133.861 69.048 134.52 69.568C135.213 70.0533 135.525 70.9546 135.456 72.272C135.283 75.8426 135.161 80.5573 135.092 86.416H138.16C138.299 79.24 138.437 74.2307 138.576 71.388C138.645 70.036 138.992 69.1 139.616 68.58C140.275 68.0253 141.315 67.748 142.736 67.748C144.261 67.748 145.388 68.008 146.116 68.528C146.879 69.0133 147.225 69.9146 147.156 71.232C146.879 77.4373 146.74 84.804 146.74 93.332C146.74 101.791 146.879 109.157 147.156 115.432Z" fill="black"/>
<path d="M80.006 75.704C76.366 76.224 72.1193 76.484 67.266 76.484C64.7353 76.484 62.638 76.4147 60.974 76.276C59.8993 76.2067 59.154 75.8947 58.738 75.34C58.3566 74.7853 58.166 73.988 58.166 72.948C58.166 71.2493 58.3913 70.036 58.842 69.308C59.3273 68.58 60.2806 68.216 61.702 68.216C62.1526 68.216 62.4993 68.2333 62.742 68.268C65.7926 68.5453 69.294 68.684 73.246 68.684C76.7126 68.684 79.85 68.58 82.658 68.372C83.0393 68.3373 83.5766 68.32 84.27 68.32C86.454 68.32 88.066 68.736 89.106 69.568C90.1806 70.4 90.718 71.6653 90.718 73.364C90.718 74.924 90.3713 76.276 89.678 77.42C88.9846 78.564 87.91 79.604 86.454 80.54C87.9793 80.748 89.782 80.8867 91.862 80.956C92.8326 80.9907 93.526 81.32 93.942 81.944C94.358 82.5333 94.514 83.4867 94.41 84.804C94.306 86.1213 94.046 87.0747 93.63 87.664C93.2486 88.2187 92.59 88.496 91.654 88.496C90.2673 88.496 88.3433 88.288 85.882 87.872C83.4206 87.4213 81.5313 86.9533 80.214 86.468C79.3473 86.1213 78.758 85.8093 78.446 85.532C78.134 85.22 77.978 84.8213 77.978 84.336C75.3086 85.2373 72.3793 86.052 69.19 86.78C66.0006 87.4733 62.8286 87.9933 59.674 88.34C59.466 88.3747 59.1713 88.392 58.79 88.392C57.75 88.392 57.0393 88.1147 56.658 87.56C56.2766 86.9707 56.0166 86.0347 55.878 84.752L55.774 83.14C55.774 82.2387 55.9473 81.58 56.294 81.164C56.6753 80.7133 57.3166 80.4533 58.218 80.384C62.69 80.0373 67.162 79.3787 71.634 78.408C76.1406 77.4027 78.9313 76.5013 80.006 75.704ZM79.85 99.936C85.05 100.248 88.846 101.167 91.238 102.692C93.6646 104.183 94.878 106.453 94.878 109.504C94.878 112.971 93.3006 115.467 90.146 116.992C87.026 118.552 82.0513 119.332 75.222 119.332C68.3926 119.332 63.4006 118.552 60.246 116.992C57.126 115.467 55.566 112.971 55.566 109.504C55.566 106.488 56.762 104.217 59.154 102.692C61.546 101.167 65.3246 100.248 70.49 99.936V97.128C67.578 96.9893 64.9086 96.92 62.482 96.92C60.0206 96.92 57.6113 97.024 55.254 97.232C54.006 97.336 53.0873 97.076 52.498 96.452C51.9433 95.828 51.666 94.7187 51.666 93.124C51.666 90.836 52.654 89.6227 54.63 89.484C57.022 89.276 59.518 89.172 62.118 89.172C65.1686 89.172 69.6233 89.328 75.482 89.64C79.3993 89.848 82.606 89.952 85.102 89.952C88.5686 89.952 91.8966 89.744 95.086 89.328C95.294 89.2933 95.606 89.276 96.022 89.276C97.0273 89.276 97.7726 89.588 98.258 90.212C98.7433 90.836 99.0206 91.8413 99.09 93.228C99.1246 94.4067 98.882 95.308 98.362 95.932C97.8766 96.556 97.114 96.9547 96.074 97.128C93.578 97.5093 90.5793 97.7 87.078 97.7C85.1366 97.7 82.7273 97.648 79.85 97.544V99.936ZM75.222 111.636C78.8273 111.636 81.358 111.463 82.814 111.116C84.3046 110.769 85.05 110.232 85.05 109.504C85.05 108.048 81.7913 107.32 75.274 107.32C71.8073 107.32 69.294 107.528 67.734 107.944C66.2086 108.36 65.446 108.88 65.446 109.504C65.446 110.232 66.174 110.769 67.63 111.116C69.1206 111.463 71.6513 111.636 75.222 111.636Z" fill="black"/>
<path d="M12.96 98.688C12.1973 99.208 11.4693 99.468 10.776 99.468C10.152 99.468 9.52799 99.26 8.90399 98.844C8.27999 98.3933 7.58665 97.7347 6.82399 96.868C5.88799 95.7933 5.41999 94.8227 5.41999 93.956C5.41999 92.9853 6.11332 91.98 7.49999 90.94C10.5507 88.6867 13.5667 85.792 16.548 82.256C19.5293 78.72 22.0427 75.1667 24.088 71.596C24.6427 70.66 25.1627 69.984 25.648 69.568C26.1333 69.152 26.6707 68.944 27.26 68.944C28.0573 68.944 29.1147 69.3427 30.432 70.14C31.4373 70.7293 32.1653 71.336 32.616 71.96C33.1013 72.5493 33.344 73.1907 33.344 73.884C33.344 74.8547 32.8933 76.0507 31.992 77.472C30.64 79.552 29.4787 81.2507 28.508 82.568C29.028 82.36 29.548 82.256 30.068 82.256C31.0387 82.256 31.8707 82.6027 32.564 83.296C33.8813 84.5787 35.5453 85.896 37.556 87.248C39.5667 88.6 41.4213 89.5533 43.12 90.108C44.7493 90.628 45.564 91.6853 45.564 93.28C45.564 93.9733 45.3733 94.788 44.992 95.724C44.472 96.972 43.9347 97.8733 43.38 98.428C42.86 98.948 42.236 99.208 41.508 99.208C41.0227 99.208 40.468 99.104 39.844 98.896C37.244 98.0293 34.7133 96.816 32.252 95.256C29.8253 93.6613 27.832 91.9973 26.272 90.264C25.3707 89.2587 24.816 88.3747 24.608 87.612C20.7947 92.188 16.912 95.88 12.96 98.688ZM32.824 106.956C35.944 107.095 38.024 107.164 39.064 107.164C41.1787 107.164 43.328 107.008 45.512 106.696C45.9973 106.627 46.3267 106.592 46.5 106.592C47.644 106.592 48.4587 107.008 48.944 107.84C49.4293 108.637 49.672 109.92 49.672 111.688C49.672 112.728 49.4987 113.543 49.152 114.132C48.8053 114.721 48.1467 115.12 47.176 115.328C44.7493 115.813 42.132 116.056 39.324 116.056C35.9613 116.056 31.472 115.761 25.856 115.172C22.9093 114.86 20.1013 114.704 17.432 114.704C13.9653 114.704 10.412 114.981 6.77199 115.536L5.67999 115.64C3.39199 115.64 2.24799 114.271 2.24799 111.532C2.24799 110.111 2.43865 109.036 2.81999 108.308C3.20132 107.545 4.06799 107.043 5.41999 106.8C8.53999 106.245 11.9893 105.968 15.768 105.968C17.744 105.968 19.304 106.003 20.448 106.072V99.52C20.448 98.376 20.864 97.5613 21.696 97.076C22.528 96.5907 23.724 96.348 25.284 96.348C26.844 96.348 28.04 96.5907 28.872 97.076C29.704 97.5613 30.12 98.376 30.12 99.52V106.8L31.316 106.852L32.824 106.956Z" fill="#FF7F50"/>
<path d="M177.126 5.33599C177.126 6.54933 177.022 7.45066 176.814 8.04C176.606 8.59466 176.242 8.97599 175.722 9.184C175.237 9.35733 174.491 9.444 173.486 9.444C170.505 9.444 168.355 9.652 167.038 10.068C165.721 10.4493 165.062 11.108 165.062 12.044C165.062 12.98 165.686 13.6733 166.934 14.124C168.182 14.54 170.539 14.748 174.006 14.748C176.398 14.748 178.235 14.644 179.518 14.436C180.801 14.228 181.667 13.9333 182.118 13.552C182.569 13.1707 182.794 12.6853 182.794 12.096C182.794 11.4373 182.569 10.9347 182.118 10.588C181.667 10.2413 180.974 9.99866 180.038 9.85999C179.275 9.72133 178.738 9.44399 178.426 9.028C178.149 8.57733 178.01 7.91866 178.01 7.052L178.114 5.388C178.218 4.10533 178.513 3.22133 178.998 2.736C179.483 2.25066 180.315 2.05999 181.494 2.16399C184.614 2.44133 187.266 3.39466 189.45 5.02399C191.634 6.61866 192.726 8.92399 192.726 11.94C192.726 15.5107 191.235 18.18 188.254 19.948C185.273 21.6813 180.437 22.548 173.746 22.548C169.135 22.548 165.461 22.1667 162.722 21.404C160.018 20.6413 158.077 19.4973 156.898 17.972C155.719 16.412 155.13 14.4013 155.13 11.94C155.13 8.29999 156.655 5.64799 159.706 3.98399C162.791 2.28533 167.402 1.50533 173.538 1.64399C174.925 1.67866 175.861 1.95599 176.346 2.476C176.866 2.996 177.126 3.94933 177.126 5.33599ZM174.318 25.512C177.403 25.6507 180.35 25.72 183.158 25.72C187.422 25.72 191.01 25.512 193.922 25.096C194.095 25.0613 194.355 25.044 194.702 25.044C195.811 25.044 196.626 25.4253 197.146 26.188C197.666 26.916 197.926 28.06 197.926 29.62C197.926 30.9027 197.666 31.856 197.146 32.48C196.661 33.0693 195.915 33.4507 194.91 33.624C192.449 34.0053 189.537 34.196 186.174 34.196C184.129 34.196 180.107 34.0747 174.11 33.832C168.633 33.5893 164.299 33.468 161.11 33.468C158.302 33.468 155.962 33.5547 154.09 33.728C151.698 33.936 150.502 32.4107 150.502 29.152C150.502 27.9733 150.745 27.0547 151.23 26.396C151.715 25.7027 152.461 25.3213 153.466 25.252C155.442 25.148 157.487 25.096 159.602 25.096C163.45 25.096 168.355 25.2347 174.318 25.512ZM165.374 43.036C165.374 44.076 166.119 44.6827 167.61 44.856C169.343 45.064 171.458 45.168 173.954 45.168C176.623 45.168 179.379 45.064 182.222 44.856C185.099 44.6133 187.543 44.3013 189.554 43.92C190.039 43.816 190.473 43.764 190.854 43.764C191.859 43.764 192.587 44.0413 193.038 44.596C193.489 45.1507 193.766 45.948 193.87 46.988C193.974 47.7853 194.026 48.444 194.026 48.964C194.026 49.8653 193.818 50.5413 193.402 50.992C193.021 51.4773 192.293 51.824 191.218 52.032C188.999 52.448 186.347 52.76 183.262 52.968C180.211 53.2107 177.126 53.332 174.006 53.332C169.603 53.332 166.05 53.1413 163.346 52.76C160.85 52.4133 159.047 51.564 157.938 50.212C156.829 48.86 156.205 46.9187 156.066 44.388L155.962 38.928C155.927 38.0613 156.309 37.4027 157.106 36.952C157.903 36.4667 159.099 36.224 160.694 36.224C162.358 36.224 163.537 36.38 164.23 36.692C164.923 36.9693 165.287 37.628 165.322 38.668L165.374 43.036Z" fill="black"/>
<path d="M110.184 28.216C109.456 29.1867 108.572 29.672 107.532 29.672C106.7 29.672 105.539 29.3427 104.048 28.684C103.112 28.268 102.384 27.7653 101.864 27.176C101.344 26.552 101.084 25.9107 101.084 25.252C101.084 24.6627 101.292 24.0907 101.708 23.536C103.476 21.1787 105.331 18.128 107.272 14.384C109.213 10.6053 110.6 7.32933 111.432 4.55599C111.744 3.51599 112.143 2.77066 112.628 2.31999C113.148 1.86933 113.893 1.64399 114.864 1.64399C115.315 1.64399 115.852 1.69599 116.476 1.79999C117.863 2.00799 118.937 2.42399 119.7 3.04799C120.497 3.67199 120.896 4.48666 120.896 5.49199C120.896 5.83866 120.844 6.21999 120.74 6.63599C120.081 8.95866 119.267 11.316 118.296 13.708L118.764 13.5C119.561 13.188 120.255 13.032 120.844 13.032C122.057 13.032 123.097 13.708 123.964 15.06C125.281 17.0707 127.24 19.7227 129.84 23.016C130.256 23.536 130.464 24.056 130.464 24.576C130.464 25.824 129.511 27.0547 127.604 28.268C126.425 28.996 125.385 29.36 124.484 29.36C123.271 29.36 122.161 28.7533 121.156 27.54C118.695 24.524 116.875 21.768 115.696 19.272C114.101 22.3573 112.264 25.3387 110.184 28.216ZM143.308 26.292C143.377 27.8173 142.996 28.8053 142.164 29.256C141.367 29.7067 140.136 29.932 138.472 29.932C137.328 29.932 136.444 29.88 135.82 29.776C135.196 29.6373 134.676 29.3253 134.26 28.84C133.879 28.3547 133.671 27.592 133.636 26.552C133.497 22.392 133.428 18.6307 133.428 15.268C133.428 11.7667 133.497 8.21333 133.636 4.60799C133.705 3.04799 134.139 2.00799 134.936 1.48799C135.733 0.967992 136.912 0.707993 138.472 0.707993C140.101 0.707993 141.332 0.950659 142.164 1.43599C142.996 1.92133 143.377 2.92666 143.308 4.45199L143.256 5.43999H146.324C147.468 5.43999 148.231 5.76933 148.612 6.42799C149.028 7.05199 149.236 8.09199 149.236 9.54799C149.236 11.004 149.028 12.0613 148.612 12.72C148.231 13.344 147.468 13.656 146.324 13.656H143.1V16.568H146.324C147.468 16.568 148.231 16.8973 148.612 17.556C149.028 18.18 149.236 19.22 149.236 20.676C149.236 22.132 149.028 23.1893 148.612 23.848C148.231 24.472 147.468 24.784 146.324 24.784H143.256L143.308 26.292ZM143.932 49.38C144.105 51.6333 142.58 52.76 139.356 52.76C138.455 52.76 137.709 52.708 137.12 52.604C136.565 52.5 136.097 52.3093 135.716 52.032C130.759 52.7253 125.593 53.072 120.22 53.072C117.793 53.072 115.956 53.0373 114.708 52.968C112.42 52.864 110.756 52.4133 109.716 51.616C108.676 50.8187 108.069 49.5707 107.896 47.872C107.723 46.0347 107.636 43.6947 107.636 40.852C107.636 38.2867 107.705 36.0333 107.844 34.092C107.913 32.9827 108.312 32.2373 109.04 31.856C109.803 31.4747 111.12 31.284 112.992 31.284C116.008 31.284 117.447 32.1507 117.308 33.884C117.204 35.2707 117.152 37.004 117.152 39.084C117.152 41.1293 117.204 42.7067 117.308 43.816C117.377 44.44 117.551 44.908 117.828 45.22C118.105 45.4973 118.608 45.636 119.336 45.636C124.675 45.636 129.684 45.3587 134.364 44.804L134.312 42.984H121C119.856 42.984 119.041 42.7413 118.556 42.256C118.071 41.736 117.828 40.8 117.828 39.448C117.828 38.2 118.071 37.316 118.556 36.796C119.076 36.2413 119.891 35.964 121 35.964H134.52L134.676 34.196C134.78 33.156 135.161 32.4627 135.82 32.116C136.513 31.7693 137.727 31.596 139.46 31.596C141.193 31.596 142.389 31.8213 143.048 32.272C143.707 32.7227 144.001 33.4853 143.932 34.56C143.793 37.056 143.724 39.708 143.724 42.516C143.724 45.2893 143.793 47.5773 143.932 49.38Z" fill="black"/>
<path d="M75.586 2.31999C78.0126 2.49333 80.526 2.57999 83.126 2.57999C85.3793 2.57999 87.65 2.51066 89.938 2.37199C91.082 2.30266 91.9313 2.424 92.486 2.736C93.0406 3.01333 93.4046 3.46399 93.578 4.08799C93.7513 4.67733 93.838 5.52666 93.838 6.63599C93.838 7.77999 93.6473 8.59466 93.266 9.07999C92.8846 9.56533 92.122 9.85999 90.978 9.96399L88.014 10.068C87.9446 11.628 87.9273 12.8933 87.962 13.864L90.198 13.76C91.3766 13.6907 92.2433 13.7947 92.798 14.072C93.3526 14.3493 93.6993 14.7827 93.838 15.372C94.0113 15.9267 94.098 16.7587 94.098 17.868C94.098 19.0467 93.89 19.896 93.474 20.416C93.0926 20.936 92.3473 21.2307 91.238 21.3C89.3313 21.404 87.182 21.456 84.79 21.456C82.0513 21.456 78.8446 21.3867 75.17 21.248L73.558 21.196C70.438 21.0573 67.9766 20.988 66.174 20.988C63.9206 20.988 62.014 21.0573 60.454 21.196C59.3446 21.2653 58.5126 21.144 57.958 20.832C57.4033 20.4853 57.0393 20.0173 56.866 19.428C56.7273 18.804 56.658 17.9893 56.658 16.984C56.658 15.8053 56.8833 14.9733 57.334 14.488C57.8193 14.0027 58.582 13.7253 59.622 13.656L62.846 13.5C62.8113 13.0493 62.794 12.5987 62.794 12.148C62.8286 11.6973 62.846 11.2467 62.846 10.796V9.65199L60.454 9.80799C59.3446 9.87733 58.5126 9.77333 57.958 9.49599C57.4033 9.21866 57.0393 8.78533 56.866 8.19599C56.7273 7.60666 56.658 6.80933 56.658 5.80399C56.658 4.62533 56.9006 3.75866 57.386 3.204C57.8713 2.64933 58.6166 2.33733 59.622 2.26799C62.6726 2.09466 65.29 2.008 67.474 2.008C70.1433 2.008 72.8473 2.112 75.586 2.31999ZM79.59 13.864C79.5553 12.8587 79.5726 11.576 79.642 10.016L75.17 9.85999L71.218 9.704V13.5L75.586 13.708L79.59 13.864ZM75.482 23.796C80.266 23.9693 83.7673 24.056 85.986 24.056C89.3833 24.056 92.4166 23.9 95.086 23.588C95.294 23.5533 95.5713 23.536 95.918 23.536C96.9926 23.536 97.79 23.8827 98.31 24.576C98.83 25.2693 99.09 26.3613 99.09 27.852C99.09 29.9667 98.0846 31.1627 96.074 31.44C94.1326 31.7173 91.4286 31.856 87.962 31.856C85.882 31.856 83.2473 31.804 80.058 31.7V34.3L85.882 34.196C88.6553 34.1267 90.718 34.5947 92.07 35.6C93.422 36.6053 94.098 38.3907 94.098 40.956C94.098 42.0307 94.0286 42.9147 93.89 43.608C93.786 44.2667 93.526 44.8907 93.11 45.48C93.9766 46.0347 94.41 47.248 94.41 49.12C94.41 50.472 94.1153 51.4427 93.526 52.032C92.9366 52.6213 91.8446 52.916 90.25 52.916H69.19C67.63 52.916 66.4686 52.5693 65.706 51.876C65.394 52.4653 64.9433 52.8467 64.354 53.02C63.7646 53.1933 62.9153 53.28 61.806 53.28C58.3046 53.28 56.6406 51.8933 56.814 49.12C56.9526 47.2827 57.022 45.428 57.022 43.556C57.022 41.6493 56.9526 39.656 56.814 37.576C56.71 36.0507 57.074 35.028 57.906 34.508C58.738 33.9533 59.9513 33.676 61.546 33.676C62.898 33.676 63.9206 33.832 64.614 34.144C65.342 34.456 65.8273 35.132 66.07 36.172C66.3126 35.444 66.7113 34.9413 67.266 34.664C67.8553 34.352 68.6353 34.2133 69.606 34.248L70.698 34.3V31.388C67.5433 31.284 64.9433 31.232 62.898 31.232C60.2633 31.232 57.7153 31.336 55.254 31.544C54.006 31.648 53.0873 31.388 52.498 30.764C51.9433 30.14 51.666 29.0307 51.666 27.436C51.666 25.1133 52.654 23.8827 54.63 23.744C57.5073 23.5707 60.2633 23.484 62.898 23.484C65.8446 23.484 70.0393 23.588 75.482 23.796ZM66.382 45.532C66.9366 45.2547 67.526 45.116 68.15 45.116H84.01C84.53 44.7347 84.79 44.2147 84.79 43.556C84.79 42.932 84.634 42.4987 84.322 42.256C84.01 41.9787 83.542 41.8573 82.918 41.892C80.1793 41.996 76.6433 42.048 72.31 42.048C70.2646 42.048 69.086 42.0307 68.774 41.996C67.6646 41.8227 66.8673 41.4587 66.382 40.904V45.532Z" fill="black"/>
<path d="M12.96 32.688C12.1973 33.208 11.4693 33.468 10.776 33.468C10.152 33.468 9.52799 33.26 8.90399 32.844C8.27999 32.3933 7.58665 31.7347 6.82399 30.868C5.88799 29.7933 5.41999 28.8227 5.41999 27.956C5.41999 26.9853 6.11332 25.98 7.49999 24.94C10.5507 22.6867 13.5667 19.792 16.548 16.256C19.5293 12.72 22.0427 9.16667 24.088 5.596C24.6427 4.66 25.1627 3.984 25.648 3.568C26.1333 3.152 26.6707 2.944 27.26 2.944C28.0573 2.944 29.1147 3.34267 30.432 4.14C31.4373 4.72933 32.1653 5.336 32.616 5.96C33.1013 6.54934 33.344 7.19067 33.344 7.884C33.344 8.85467 32.8933 10.0507 31.992 11.472C30.64 13.552 29.4787 15.2507 28.508 16.568C29.028 16.36 29.548 16.256 30.068 16.256C31.0387 16.256 31.8707 16.6027 32.564 17.296C33.8813 18.5787 35.5453 19.896 37.556 21.248C39.5667 22.6 41.4213 23.5533 43.12 24.108C44.7493 24.628 45.564 25.6853 45.564 27.28C45.564 27.9733 45.3733 28.788 44.992 29.724C44.472 30.972 43.9347 31.8733 43.38 32.428C42.86 32.948 42.236 33.208 41.508 33.208C41.0227 33.208 40.468 33.104 39.844 32.896C37.244 32.0293 34.7133 30.816 32.252 29.256C29.8253 27.6613 27.832 25.9973 26.272 24.264C25.3707 23.2587 24.816 22.3747 24.608 21.612C20.7947 26.188 16.912 29.88 12.96 32.688ZM32.824 40.956C35.944 41.0947 38.024 41.164 39.064 41.164C41.1787 41.164 43.328 41.008 45.512 40.696C45.9973 40.6267 46.3267 40.592 46.5 40.592C47.644 40.592 48.4587 41.008 48.944 41.84C49.4293 42.6373 49.672 43.92 49.672 45.688C49.672 46.728 49.4987 47.5427 49.152 48.132C48.8053 48.7213 48.1467 49.12 47.176 49.328C44.7493 49.8133 42.132 50.056 39.324 50.056C35.9613 50.056 31.472 49.7613 25.856 49.172C22.9093 48.86 20.1013 48.704 17.432 48.704C13.9653 48.704 10.412 48.9813 6.77199 49.536L5.67999 49.64C3.39199 49.64 2.24799 48.2707 2.24799 45.532C2.24799 44.1107 2.43865 43.036 2.81999 42.308C3.20132 41.5453 4.06799 41.0427 5.41999 40.8C8.53999 40.2453 11.9893 39.968 15.768 39.968C17.744 39.968 19.304 40.0027 20.448 40.072V33.52C20.448 32.376 20.864 31.5613 21.696 31.076C22.528 30.5907 23.724 30.348 25.284 30.348C26.844 30.348 28.04 30.5907 28.872 31.076C29.704 31.5613 30.12 32.376 30.12 33.52V40.8L31.316 40.852L32.824 40.956Z" fill="#FF7F50"/>
<g clip-path="url(#clip0_1154_9133)">
<path d="M197.008 93.9495C197.045 94.1534 196.959 94.3414 196.936 94.5359C196.819 95.4998 196.602 96.4462 196.411 97.3969C196.208 98.4026 195.886 99.3721 195.528 100.328C195.381 100.717 195.246 101.107 195.097 101.493C194.876 102.067 194.59 102.618 194.341 103.182C193.756 104.511 192.971 105.722 192.197 106.937C191.873 107.448 191.471 107.91 191.184 108.44C190.632 109.454 189.806 110.228 189.065 111.076C188.241 112.019 187.271 112.799 186.316 113.597C185.602 114.196 184.927 114.841 184.156 115.366C183.529 115.795 182.931 116.268 182.235 116.593C181.788 116.801 181.396 117.112 180.998 117.407C180.85 117.519 180.683 117.582 180.523 117.657C180.152 117.832 179.819 118.067 179.47 118.277C178.771 118.699 178.062 119.105 177.272 119.313C176.777 119.442 176.264 119.512 175.756 119.573C175.141 119.645 174.533 119.753 173.923 119.84C173.749 119.865 173.574 119.843 173.4 119.86C172.807 119.91 172.211 119.901 171.621 119.8C171.493 119.778 171.378 119.715 171.247 119.696C170.633 119.602 170.04 119.407 169.485 119.143C168.706 118.776 167.982 118.313 167.337 117.711C166.409 116.845 165.511 115.953 164.668 115.001C164.238 114.514 163.821 114.016 163.422 113.504C162.742 112.629 162.167 111.671 161.487 110.798C161.09 110.29 160.745 109.752 160.435 109.193C160.073 108.544 159.686 107.91 159.321 107.26C158.914 106.538 158.614 105.769 158.322 104.992C157.939 103.967 157.62 102.922 157.383 101.856C157.196 101.02 157.018 100.18 156.86 99.34C156.774 98.8847 156.779 98.4114 156.74 97.9442C156.681 97.2216 156.571 96.5018 156.556 95.7729C156.549 95.5094 156.553 95.2435 156.524 94.9875C156.498 94.7434 156.512 94.5073 156.503 94.2671C156.492 93.9653 156.539 93.6639 156.55 93.3664C156.564 93.0807 156.636 92.7983 156.601 92.5039C156.577 92.3154 156.705 92.1123 156.722 91.9116C156.77 91.3939 156.957 90.9107 157.052 90.4076C157.128 90.0056 157.257 89.6155 157.358 89.2208C157.38 89.1373 157.408 89.0512 157.399 88.9688C157.368 88.7039 157.495 88.4598 157.582 88.2456C158.043 87.1176 158.397 85.9511 158.79 84.7987C158.884 84.5235 159.012 84.2503 159.001 83.9456C159.194 83.9861 159.278 84.181 159.437 84.2662C159.911 84.5307 160.298 84.9186 160.74 85.228C161.183 85.5373 161.616 85.8666 162.071 86.1562C162.737 86.581 163.439 86.9434 164.138 87.3086C164.532 87.5157 164.9 87.7681 165.295 87.9578C166.197 88.3904 167.119 88.7715 168.045 89.1499C168.461 89.3203 168.852 89.5711 169.28 89.6954C169.906 89.8781 170.528 90.078 171.15 90.275C171.823 90.4867 172.514 90.5796 173.199 90.6838C173.75 90.7684 174.314 90.7779 174.869 90.8365C174.958 90.8446 175.047 90.8001 175.127 90.8164C175.377 90.8719 175.627 90.9274 175.883 90.9335C176.09 90.9397 176.303 90.955 176.493 90.9983C176.806 91.0691 177.126 91.1111 177.433 91.2197C178.032 91.4299 178.647 91.6002 179.23 91.8593C180.073 92.2328 180.93 92.543 181.86 92.6029C182.155 92.6201 182.448 92.6927 182.74 92.7594C183.184 92.8583 183.632 92.9312 184.08 93.007C184.502 93.0783 184.924 93.1467 185.346 93.2123C185.897 93.297 186.443 93.4135 187 93.4518C187.149 93.4605 187.305 93.4578 187.446 93.5011C188.038 93.6818 188.648 93.7874 189.257 93.8551C190.25 93.9626 191.24 94.1313 192.243 94.1605C192.588 94.1689 192.934 94.2182 193.277 94.2089C194.001 94.1897 194.727 94.1471 195.452 94.1046C195.787 94.0861 196.129 94.103 196.457 94.0139C196.641 93.9633 196.825 93.9301 197.013 93.9557L197.008 93.9495Z" fill="#FF7F50"/>
<path d="M173.471 67.9823C173.444 68.0041 173.418 68.0026 173.39 67.9805C173.417 67.9646 173.443 67.9661 173.471 67.9823Z" fill="#FF743F"/>
<path d="M176.272 68.2038C176.255 68.2028 176.237 68.2018 176.217 68.2006C176.235 68.1871 176.253 68.1852 176.272 68.2038Z" fill="#FF743F"/>
<path d="M201.78 87.1752C201.752 86.7233 201.634 86.2808 201.568 85.8296C201.501 85.3579 201.468 84.8794 201.357 84.4169C201.167 83.6339 200.927 82.8686 200.634 82.1206C200.433 81.606 200.289 81.0684 200.08 80.5534C199.856 80.0053 199.509 79.5349 199.237 79.0162C199.009 78.5848 198.739 78.1744 198.485 77.7561C198.227 77.3318 197.917 76.9278 197.533 76.5955C197.465 76.536 197.375 76.4986 197.34 76.4089C197.25 76.1697 197.03 76.0371 196.892 75.8448C196.586 75.4177 196.124 75.1803 195.753 74.8371C195.468 74.5779 195.179 74.3125 194.86 74.0893C194.396 73.7582 194.004 73.3261 193.47 73.0991C193.433 73.0853 193.4 73.06 193.37 73.0377C192.697 72.5688 191.959 72.2364 191.203 71.9321C190.609 71.6929 189.971 71.6119 189.362 71.4362C188.793 71.2715 188.25 71.0586 187.753 70.7344C187.448 70.5324 187.137 70.3331 186.876 70.081C186.95 69.9918 187.02 69.9228 187.077 69.8442C187.487 69.2862 188 68.8337 188.564 68.4455C189.324 67.9225 190.135 67.499 191.022 67.2437C191.245 67.1777 191.461 67.0792 191.603 66.8711C191.615 66.863 191.627 66.852 191.642 66.8441C191.657 66.8275 191.673 66.8108 191.691 66.7944C192.059 66.5643 192.147 65.7889 191.768 65.4803C191.75 65.4529 191.728 65.4224 191.71 65.3921C191.717 65.3749 191.711 65.3688 191.694 65.3678C191.612 65.246 191.502 65.149 191.383 65.0719C190.228 64.3468 189.161 63.4749 187.91 62.9021C187.307 62.6243 186.719 62.5404 186.11 62.8587C186.101 62.8669 186.092 62.8752 186.082 62.8834L186.07 62.8944C186.058 62.9025 186.043 62.9104 186.031 62.9185L186.026 62.9181C186.003 62.911 185.988 62.9218 185.984 62.9449L185.978 62.9504C185.746 63.0627 185.561 63.2273 185.416 63.4382L185.41 63.4437C185.267 63.5289 185.157 63.6423 185.112 63.8122L185.106 63.8177C185.026 63.854 185.002 63.9257 184.983 64.0035C184.808 64.1337 184.727 64.3395 184.605 64.5107C184.146 65.1623 183.583 65.7289 183.146 66.3993C182.722 67.0471 182.209 67.6341 181.891 68.3524C181.848 68.4464 181.823 68.6291 181.629 68.5857C181.157 68.4822 180.677 68.4192 180.201 68.333C179.722 68.2466 179.246 68.1721 178.761 68.141C178.686 68.1366 178.612 68.1206 178.536 68.0986C178.21 68.0037 177.88 67.9377 177.532 67.9788C177.109 68.0302 176.7 68.1672 176.272 68.1978C176.255 68.1968 176.238 68.1958 176.218 68.1947C175.871 68.1686 175.526 68.1427 175.18 68.1167L175.167 68.1277L175.157 68.1154C175.088 68.1055 175.017 68.0955 174.948 68.0857C174.665 68.0487 174.375 68.0816 174.095 68.0038C174.082 68.0206 174.073 68.0201 174.063 68.002C173.865 67.9934 173.667 67.9848 173.468 67.9762C173.441 67.998 173.415 67.9965 173.388 67.9744C173.109 67.9611 172.832 68.0181 172.555 67.9844C172.14 67.931 171.728 68.0298 171.312 68.0056C171.149 67.9961 170.976 67.989 170.811 68.0115C170.155 68.0932 169.496 68.1396 168.857 68.3305C168.408 68.4623 167.944 68.5258 167.504 68.7107C166.81 69.0036 166.139 69.3476 165.46 69.6706C164.856 69.96 164.285 70.3098 163.714 70.6654C163.152 71.0186 162.584 71.3686 162.067 71.78C161.617 72.1397 161.169 72.5083 160.74 72.9044C160.073 73.5204 159.574 74.272 159.023 74.9767C158.403 75.7681 157.953 76.6658 157.54 77.5773C157.411 77.8592 157.343 78.1857 157.393 78.5014C157.516 79.2512 157.602 80.0017 157.555 80.7592C157.535 81.0884 157.577 81.4037 157.672 81.7132C157.801 82.1506 157.949 82.5802 158.245 82.9366C158.334 83.0441 158.423 83.1457 158.473 83.2773C158.515 83.385 158.586 83.4651 158.676 83.5347C158.814 83.6422 158.967 83.7388 158.995 83.9392C159.189 83.9797 159.273 84.1746 159.432 84.2599C159.906 84.5243 160.292 84.9123 160.735 85.2217C161.177 85.531 161.61 85.8603 162.066 86.1499C162.732 86.5746 163.434 86.9371 164.132 87.3023C164.526 87.5094 164.894 87.7618 165.289 87.9515C166.191 88.384 167.114 88.7652 168.039 89.1436C168.455 89.314 168.847 89.5648 169.274 89.6891C169.9 89.8717 170.522 90.0717 171.144 90.2687C171.817 90.4804 172.509 90.5732 173.194 90.6774C173.745 90.7621 174.309 90.7716 174.864 90.8302C174.953 90.8383 175.042 90.7938 175.122 90.8101C175.372 90.8656 175.622 90.9211 175.878 90.9272C176.085 90.9334 176.297 90.9487 176.488 90.9919C176.8 91.0628 177.12 91.1048 177.428 91.2133C178.026 91.4236 178.641 91.5939 179.225 91.853C180.067 92.2265 180.924 92.5366 181.854 92.5966C182.15 92.6138 182.442 92.6864 182.735 92.7531C183.178 92.852 183.626 92.9249 184.074 93.0006C184.496 93.072 184.918 93.1404 185.341 93.206C185.892 93.2906 186.438 93.4072 186.994 93.4455C187.144 93.4541 187.299 93.4515 187.441 93.4948C188.032 93.6754 188.642 93.7811 189.252 93.8488C190.245 93.9563 191.234 94.125 192.238 94.1541C192.583 94.1654 192.929 94.2119 193.272 94.2026C193.996 94.1834 194.721 94.1408 195.447 94.0983C195.782 94.0798 196.124 94.0967 196.451 94.0076C196.636 93.957 196.819 93.9238 197.008 93.9494C197.036 93.8107 197.148 93.7675 197.257 93.7241C197.685 93.5444 198.161 93.4815 198.521 93.1457C198.542 93.1236 198.583 93.123 198.61 93.107C198.822 92.979 199.088 92.9565 199.273 92.7919C199.419 92.663 199.571 92.5285 199.729 92.4296C200.109 92.1944 200.429 91.9002 200.713 91.56C201.039 91.1726 201.255 90.7291 201.393 90.2371C201.495 89.8718 201.549 89.4977 201.645 89.135C201.815 88.487 201.819 87.8294 201.777 87.175L201.78 87.1752Z" fill="#A54627"/>
<path d="M174.099 68.0104C174.085 68.028 174.077 68.0275 174.066 68.0085C174.078 68 174.087 68.0005 174.099 68.0104Z" fill="#FF743F"/>
<path d="M175.182 68.1229L175.17 68.1341L175.159 68.1216L175.171 68.1163L175.182 68.1229Z" fill="#FF743F"/>
<path d="M172.878 82.6541C173.234 82.6309 173.623 82.6273 174.018 82.5771C174.856 82.471 175.554 82.1082 176.203 81.5963C176.427 81.4193 176.593 81.1921 176.756 80.9619C176.967 80.6613 177.293 80.5926 177.58 80.773C177.821 80.9274 177.949 81.1512 177.972 81.439C178.002 81.8208 178.131 82.1763 178.257 82.5315C178.46 83.093 178.807 83.5576 179.221 83.9706C179.874 84.6225 180.659 84.9928 181.579 84.9703C181.959 84.9603 182.275 84.7302 182.545 84.4447C183.046 83.9125 183.238 83.2396 183.433 82.5639C183.48 82.4058 183.532 82.2509 183.593 82.0995C183.775 81.6452 184.445 81.4298 184.868 81.9281C185.134 82.2418 185.389 82.5695 185.637 82.8968C185.934 83.2912 186.258 83.6609 186.612 84.0002C187.15 84.5139 187.705 85.0053 188.362 85.3563C188.822 85.6054 189.317 85.716 189.844 85.6151C190.211 85.5459 190.61 85.1305 190.644 84.7027C190.682 84.2372 190.644 83.8081 190.447 83.3844C190.237 82.9394 190.528 82.395 190.981 82.3337C191.272 82.295 191.613 82.4582 191.765 82.7681C191.809 82.8555 191.858 82.9461 191.879 83.0408C192.028 83.7395 192.502 84.2085 192.984 84.6694C193.339 85.0087 193.706 85.3283 194.132 85.5782C194.859 86.0006 195.618 86.1647 196.447 85.938C197.017 85.7812 197.298 85.3736 197.436 84.8349C197.556 84.3624 197.633 83.8786 197.639 83.3907C197.642 83.043 197.605 82.69 197.489 82.3645C197.434 82.2093 197.307 82.0791 197.193 81.9526C196.987 81.7272 196.996 81.4792 197.098 81.222C197.175 81.0277 197.511 80.904 197.752 80.9706C198.112 81.0676 198.314 81.3454 198.504 81.643C198.757 82.0437 198.828 82.5126 198.891 82.9578C198.944 83.3293 198.964 83.7339 198.86 84.1167C198.842 84.1858 198.843 84.2619 198.839 84.3348C198.79 85.0219 198.566 85.655 198.226 86.2404C197.986 86.6562 197.588 86.905 197.154 87.0902C196.734 87.2705 196.296 87.3765 195.848 87.3534C195.156 87.316 194.466 87.2437 193.836 86.8971C193.147 86.5178 192.51 86.0744 191.968 85.4961C191.892 85.4157 191.85 85.4044 191.782 85.5204C191.596 85.8428 191.441 86.1846 191.139 86.4273C190.661 86.8117 190.128 87.0087 189.521 86.9997C189.182 86.9946 188.848 86.9371 188.521 86.8713C188.333 86.834 188.147 86.7589 187.98 86.6644C187.416 86.3568 186.887 85.9985 186.393 85.5751C185.831 85.0921 185.315 84.5708 184.853 83.9885C184.773 83.8873 184.698 83.7807 184.609 83.6848C184.517 83.5859 184.464 83.5975 184.42 83.7235C184.292 84.0728 184.185 84.432 183.977 84.7444C183.449 85.544 182.799 86.164 181.806 86.2905C181.261 86.361 180.739 86.2722 180.219 86.1045C179.193 85.7699 178.378 85.1377 177.731 84.2844C177.447 83.9112 177.215 83.5 177.063 83.0497C176.987 82.8231 176.852 82.7743 176.662 82.9123C175.951 83.4382 175.168 83.7785 174.299 83.9092C173.579 84.0193 172.865 84.007 172.134 83.8972C171.401 83.7843 170.719 83.5693 170.084 83.1961C169.539 82.8778 169.08 82.4389 168.746 81.9019C168.512 81.5257 168.353 81.0984 168.273 80.6464C168.223 80.3657 168.147 80.3379 167.877 80.4129C167.587 80.4954 167.287 80.5101 166.99 80.5104C165.807 80.5058 164.685 80.2417 163.655 79.635C162.772 79.1129 162.122 78.3675 161.8 77.381C161.59 76.7372 161.609 76.0688 161.871 75.4175C162.117 74.812 162.457 74.2733 162.975 73.8883C163.388 73.582 163.852 73.3693 164.388 73.4092C164.687 73.4324 164.968 73.6505 165.02 73.8933C165.087 74.2159 164.965 74.4368 164.612 74.6093C164.52 74.6536 164.417 74.6857 164.318 74.7091C163.617 74.8759 163.25 75.3866 163.062 76.0336C162.82 76.8674 163.179 77.5256 163.77 78.0658C164.448 78.6841 165.275 78.9691 166.161 79.1289C166.597 79.2069 167.026 79.2143 167.456 79.1458C167.919 79.0704 168.279 78.8136 168.561 78.4295C168.73 78.1996 168.943 78.0482 169.251 78.0516C169.487 78.0536 169.668 78.1635 169.773 78.3334C169.895 78.5275 169.998 78.7733 169.832 79.0034C169.525 79.427 169.46 79.894 169.555 80.3906C169.692 81.0974 170.105 81.6156 170.685 82.0001C171.336 82.4327 172.076 82.5898 172.878 82.657L172.878 82.6541Z" fill="#BF5F3C"/>
<path d="M173.056 73.1945C173.076 72.6109 173.287 72.1086 173.678 71.6782C173.924 71.406 174.336 71.313 174.599 71.4775C174.872 71.6483 174.965 72.066 174.787 72.3509C174.736 72.4328 174.671 72.5108 174.612 72.5892C174.233 73.1022 174.228 73.6838 174.781 74.0843C175.471 74.5835 176.22 74.9312 177.081 74.9345C177.467 74.9365 177.855 74.9532 178.243 74.8676C178.447 74.8211 178.661 74.813 178.871 74.758C179.216 74.6699 179.446 74.4377 179.654 74.175C179.707 74.1079 179.76 74.0408 179.807 73.9705C179.968 73.7284 180.204 73.6486 180.469 73.6962C180.756 73.748 180.94 73.9517 181.01 74.2306C181.111 74.6224 181.224 75.0032 181.533 75.2872C182.11 75.8178 182.716 76.3268 183.463 76.5574C184.018 76.73 184.603 76.6734 185.12 76.2913C185.452 76.0445 185.687 75.7103 185.997 75.4476C186.26 75.2261 186.643 75.1783 186.941 75.3564C187.127 75.4667 187.292 75.6049 187.435 75.7711C187.934 76.3527 188.567 76.7521 189.228 77.1151C189.574 77.3048 189.927 77.4832 190.279 77.6616C190.539 77.7937 190.821 77.8452 191.111 77.824C191.411 77.8006 191.672 77.5322 191.694 77.206C191.721 76.7983 191.757 76.3852 191.714 75.9821C191.688 75.738 191.627 75.4976 191.656 75.2449C191.688 74.9515 192.006 74.6864 192.252 74.7621C192.419 74.8128 192.573 74.9358 192.634 75.0796C192.737 75.3254 192.885 75.5562 192.882 75.8484C192.877 76.0879 192.993 76.3139 193.005 76.5631C193.036 77.252 192.949 77.9048 192.522 78.4617C192.229 78.8452 191.819 79.0523 191.34 79.118C190.965 79.1693 190.596 79.1244 190.239 79.0393C189.977 78.9773 189.709 78.8827 189.483 78.7059C189.39 78.6302 189.259 78.6109 189.146 78.5576C188.287 78.1333 187.466 77.6528 186.762 76.9862C186.614 76.846 186.507 76.8602 186.358 76.9948C185.829 77.464 185.267 77.8757 184.539 77.9503C183.809 78.0247 183.103 77.9339 182.445 77.5711C181.717 77.1691 181.044 76.6943 180.464 76.0904C180.407 76.0286 180.362 75.9558 180.311 75.8856C180.178 75.6995 180.066 75.6521 179.88 75.7728C179.41 76.0846 178.877 76.1413 178.343 76.2096C177.759 76.2838 177.178 76.2821 176.593 76.2306C175.731 76.154 174.965 75.8112 174.249 75.3427C173.985 75.1724 173.737 74.9826 173.53 74.7395C173.206 74.364 172.991 73.8076 173.055 73.2062L173.056 73.1945Z" fill="#BF5F3C"/>
<path d="M165.485 95.6202C165.486 95.0589 165.572 94.333 165.654 93.6127C165.741 92.8664 165.874 92.1285 165.944 91.3783C165.974 91.0643 166.154 90.7882 166.505 90.6947C166.777 90.6228 167.119 90.9409 167.194 91.2844C167.309 91.8203 167.184 92.3305 167.087 92.8482C167.075 92.9118 167.06 92.9782 167.053 93.0421C166.973 94.0169 166.881 94.991 166.833 95.9676C166.811 96.4312 166.676 96.8736 166.546 97.3134C166.485 97.5233 166.245 97.6876 166.04 97.6904C165.746 97.6937 165.583 97.576 165.468 97.2799C165.421 97.1543 165.399 97.0303 165.41 96.8935C165.438 96.5238 165.454 96.1534 165.485 95.6173L165.485 95.6202Z" fill="#FFD7C9"/>
<path d="M181.571 105.912C181.599 105.73 181.75 105.478 181.882 105.226C182.455 104.151 183 103.063 183.475 101.939C183.592 101.662 183.692 101.381 183.874 101.135C184.067 100.874 184.432 100.693 184.756 100.926C184.966 101.078 184.988 101.281 184.977 101.515C184.954 101.917 184.764 102.259 184.613 102.616C184.399 103.124 184.162 103.625 183.917 104.119C183.558 104.844 183.188 105.562 182.809 106.274C182.718 106.444 182.591 106.6 182.399 106.683C181.908 106.894 181.52 106.45 181.571 105.915L181.571 105.912Z" fill="#FFD7C9"/>
<path d="M159.296 97.5346C159.289 96.9027 159.482 96.028 159.568 95.1413C159.596 94.8681 159.669 94.6005 159.782 94.3439C159.981 93.8965 160.452 93.7806 160.795 94.1163C160.958 94.2749 161.005 94.5057 160.993 94.7184C160.958 95.3099 160.903 95.9003 160.794 96.4845C160.756 96.6899 160.758 96.9063 160.746 97.1161C160.707 97.7688 160.669 98.4244 160.631 99.0771C160.623 99.2024 160.605 99.327 160.566 99.4475C160.474 99.7346 160.254 99.8972 159.967 99.8863C159.645 99.8734 159.446 99.6806 159.351 99.3885C159.18 98.8611 159.272 98.3285 159.301 97.5349L159.296 97.5346Z" fill="#FFD7C9"/>
<path d="M166.305 108.31C166.3 108.871 166.369 109.419 166.357 109.968C166.345 110.476 166.448 110.976 166.403 111.485C166.386 111.689 166.348 111.891 166.31 112.091C166.264 112.345 166.09 112.511 165.847 112.575C165.613 112.638 165.453 112.523 165.287 112.35C165.035 112.084 165.08 111.762 165.074 111.457C165.061 110.752 165.013 110.05 165.011 109.346C165.011 108.556 164.914 107.767 165.012 106.975C165.033 106.812 165.079 106.666 165.162 106.53C165.378 106.18 165.966 106.326 166.112 106.629C166.269 106.954 166.295 107.301 166.306 107.649C166.313 107.872 166.36 108.097 166.307 108.31L166.305 108.31Z" fill="#FFD7C9"/>
<path d="M172.679 101.17C172.653 101.718 172.616 102.356 172.498 102.987C172.372 103.658 172.375 104.351 172.183 105.015C172.136 105.179 172.048 105.303 171.922 105.398C171.696 105.569 171.438 105.498 171.268 105.248C171.074 104.962 171.071 104.635 171.084 104.317C171.123 103.345 171.223 102.383 171.36 101.421C171.439 100.852 171.467 100.278 171.512 99.7046C171.534 99.4369 171.701 99.2361 172.001 99.1395C172.189 99.0774 172.44 99.1563 172.567 99.3538C172.699 99.5603 172.724 99.8132 172.734 100.048C172.745 100.39 172.702 100.733 172.676 101.17L172.679 101.17Z" fill="#FFD7C9"/>
<path d="M176.972 111.068C176.914 111.275 176.883 111.502 176.786 111.689C176.607 112.041 176.567 112.43 176.433 112.794C176.272 113.232 176.111 113.673 175.936 114.104C175.795 114.444 175.634 114.777 175.51 115.123C175.359 115.541 175.195 115.684 174.764 115.708C174.539 115.721 174.323 115.58 174.261 115.354C174.197 115.12 174.182 114.891 174.265 114.641C174.447 114.096 174.699 113.579 174.886 113.037C175.091 112.447 175.282 111.85 175.497 111.263C175.607 110.96 175.656 110.617 175.92 110.387C176.078 110.253 176.252 110.129 176.466 110.22C176.679 110.311 176.898 110.415 176.906 110.714C176.911 110.831 176.979 110.94 176.972 111.068Z" fill="#FFD7C9"/>
<path d="M180.513 94.6004C180.742 94.6108 180.985 94.853 181.039 95.0578C181.135 95.4231 181.018 95.7583 180.934 96.1014C180.711 97.0152 180.49 97.9292 180.261 98.8397C180.171 99.197 180.058 99.5471 179.96 99.901C179.912 100.071 179.823 100.215 179.701 100.336C179.517 100.524 179.302 100.605 179.046 100.506C178.869 100.437 178.746 100.17 178.741 99.9061C178.734 99.4437 178.877 99.0077 178.987 98.5696C179.254 97.5034 179.521 96.4372 179.796 95.3744C179.886 95.0258 180.017 94.7031 180.417 94.6152C180.455 94.6058 180.492 94.6021 180.51 94.6002L180.513 94.6004Z" fill="#FFD7C9"/>
<path d="M190.91 100.155C190.914 99.7902 191.126 99.4575 191.33 99.1331C191.765 98.4334 192.117 97.6908 192.449 96.9353C192.536 96.7386 192.611 96.5325 192.74 96.3558C192.88 96.1623 193.078 96.0802 193.316 96.0941C193.537 96.107 193.7 96.2392 193.773 96.4189C193.888 96.7179 193.895 97.037 193.767 97.3454C193.479 98.0449 193.162 98.7311 192.792 99.3878C192.538 99.8379 192.305 100.321 191.85 100.625C191.691 100.73 191.518 100.781 191.336 100.785C191.189 100.789 191.076 100.697 190.974 100.586C190.863 100.465 190.919 100.331 190.912 100.156L190.91 100.155Z" fill="#FFD7C9"/>
<path d="M184.461 112.53C183.987 112.503 183.759 112.03 183.984 111.57C184.243 111.041 184.587 110.57 184.913 110.083C185.19 109.67 185.468 109.256 185.729 108.833C185.965 108.449 186.314 108.332 186.641 108.611C186.849 108.79 186.914 109.162 186.775 109.507C186.613 109.916 186.403 110.301 186.149 110.664C185.816 111.136 185.505 111.623 185.178 112.098C185.004 112.349 184.797 112.55 184.464 112.533L184.461 112.53Z" fill="#FFD7C9"/>
</g>
<defs>
<clipPath id="clip0_1154_9133">
<rect width="44.9161" height="57.9669" fill="white" transform="matrix(0.99831 0.0581089 -0.0585522 0.998284 158.394 61)"/>
</clipPath>
</defs>
</svg>
