<svg width="72" height="72" viewBox="0 0 72 72" fill="none" xmlns="http://www.w3.org/2000/svg">
<g clip-path="url(#clip0_1021_10785)">
<path d="M48 15.5V17.5V21L49.5 24.5L57 24L49.5 16.5L48 15.5Z" fill="white"/>
<path d="M57.3895 22.9178C56.1086 21.7781 54.8465 20.4407 53.6314 19.1409C52.3317 17.7563 50.9848 16.3153 49.5814 15.1191C48.9786 14.6011 48.3758 14.3562 47.5846 14.3091L17.2752 14.3279C15.0712 14.6105 13.2628 16.3435 12.9802 18.4533V53.5004C13.2063 55.7326 15.09 57.5504 17.3693 57.7011H54.6392C57.1164 57.4374 58.8494 55.629 59.0001 53.0954V25.8753C58.9153 24.5472 58.4161 24.0198 57.5214 23.0779L57.3801 22.9272L57.3895 22.9178ZM48.8467 16.2588L56.2028 23.7843H55.2797C54.8653 23.7843 54.4415 23.8032 54.0176 23.8126C53.5655 23.822 53.104 23.8408 52.6331 23.8408C52.3222 23.8408 52.0114 23.8408 51.71 23.822C50.9 23.7843 49.9864 23.6713 49.3648 22.8707C49.1575 22.607 48.8467 21.9382 48.8467 21.5332V16.2682V16.2588ZM56.8244 53.3309C56.8244 53.8018 56.523 54.3575 56.0332 54.819C55.5623 55.2617 55.016 55.5066 54.5545 55.5066C54.5262 55.5066 54.498 55.5066 54.4603 55.5066H17.52C16.192 55.403 15.203 54.3387 15.1277 52.9729V19.0561C15.09 18.4251 15.5044 17.7281 15.9094 17.3042C16.3615 16.8239 16.889 16.5507 17.3599 16.5507H47.1608V21.8535C47.1608 23.3982 49.2423 25.442 50.8058 25.442H56.8244V53.3214V53.3309Z" fill="#FDAAAC"/>
<path d="M46.7651 16.9463V21.8629C46.7651 23.6242 49.0444 25.847 50.8057 25.847H56.4381V53.3308C56.4381 54.1032 55.2985 55.1769 54.4885 55.1204H17.52C16.3615 55.0262 15.5797 54.0843 15.5138 52.9541V19.0561C15.4667 18.199 16.4933 16.9463 17.3598 16.9463H46.7745H46.7651ZM33.5789 35.9439L35.3684 48.6874C33.1174 44.1947 29.9809 39.8244 25.6201 37.1871C24.5275 36.5278 22.3518 35.4541 21.0991 35.3976C20.0819 35.3505 20.4209 36.0098 20.7317 36.5937C21.0708 37.2248 21.5418 37.9124 21.9279 38.534C25.0644 43.4883 29.1332 48.8004 34.5961 51.287C36.7436 52.2665 37.8738 52.4078 39.993 51.2304C46.0775 47.8491 49.7979 38.7789 50.1182 32.0822C50.1841 30.6505 49.7697 30.6317 48.6206 31.2439C47.1136 32.0445 45.6066 33.6834 44.5234 34.9926C41.3022 38.8731 38.9947 43.6578 37.5442 48.4708L35.6793 35.8402C40.1155 34.9172 42.4419 29.5862 42.1593 25.4326C42.1123 24.7073 41.7732 23.125 40.869 23.0402C39.8047 22.946 38.3919 24.34 37.6572 25.0181C37.2804 23.7184 36.6494 22.2867 35.5662 21.4202C33.3623 19.6495 31.4785 22.4939 30.8004 24.3494C30.7533 24.4718 30.5366 25.3007 30.4801 25.2913C29.5477 24.4436 26.8257 22.1737 25.9215 24.0857C25.281 25.4326 25.7237 27.8908 26.1569 29.2942C27.193 32.6473 29.8773 35.7366 33.5883 35.9533L33.5789 35.9439Z" fill="#FEFEFE"/>
<path d="M46.2651 17.4463H17.3599C17.1438 17.4463 16.7968 17.6272 16.4741 18.0049C16.1562 18.3772 15.9998 18.7814 16.0132 19.0283C16.0137 19.0373 16.0142 19.0467 16.0142 19.0557V52.9346C16.0712 53.8443 16.6827 54.5421 17.5444 54.6201H54.4888L54.5229 54.6221C54.7238 54.6361 55.0802 54.4915 55.4272 54.1699C55.5887 54.0203 55.7231 53.8538 55.814 53.6953C55.9074 53.5323 55.9379 53.4073 55.938 53.3311V26.3467H50.8062C49.74 26.3467 48.6105 25.6927 47.7749 24.8721C46.9402 24.0523 46.2653 22.9356 46.2651 21.8633V17.4463ZM33.9399 20.3721C34.5872 20.3113 35.2442 20.5202 35.8784 21.0293C36.862 21.8161 37.4833 22.9972 37.8892 24.125C38.1744 23.8678 38.5027 23.5857 38.8452 23.3359C39.1508 23.1132 39.4827 22.9037 39.8218 22.7559C40.1575 22.6095 40.5326 22.5085 40.9126 22.542H40.9155C41.673 22.613 42.0863 23.2895 42.2983 23.8066C42.5276 24.3659 42.6326 24.9989 42.6587 25.4004H42.6577C42.8052 27.574 42.273 30.0408 41.1255 32.0918C40.0512 34.0117 38.411 35.6091 36.2407 36.2168L37.729 46.3008C39.1998 42.1336 41.3215 38.0673 44.1392 34.6729C45.2212 33.3651 46.7823 31.6546 48.3853 30.8027L48.8101 30.5908C48.9464 30.5286 49.0773 30.4758 49.2007 30.4375C49.4344 30.3649 49.7403 30.3107 50.0298 30.4404C50.3474 30.5829 50.4931 30.8732 50.5591 31.1416C50.6241 31.4061 50.6348 31.734 50.6177 32.1055V32.1064C50.454 35.5277 49.4251 39.536 47.6665 43.1201C45.9104 46.6993 43.3994 49.9099 40.2358 51.668C39.1377 52.278 38.2361 52.5796 37.2983 52.5674C36.3727 52.5553 35.4731 52.2371 34.3882 51.7422C28.7818 49.1901 24.6469 43.7641 21.5054 38.8018L21.5034 38.7979C21.1355 38.2055 20.64 37.4787 20.2915 36.8301L20.2905 36.8291C20.2144 36.6862 20.1234 36.5143 20.0532 36.3457C19.9865 36.1854 19.9141 35.972 19.9175 35.751C19.9215 35.4943 20.0314 35.2232 20.3101 35.0547C20.5437 34.9134 20.8346 34.8851 21.1226 34.8984C21.8452 34.9313 22.7728 35.2461 23.6157 35.6064C24.2606 35.8822 24.8934 36.2013 25.4077 36.4873L25.8784 36.7588V36.7598C29.5433 38.9761 32.3464 42.371 34.4888 46.0176L33.1392 36.415C29.4888 35.9973 26.8857 32.9909 25.7847 29.7666L25.6792 29.4414C25.4541 28.7122 25.2266 27.7121 25.1382 26.7129C25.0515 25.7324 25.0903 24.67 25.4692 23.8721L25.5894 23.6514C25.8882 23.1677 26.3226 22.9064 26.8306 22.8516C27.364 22.794 27.9194 22.97 28.4058 23.2021C29.0825 23.5252 29.7479 24.0183 30.2505 24.4326C30.2528 24.4246 30.256 24.417 30.2583 24.4092C30.2827 24.3262 30.3124 24.2249 30.3335 24.1699C30.6885 23.2016 31.3662 21.9441 32.2837 21.1475C32.7483 20.7441 33.3059 20.4317 33.9399 20.3721ZM34.0337 21.3682C33.6739 21.402 33.3053 21.5843 32.939 21.9023C32.1965 22.547 31.5939 23.6353 31.27 24.5215L31.2671 24.5293C31.266 24.5326 31.2617 24.5454 31.2534 24.5723C31.2439 24.6034 31.2321 24.6433 31.2183 24.6904C31.1911 24.7828 31.1569 24.9013 31.1226 25.0146C31.0887 25.1264 31.0507 25.2454 31.0161 25.3389C30.9999 25.3828 30.9778 25.4389 30.9517 25.4893C30.9402 25.5113 30.9146 25.5579 30.8745 25.6055C30.8547 25.6289 30.8146 25.6743 30.7515 25.7139C30.6875 25.7539 30.5611 25.8114 30.3979 25.7842C30.3032 25.7684 30.2151 25.7257 30.144 25.6611C29.6816 25.2407 28.814 24.505 27.9751 24.1045C27.5516 23.9023 27.1984 23.8177 26.938 23.8457C26.7247 23.8687 26.5298 23.9694 26.3735 24.2998L26.3726 24.3008C26.1118 24.8496 26.0515 25.6896 26.1343 26.625C26.2154 27.5421 26.4262 28.4724 26.6343 29.1465C27.6269 32.359 30.1501 35.2062 33.5347 35.4473C33.6792 35.4344 33.8252 35.4839 33.9321 35.5908L33.9419 35.5996C34.0409 35.6987 34.09 35.8323 34.0864 35.9668L35.8638 48.6182C35.8977 48.8606 35.7508 49.0922 35.5171 49.165C35.2833 49.2378 35.0311 49.1301 34.9214 48.9111C32.6906 44.4589 29.6073 40.1833 25.3608 37.6152V37.6143C24.8332 37.2959 24.037 36.8744 23.2231 36.5264C22.3925 36.1712 21.6064 35.9214 21.0767 35.8975H21.0757C21.027 35.8952 20.9867 35.8952 20.9536 35.8965C20.9608 35.9162 20.9674 35.9387 20.9771 35.9619C21.0259 36.0793 21.0934 36.2091 21.1724 36.3574L21.439 36.8232C21.7218 37.2938 22.0475 37.7796 22.3501 38.2666L22.9478 39.1963C25.8856 43.6963 29.5621 48.2479 34.3081 50.5967L34.8032 50.832C35.8657 51.3167 36.6059 51.5582 37.312 51.5674C38.0059 51.5763 38.7296 51.3601 39.7505 50.793C42.6711 49.1697 45.0629 46.1548 46.7681 42.6797C48.4708 39.2094 49.462 35.3339 49.6187 32.0586C49.6344 31.7151 49.6184 31.5034 49.5884 31.3809C49.5875 31.3772 49.5853 31.3735 49.5845 31.3701C49.5622 31.3746 49.533 31.3813 49.4966 31.3926C49.3444 31.4399 49.1379 31.5353 48.856 31.6855H48.855C47.4447 32.4348 45.9928 34.0012 44.9087 35.3115H44.9077C41.7384 39.1295 39.4588 43.851 38.0229 48.6152C37.9553 48.8393 37.7408 48.9868 37.5073 48.9697C37.274 48.9525 37.0836 48.7754 37.0493 48.5439L35.1851 35.9131C35.1465 35.6512 35.3185 35.4045 35.5776 35.3506C37.6141 34.9268 39.1998 33.4848 40.2524 31.6035C41.306 29.7206 41.7952 27.4462 41.6606 25.4668V25.4648C41.6396 25.1411 41.5506 24.6199 41.3726 24.1855C41.2017 23.769 41.0212 23.5957 40.8804 23.5498L40.8228 23.5381C40.671 23.5252 40.4713 23.5638 40.2212 23.6729C39.9732 23.781 39.7065 23.9449 39.4341 24.1436C38.8856 24.5435 38.3757 25.0358 37.9966 25.3857C37.8693 25.5033 37.6899 25.5465 37.5229 25.5C37.3561 25.4535 37.2255 25.3236 37.1772 25.1572C36.8085 23.8849 36.2128 22.578 35.2534 21.8105V21.8096C34.786 21.434 34.3803 21.3356 34.0337 21.3682ZM47.2651 21.8633C47.2653 22.552 47.7303 23.4266 48.4751 24.1582C49.2194 24.8892 50.111 25.3467 50.8062 25.3467H56.438C56.714 25.3467 56.9378 25.5707 56.938 25.8467V53.3311C56.9379 53.6409 56.8265 53.9399 56.6812 54.1934C56.5331 54.4515 56.3315 54.6952 56.1069 54.9033C55.6898 55.2899 55.0865 55.6457 54.4888 55.6191V55.6201H17.52C17.5065 55.6201 17.4925 55.6202 17.479 55.6191C16.0355 55.5016 15.0924 54.3236 15.0142 52.9834V19.084L15.0122 18.9688C15.0226 18.3929 15.3395 17.7943 15.7144 17.3555C16.1099 16.8925 16.7094 16.4463 17.3599 16.4463H46.7749L46.8755 16.4561C47.1033 16.5027 47.2749 16.7047 47.2749 16.9463C47.2749 16.9774 47.2706 17.0076 47.2651 17.0371V21.8633Z" fill="white"/>
<path d="M49.2327 17.2199L55.2701 23.3986C54.0927 23.3986 52.8966 23.4927 51.7286 23.4268C50.9469 23.3891 50.184 23.2855 49.6753 22.6262C49.4964 22.4002 49.2327 21.8068 49.2327 21.5242V17.2104V17.2199Z" fill="#FEFDFD"/>
<path d="M35.6699 35.8401L37.5348 48.4706C38.9759 43.6577 41.2929 38.873 44.5141 34.9924C45.5972 33.6832 47.1136 32.0444 48.6112 31.2438C49.7603 30.6316 50.1747 30.6504 50.1088 32.0821C49.7885 38.7788 46.0776 47.849 39.9837 51.2303C37.8644 52.4077 36.7342 52.2664 34.5867 51.2868C29.1144 48.8003 25.055 43.4881 21.9185 38.5339C21.5324 37.9217 21.0614 37.2341 20.7224 36.5936C20.4115 36.0097 20.0725 35.3598 21.0897 35.3974C22.3424 35.454 24.5181 36.5277 25.6107 37.187C29.981 39.8242 33.1174 44.1945 35.3591 48.6873L33.5695 35.9437C34.1911 35.9814 35.0482 35.9626 35.6605 35.8307L35.6699 35.8401Z" fill="#68C873"/>
<mask id="mask0_1021_10785" style="mask-type:luminance" maskUnits="userSpaceOnUse" x="20" y="30" width="31" height="23">
<path d="M35.6699 35.8401L37.5348 48.4706C38.9759 43.6577 41.2929 38.873 44.5141 34.9924C45.5972 33.6832 47.1136 32.0444 48.6112 31.2438C49.7603 30.6316 50.1747 30.6504 50.1088 32.0821C49.7885 38.7788 46.0776 47.849 39.9837 51.2303C37.8644 52.4077 36.7342 52.2664 34.5867 51.2868C29.1144 48.8003 25.055 43.4881 21.9185 38.5339C21.5324 37.9217 21.0614 37.2341 20.7224 36.5936C20.4115 36.0097 20.0725 35.3598 21.0897 35.3974C22.3424 35.454 24.5181 36.5277 25.6107 37.187C29.981 39.8242 33.1174 44.1945 35.3591 48.6873L33.5695 35.9437C34.1911 35.9814 35.0482 35.9626 35.6605 35.8307L35.6699 35.8401Z" fill="white"/>
</mask>
<g mask="url(#mask0_1021_10785)">
<path d="M37.1204 51.5037C35.8583 50.6183 34.7375 49.5352 33.6732 48.4238C32.5335 47.237 31.4692 46.0032 30.5462 44.6469C28.5211 41.6894 26.0629 39.1746 23.4915 36.688C23.1619 36.3678 22.6627 36.867 22.9924 37.1872C24.3298 38.4682 25.6578 39.7586 26.9105 41.1337C28.1632 42.5088 29.2275 44.0064 30.3013 45.5322C31.1961 46.7943 32.2321 47.9623 33.3059 49.0643C34.3796 50.1662 35.5004 51.24 36.7625 52.1159C37.1393 52.3796 37.4878 51.7674 37.1204 51.5037Z" fill="#4BAA52"/>
<path d="M48.536 31.7898C47.5942 33.6453 46.6052 35.4443 45.4184 37.1679C44.3353 38.7409 43.3463 40.3515 42.4421 42.0374C40.6902 45.3057 39.1267 48.7247 36.6967 51.5692C36.4047 51.9082 36.9039 52.4169 37.1959 52.0684C39.6259 49.2333 41.2177 45.852 42.9601 42.5743C43.8738 40.8601 44.8627 39.2212 45.9647 37.62C47.1703 35.8682 48.1781 34.0409 49.1388 32.1478C49.346 31.7428 48.7338 31.3848 48.5266 31.7898H48.536Z" fill="#4BAA52"/>
</g>
<path d="M33.579 35.9438C29.8774 35.7272 27.1837 32.6378 26.1476 29.2847C25.7143 27.8908 25.2811 25.4231 25.9121 24.0762C26.8163 22.1642 29.5383 24.4341 30.4708 25.2818C30.5179 25.2818 30.7439 24.4529 30.791 24.3399C31.4692 22.4938 33.3529 19.64 35.5569 21.4107C36.64 22.2772 37.2617 23.7089 37.6479 25.0086C38.3825 24.3305 39.7953 22.9365 40.8596 23.0307C41.7733 23.1155 42.1029 24.6884 42.15 25.4231C42.4326 29.5767 40.1061 34.9077 35.6699 35.8308C35.0577 35.9532 34.21 35.9815 33.579 35.9438Z" fill="#FD6C50"/>
<path d="M27.204 25.7643C27.4059 25.7184 27.6063 25.8446 27.6522 26.0465L27.6532 26.0485C27.6536 26.0501 27.6544 26.0528 27.6552 26.0563L27.6942 26.2174C27.7224 26.3294 27.7641 26.4922 27.8202 26.692C27.9326 27.0924 28.1004 27.6409 28.3202 28.234C28.768 29.4423 29.4058 30.7556 30.1884 31.4313C30.3449 31.5667 30.3617 31.8029 30.2265 31.9596C30.0911 32.1163 29.8549 32.1339 29.6981 31.9987C28.7572 31.1863 28.0664 29.707 27.6171 28.4948C27.3884 27.8777 27.2148 27.3085 27.0985 26.8942C27.0404 26.687 26.9963 26.5179 26.9667 26.4C26.952 26.3413 26.9411 26.295 26.9335 26.2633C26.9297 26.2475 26.9267 26.2347 26.9247 26.2262C26.9237 26.2221 26.9223 26.2187 26.9218 26.2165V26.2125C26.8759 26.0106 27.0021 25.8103 27.204 25.7643Z" fill="#DB493E"/>
</g>
<defs>
<clipPath id="clip0_1021_10785">
<rect width="72" height="72" fill="white"/>
</clipPath>
</defs>
</svg>
