<svg width="23" height="12" viewBox="0 0 23 12" fill="none" xmlns="http://www.w3.org/2000/svg">
<path d="M4.9095 11.16C2.4135 11.176 0.8775 9.448 0.8775 6.808C0.8775 4.2 2.4295 2.408 4.7815 2.392C6.7335 2.408 8.5735 3.608 8.5575 6.68V7.256H2.5415C2.5735 8.888 3.5175 9.8 4.9415 9.784C5.8695 9.8 6.4935 9.384 6.7655 8.856H8.4615C8.0775 10.248 6.7815 11.176 4.9095 11.16ZM2.5415 6.008H6.9255C6.9255 4.728 6.0935 3.768 4.8135 3.768C3.4855 3.768 2.6215 4.808 2.5415 6.008ZM13.8826 2.52V3.832H12.1546V8.504C12.1386 9.464 12.6186 9.624 13.1466 9.624C13.4026 9.64 13.7706 9.608 13.9786 9.592V11.032C13.7706 11.08 13.4186 11.112 12.9546 11.128C11.6426 11.112 10.4746 10.392 10.4906 8.856V3.832H9.24263V2.52H10.4906V0.471999H12.1546V2.52H13.8826ZM18.6986 11.16C16.2186 11.176 14.7306 9.352 14.7306 6.808C14.7306 4.2 16.2826 2.408 18.6666 2.392C20.6026 2.408 22.0106 3.544 22.1866 5.272H20.5546C20.3786 4.472 19.7546 3.8 18.6986 3.8C17.3226 3.8 16.4106 4.936 16.3946 6.744C16.4106 8.6 17.3066 9.752 18.6986 9.752C19.6426 9.752 20.3466 9.224 20.5546 8.312H22.1866C22.0106 9.96 20.6986 11.176 18.6986 11.16Z" fill="#FF7F50"/>
</svg>
