<svg width="72" height="72" viewBox="0 0 72 72" fill="none" xmlns="http://www.w3.org/2000/svg">
<path d="M42.8153 19.534C41.7751 24.966 40.6854 30.4227 40.38 35.9619C39.5545 35.8298 38.6959 35.9949 37.8952 36.2343C37.0944 36.4737 36.112 36.903 35.3938 37.3323C33.0246 38.7274 32.3064 40.6756 32.8017 43.3916C33.0741 44.861 33.7015 46.1571 34.7499 47.222C31.6047 49.4014 28.121 52.4476 24.7116 54.0738C24.3731 52.6539 23.6467 51.3414 22.9037 50.1113C21.2609 47.3954 18.8917 44.4565 16.0684 42.9045C15.6804 42.6899 15.2263 42.434 14.7888 42.3514C16.7948 39.9327 19.5025 38.7109 21.7562 36.6388C24.0099 34.5668 24.8024 30.5547 25.5701 27.6819C26.5442 24.0084 27.3698 20.31 28.0797 16.5869C30.7709 17.4702 33.6025 17.9408 36.3927 18.4608C36.7477 18.5269 37.0944 18.6177 37.4494 18.6837C39.2325 19.0139 41.0321 19.2946 42.8235 19.5505L42.8153 19.534ZM32.3477 20.1284C31.357 20.2935 30.8782 21.8537 31.745 22.4481C32.488 22.9599 33.5282 22.8361 33.8666 21.928C34.2959 20.7971 33.5199 19.9303 32.3559 20.1284H32.3477ZM39.0839 21.6969C38.3575 21.8207 38.0355 22.5472 38.1098 23.2241C38.2419 24.4211 39.9012 24.5449 40.446 23.5295C40.9909 22.5142 40.2149 21.507 39.0839 21.7051V21.6969ZM29.7308 24.9577C28.6246 24.0909 27.2129 25.0733 27.6504 26.4271C27.9064 27.2114 28.4099 27.4012 29.2024 27.3187C30.2343 27.2031 30.5233 25.5851 29.7308 24.966V24.9577ZM36.013 25.065C34.7499 25.1311 34.2876 27.071 35.4846 27.5333C37.4741 28.3093 38.1676 24.9412 36.013 25.065ZM31.7698 29.3577C30.4325 29.4981 30.3334 31.6692 31.7038 31.8343C33.2227 32.0242 33.7676 29.7787 32.3807 29.4155C32.2156 29.3742 31.9514 29.333 31.778 29.3577H31.7698ZM39.4884 31.8178C39.8929 31.1243 39.4884 30.1915 38.6629 30.1007C36.7725 29.8943 36.6651 32.8002 38.5886 32.4452C38.9023 32.3874 39.3398 32.082 39.4967 31.8095L39.4884 31.8178ZM26.7754 31.793C26.0572 31.9251 25.727 32.957 25.9499 33.5761C26.1893 34.2448 27.0065 34.4512 27.6339 34.2201C27.9807 34.0962 28.154 33.8816 28.2861 33.5431C28.7154 32.4452 27.8981 31.5949 26.7754 31.8013V31.793ZM34.4445 33.7082C32.9338 33.8651 32.7687 35.9702 34.2546 36.0775C35.9139 36.2013 36.112 33.5349 34.4445 33.7082Z" fill="#3E617B"/>
<path d="M55.5283 24.297C54.2653 29.3574 52.5152 35.8873 52.5647 41.0716C51.2191 40.8487 49.9313 41.1624 48.7095 41.7155C47.1163 42.4502 45.5313 43.771 45.0029 45.4963C44.26 47.9151 45.2341 50.2926 46.5879 52.2739C45.5395 53.0499 44.4581 54.1561 43.4262 54.9981C41.0982 56.8968 38.729 58.6139 36.0295 59.9347C35.9057 59.1917 35.5507 58.4405 35.1875 57.7884C34.2381 56.063 32.9751 54.6679 31.5304 53.3801L29.5244 51.9272C31.1012 50.8292 32.6284 49.5744 34.2051 48.4517C36.3597 46.9328 39.0592 45.678 40.1571 43.1436C41.1312 40.8817 40.9331 38.0832 41.1312 35.6479C41.511 31.0084 42.4686 26.3277 43.2776 21.7461L55.5283 24.297ZM45.2341 25.0647C44.0618 25.2628 43.8059 27.3349 45.2423 27.5825C46.2495 27.7559 46.9016 26.9139 46.753 25.9563C46.6457 25.2711 45.8615 24.9574 45.2341 25.0647ZM51.4503 26.3938C50.245 26.6414 50.2037 28.5979 51.5823 28.8538C52.2923 28.9859 52.8784 28.4576 53.0105 27.7807C53.1921 26.8396 52.3418 26.2204 51.4503 26.3938ZM48.8746 31.9826C50.3358 30.736 48.7426 28.9859 47.463 29.9022C46.7365 30.4223 46.6622 31.6028 47.5125 32.0486C48.0326 32.321 48.4289 32.3623 48.8746 31.9826ZM44.0784 33.2456C42.7905 33.4685 42.774 35.4828 44.0701 35.6644C45.1103 35.8047 45.7542 34.9627 45.5313 33.9721C45.4074 33.4107 44.5819 33.1631 44.0784 33.2456ZM50.1129 34.5252C49.3122 34.6325 48.9902 35.2929 49.0893 36.0441C49.2131 37.0017 50.6082 37.2411 51.1778 36.5725C51.9373 35.6726 51.3099 34.3683 50.1212 34.5252H50.1129ZM45.5808 38.3556C44.6149 38.5289 44.3838 40.2873 45.4487 40.7248C46.8108 41.2779 47.9253 39.5443 46.8686 38.6115C46.5302 38.3143 46.0183 38.2813 45.5808 38.3556Z" fill="#3E617B"/>
<path d="M14.7807 42.3428C15.21 42.4253 15.6722 42.6812 16.0602 42.8959C18.8835 44.4561 21.2528 47.3867 22.8956 50.1027C23.6385 51.3327 24.365 52.6453 24.7035 54.0652C19.1394 56.7151 11.2392 52.2738 12.9976 45.6366C13.3608 44.2828 13.9304 43.3664 14.7807 42.3428Z" fill="#DBD8D3"/>
<path d="M42.8153 19.5336C41.024 19.2777 39.2243 18.997 37.4412 18.6668C37.0862 18.6008 36.7478 18.51 36.3845 18.4439C33.5943 17.9239 30.771 17.4533 28.0715 16.57C28.5338 14.1843 28.4348 11.5591 31.7451 12.0627C34.1639 12.4342 36.7313 13.0698 39.15 13.5404C40.4544 13.7963 43.03 13.788 43.4427 15.34C43.6739 16.215 43.0135 18.5348 42.8236 19.5336H42.8153Z" fill="#DBD8D3"/>
<path d="M52.5648 41.0714C52.5979 44.2001 53.2665 46.4207 50.9716 49.0789C49.5599 50.7135 48.1648 51.1097 46.5881 52.2737C45.2342 50.2924 44.2601 47.9149 45.0031 45.4962C45.5314 43.7791 47.1164 42.45 48.7097 41.7153C49.9232 41.1539 51.2192 40.8485 52.5648 41.0714Z" fill="#DBD8D3"/>
<path d="M29.5244 51.9272L31.5304 53.3801C32.9751 54.6679 34.2381 56.0631 35.1875 57.7884C35.5507 58.4488 35.9057 59.1918 36.0295 59.9348C32.8017 61.5115 28.831 61.2226 26.3379 58.3332C25.5454 57.4252 24.4392 55.3531 25.6197 54.3707C26.3296 53.7764 27.6257 53.1737 28.4595 52.6206C28.8062 52.3895 29.2024 52.1501 29.5326 51.9189L29.5244 51.9272Z" fill="#DBD8D3"/>
<path d="M40.3719 35.9616C40.2481 38.174 40.4132 41.1046 39.4968 43.1188C38.5805 45.1331 36.4589 46.0329 34.7418 47.2217C33.7017 46.1567 33.066 44.8607 32.7936 43.3913C32.2983 40.6753 33.0165 38.7271 35.3857 37.3319C36.1039 36.9109 37.0863 36.4816 37.8871 36.234C38.6878 35.9863 39.5381 35.8295 40.3719 35.9616Z" fill="#DBD8D3"/>
<path d="M55.5283 24.2969L43.2776 21.746C43.4097 20.9948 43.4922 20.2188 43.6408 19.4676C43.9875 17.7835 44.4168 17.1974 46.2495 17.4615C48.5114 17.7917 51.2769 18.3283 53.5058 18.8567C54.0341 18.9805 54.8101 19.1539 55.2724 19.4098C56.9482 20.3343 55.8668 22.91 55.5201 24.2969H55.5283Z" fill="#DBD8D3"/>
<path d="M32.3477 20.1279C33.5117 19.9298 34.2877 20.7966 33.8584 21.9276C33.5199 22.8274 32.488 22.9595 31.7368 22.4477C30.87 21.8533 31.3488 20.293 32.3394 20.1279H32.3477Z" fill="#DBD8D3"/>
<path d="M29.7308 24.9574C30.5233 25.5765 30.2344 27.1946 29.2025 27.3101C28.41 27.4009 27.9064 27.2028 27.6505 26.4186C27.213 25.0647 28.6246 24.0823 29.7308 24.9491V24.9574Z" fill="#DBD8D3"/>
<path d="M36.013 25.0644C38.1677 24.9489 37.4742 28.3087 35.4847 27.5328C34.2877 27.0705 34.75 25.1305 36.013 25.0644Z" fill="#DBD8D3"/>
<path d="M26.7754 31.7927C27.8981 31.5864 28.7154 32.4367 28.2861 33.5346C28.154 33.8731 27.9724 34.0877 27.6339 34.2115C27.0066 34.4427 26.1893 34.2445 25.9499 33.5676C25.727 32.9485 26.0572 31.9166 26.7754 31.7845V31.7927Z" fill="#DBD8D3"/>
<path d="M39.0839 21.6964C40.2149 21.4982 40.9991 22.4889 40.446 23.5208C39.8929 24.5527 38.2419 24.4206 38.1098 23.2153C38.0355 22.5384 38.3575 21.8119 39.0839 21.6881V21.6964Z" fill="#DBD8D3"/>
<path d="M31.7698 29.3574C31.9431 29.3409 32.2073 29.3739 32.3724 29.4152C33.7593 29.7784 33.2144 32.0238 31.6955 31.8339C30.3251 31.6606 30.4242 29.4977 31.7615 29.3574H31.7698Z" fill="#DBD8D3"/>
<path d="M39.4885 31.8175C39.3316 32.0816 38.8941 32.3953 38.5804 32.4531C36.6652 32.8081 36.7643 29.9023 38.6547 30.1087C39.4885 30.1995 39.8847 31.1323 39.4802 31.8257L39.4885 31.8175Z" fill="#DBD8D3"/>
<path d="M34.4445 33.7078C36.1121 33.5345 35.914 36.1927 34.2547 36.0771C32.7687 35.9698 32.9338 33.8729 34.4445 33.7078Z" fill="#DBD8D3"/>
<path d="M48.8746 31.9827C48.4288 32.3624 48.0326 32.3129 47.5125 32.0487C46.654 31.6029 46.7365 30.4224 47.463 29.9024C48.7508 28.986 50.3358 30.7361 48.8746 31.9827Z" fill="#DBD8D3"/>
<path d="M45.234 25.0646C45.8696 24.9572 46.6456 25.2709 46.7529 25.9561C46.9098 26.9137 46.2493 27.7558 45.2422 27.5824C43.7975 27.3347 44.0535 25.2709 45.234 25.0646Z" fill="#DBD8D3"/>
<path d="M45.5807 38.3558C46.0182 38.2732 46.53 38.3062 46.8685 38.6117C47.9252 39.5445 46.8107 41.2781 45.4486 40.725C44.3837 40.2875 44.6148 38.5374 45.5807 38.3558Z" fill="#DBD8D3"/>
<path d="M51.4502 26.3936C52.3335 26.212 53.1838 26.8394 53.0105 27.7805C52.8784 28.4574 52.2923 28.9858 51.5823 28.8537C50.2119 28.5978 50.245 26.6413 51.4502 26.3936Z" fill="#DBD8D3"/>
<path d="M44.0786 33.2455C44.5821 33.1629 45.4077 33.4106 45.5315 33.972C45.7544 34.9626 45.1022 35.8129 44.0703 35.6643C42.7742 35.4827 42.7908 33.4684 44.0786 33.2455Z" fill="#DBD8D3"/>
<path d="M50.113 34.5251C51.31 34.3683 51.9374 35.6726 51.1696 36.5724C50.6083 37.2411 49.2131 37.0017 49.0811 36.0441C48.982 35.2929 49.3122 34.6325 50.1047 34.5251H50.113Z" fill="#DBD8D3"/>
</svg>
