<svg width="72" height="72" viewBox="0 0 72 72" fill="none" xmlns="http://www.w3.org/2000/svg">
<path d="M35.2855 34.651C35.5516 35.0089 35.7994 35.3668 36.038 35.7431C36.1941 35.4678 36.3501 35.1741 36.5336 34.9171C42.5357 26.1984 55.6321 31.1727 53.714 41.5617C52.7045 47.0315 47.0236 52.1434 43.1139 55.8236C41.2601 57.5673 39.3053 59.412 37.3688 61.0548C37.1302 61.2567 36.3684 61.945 36.1298 61.9909C35.8912 62.0368 35.7627 61.9266 35.5883 61.7982C35.1111 61.4586 34.5237 60.8804 34.0557 60.4766C31.954 58.6411 29.834 56.6863 27.815 54.7498C23.1252 50.2712 16.1136 43.6633 18.6741 36.4314C20.2986 31.861 25.4839 29.4014 30.1093 30.7964C32.3578 31.4755 33.9364 32.7879 35.3038 34.6418L35.2855 34.651ZM26.576 31.8151C23.6116 32.0629 20.84 34.1646 19.8947 36.9912C18.1602 42.1857 22.0698 46.9214 25.4013 50.4272C27.9802 53.1437 30.8986 55.7869 33.6886 58.3015C34.4595 58.999 35.2304 59.6873 36.038 60.3389C36.8824 59.6506 37.6992 58.9256 38.5068 58.2006C42.0034 55.0435 46.1792 51.3266 49.1252 47.6831C52.1997 43.8652 54.4849 38.065 50.3183 34.0636C46.1333 30.0438 39.9936 31.6132 37.1761 36.358C37.0017 36.6517 36.5061 37.7805 36.3225 37.8906C36.1574 37.9916 35.9463 37.9916 35.7719 37.8998C35.57 37.7897 35.0377 36.6333 34.8541 36.3305C33.0553 33.3569 30.1644 31.5306 26.5852 31.8335L26.576 31.8151Z" fill="#79CA60"/>
<path d="M35.2854 34.6509L35.4415 33.6964C35.4139 33.5588 35.1386 33.4395 35.0285 33.3293C33.7253 32.0169 34.3402 27.676 36.0288 26.6573L36.6713 23.179C32.6698 19.9026 34.6981 13.6894 38.5802 11.239C44.307 7.63221 50.0613 12.4321 47.4732 18.7921C46.0691 22.2337 42.1594 25.1338 38.3324 23.9774L37.8093 26.8592C38.9932 28.4744 38.5068 32.072 37.0108 33.3569C36.6896 33.6322 36.5519 33.4762 36.5152 33.9993C36.4969 34.293 36.5336 34.6142 36.5152 34.9079C36.3317 35.1648 36.1848 35.4585 36.0196 35.7339C35.781 35.3576 35.5332 34.9997 35.2671 34.6417L35.2854 34.6509ZM42.0585 12.1292C37.9378 12.4963 34.2851 19.2877 38.1672 21.5821C42.0493 23.8765 46.996 18.4525 45.913 14.5613C45.4266 12.7992 43.8114 11.9732 42.0585 12.1292ZM39.0758 22.8027C38.5068 23.3533 39.4153 24.216 39.9109 23.5644C40.3423 22.9954 39.553 22.3438 39.0758 22.8027ZM36.3042 29.4839C35.2763 29.695 34.9551 31.8885 35.7076 32.4391C36.3776 32.9347 36.9925 32.0537 37.1577 31.4847C37.3137 30.9707 37.3779 30.2732 37.0384 29.8143C36.8548 29.5665 36.607 29.4289 36.3042 29.4931V29.4839Z" fill="#A8A9AA"/>
<path d="M26.5761 31.8148C30.1461 31.5119 33.0462 33.3291 34.845 36.3118C35.0286 36.6146 35.5517 37.771 35.7628 37.8811C35.9372 37.9729 36.1483 37.9729 36.3134 37.8719C36.497 37.7618 36.9926 36.633 37.167 36.3393C39.9845 31.6037 46.1242 30.0343 50.3092 34.0449C54.4758 38.0463 52.1906 43.8557 49.1161 47.6644C46.1793 51.3079 42.0035 55.0248 38.4977 58.1819C37.6901 58.9069 36.8641 59.6319 36.0289 60.3202C35.2305 59.6686 34.4504 58.9711 33.6795 58.2828C30.8895 55.7682 27.9711 53.125 25.3922 50.4085C22.0699 46.9118 18.1511 42.1762 19.8856 36.9725C20.8309 34.1459 23.6025 32.0442 26.5669 31.7964L26.5761 31.8148ZM36.0106 42.525C35.4875 41.2768 34.3862 39.3128 32.8719 39.1568C29.9442 38.8631 28.6135 42.3322 30.3664 44.4614C30.7886 44.9845 31.119 45.1222 31.6421 45.4618C31.8348 45.5903 31.6237 45.5719 31.5228 45.6178C26.4751 48.0498 30.0911 53.2535 34.2944 50.8306L35.1295 50.0873C35.0745 51.6016 34.7808 53.0424 34.1567 54.4191C33.9273 54.9238 33.138 55.8691 33.7896 56.2729C34.4412 56.6767 34.8909 55.7223 35.1387 55.245C35.9188 53.7675 36.2951 52.0054 36.3777 50.3442C36.8366 50.7848 37.3322 51.1886 37.9379 51.3905C38.7455 51.6566 40.1864 51.7209 40.9481 51.3171C42.2054 50.6471 42.8203 48.9217 42.1687 47.6369C41.719 46.7558 40.8013 46.2786 39.9019 45.9665C42.8662 44.8652 44.2337 39.7166 39.9753 39.4138C38.3968 39.3036 37.4331 39.9369 36.6255 41.2401L36.0106 42.5158V42.525Z" fill="#FEEBB7"/>
<path d="M39.0759 22.803C39.5531 22.3441 40.3516 22.9957 39.9111 23.5647C39.4063 24.2163 38.4977 23.3536 39.0759 22.803Z" fill="#FEFEFE"/>
<path d="M36.0104 42.525L36.6253 41.2493C37.4329 39.9461 38.3966 39.3036 39.9751 39.423C44.2335 39.7258 42.8569 44.8744 39.9017 45.9757C40.8011 46.2786 41.728 46.7558 42.1685 47.646C42.8201 48.9309 42.2052 50.6655 40.9479 51.3262C40.1862 51.73 38.7453 51.675 37.9377 51.3997C37.3228 51.1977 36.8272 50.7848 36.3775 50.3534C36.3041 52.0237 35.9278 53.7766 35.1385 55.2542C34.8907 55.7315 34.4502 56.6951 33.7894 56.2821C33.1287 55.8691 33.9271 54.933 34.1565 54.4282C34.7806 53.0516 35.0743 51.6107 35.1294 50.0964L34.2942 50.8398C30.0909 53.2627 26.4749 48.059 31.5226 45.627C31.6235 45.5811 31.8346 45.5903 31.6419 45.471C31.1188 45.1314 30.7884 44.9937 30.3662 44.4706C28.6133 42.3322 29.9532 38.8723 32.8717 39.166C34.3768 39.3128 35.4781 41.286 36.0104 42.5341V42.525Z" fill="#79CA60"/>
<path d="M32.3347 42.3554C32.5299 42.1602 32.8464 42.1602 33.0417 42.3554L34.6755 43.9892L34.739 44.0673C34.8673 44.2614 34.8464 44.5253 34.6755 44.6963C34.5046 44.8672 34.2407 44.8881 34.0466 44.7597L33.9685 44.6963L32.3347 43.0625C32.1394 42.8672 32.1394 42.5507 32.3347 42.3554Z" fill="#3BB042"/>
<path d="M38.7506 42.3544C38.9464 42.1597 39.2629 42.1607 39.4577 42.3564C39.6524 42.5522 39.6515 42.8687 39.4557 43.0634L37.8131 44.6972C37.6174 44.8918 37.3008 44.8909 37.1061 44.6952C36.9114 44.4994 36.9124 44.1829 37.1081 43.9882L38.7506 42.3544Z" fill="#3BB042"/>
<path d="M33.9674 46.5873C34.1622 46.3916 34.4787 46.3907 34.6745 46.5854C34.8701 46.7801 34.871 47.0966 34.6764 47.2924L33.0426 48.935C32.8479 49.1308 32.5314 49.1316 32.3356 48.9369C32.1399 48.7422 32.139 48.4257 32.3336 48.2299L33.9674 46.5873Z" fill="#3BB042"/>
<path d="M37.1071 46.5859C37.3024 46.3906 37.6189 46.3906 37.8142 46.5859L39.4567 48.2285C39.652 48.4237 39.652 48.7402 39.4567 48.9355C39.2615 49.1308 38.945 49.1308 38.7497 48.9355L37.1071 47.2929C36.9119 47.0977 36.9119 46.7812 37.1071 46.5859Z" fill="#3BB042"/>
</svg>
