<svg width="72" height="72" viewBox="0 0 72 72" fill="none" xmlns="http://www.w3.org/2000/svg">
<path d="M41.8799 24.8301C47.5999 25.0101 53.0099 25.5101 54.1299 32.1601C54.7899 36.0801 54.6099 41.5101 54.3199 45.5001C53.9499 50.4801 53.4199 55.3301 47.8399 56.8301C43.9999 57.8601 38.3999 57.7301 34.3999 57.6301C31.0999 57.5501 27.2399 57.4901 24.0499 56.6601C17.6799 54.9901 17.7599 48.8501 17.5199 43.3801C17.3599 39.8001 17.1899 35.4801 17.8199 31.9901C18.9899 25.5001 24.5399 25.0701 30.0699 24.8901C33.9899 24.7701 37.9499 24.7101 41.8799 24.8301ZM31.5499 28.3501C29.3299 28.4001 24.5399 28.4401 22.8199 29.8301C20.7199 31.5101 20.9299 36.0301 20.8999 38.5201C20.8599 41.8501 20.8499 45.2901 21.3699 48.5901C22.0499 52.8901 23.9999 53.3301 27.9799 53.7901C32.3299 54.2901 37.0199 54.2701 41.3899 54.0801C44.2699 53.9601 48.4999 54.0501 49.8199 50.9201C50.9299 48.2801 50.9199 43.7501 50.9899 40.8501C51.0499 38.3501 51.2699 33.8001 50.4099 31.5201C49.1499 28.1801 44.1399 28.4601 41.1699 28.3801C37.9899 28.2901 34.7499 28.2601 31.5599 28.3401L31.5499 28.3501Z" fill="#FFDBDC"/>
<path d="M41.8798 22.1901C39.5598 22.5101 36.7498 22.4101 34.3998 22.3601C32.9698 22.3301 31.4898 22.3601 30.0698 22.1901C27.9798 21.9301 26.5498 20.6501 26.3998 18.4901C26.3098 17.2301 26.2598 14.0001 26.6898 12.9201C27.5798 10.6701 30.0098 10.5301 32.1098 10.4201C34.2098 10.3101 36.4398 10.3601 38.5898 10.4201C41.1198 10.5001 44.4498 10.2701 45.3698 13.2701C45.6898 14.3201 45.6398 17.2901 45.5598 18.4701C45.4198 20.6301 43.9598 21.8901 41.8898 22.1701L41.8798 22.1901Z" fill="#FEE84C"/>
<path d="M47.8398 56.8299C47.6098 58.2499 46.7698 59.2599 45.3598 59.5999C43.9498 59.9399 42.1698 59.9299 40.6998 59.9799C37.0098 60.0999 33.2598 60.0899 29.5798 59.7499C28.4498 59.6499 25.9498 59.4699 25.0798 58.7999C24.4798 58.3399 24.0898 57.3999 24.0398 56.6499C27.2298 57.4899 31.0898 57.5399 34.3898 57.6199C38.3898 57.7199 43.9898 57.8499 47.8298 56.8199L47.8398 56.8299Z" fill="#FFC1C8"/>
<path d="M41.8798 22.1899V24.8299C37.9498 24.7099 33.9898 24.7599 30.0698 24.8899V22.1899C31.4998 22.3599 32.9698 22.3299 34.3998 22.3599C36.7498 22.4099 39.5598 22.5099 41.8798 22.1899Z" fill="#FDD027"/>
<path d="M31.3899 34.24C31.3899 34.24 31.4699 34.24 31.4999 34.24C32.0199 34.27 32.4899 34.4 32.9899 34.53C33.9599 35.04 34.6299 35.56 35.3099 36.43C35.4399 36.59 35.8699 37.36 35.9199 37.4C35.9499 37.42 35.9999 37.41 36.0399 37.36C36.1199 37.26 36.2299 36.99 36.3199 36.85C37.5799 34.94 39.4199 33.74 41.7999 34.41C44.8399 35.27 45.4799 39.13 44.2299 41.65C42.9799 44.17 39.0799 47.18 36.8099 49.03C35.8499 49.82 35.7099 49.35 34.9799 48.75C32.3999 46.64 27.6699 43.3 27.2099 39.86C27.1499 39.39 27.1399 38.96 27.1499 38.48C27.1499 38.44 27.1499 38.4 27.1499 38.37C27.2599 38.29 27.1899 38.09 27.2099 37.97C27.6399 36.35 28.5399 34.86 30.2499 34.36C30.5599 34.27 31.0699 34.24 31.3999 34.25L31.3899 34.24Z" fill="#F74B58"/>
<path d="M50.3998 31.5301C49.1398 28.1901 44.1298 28.4701 41.1598 28.3901C37.9798 28.3001 34.7398 28.2701 31.5498 28.3501C29.3298 28.4001 24.5398 28.4401 22.8198 29.8301C20.7198 31.5101 20.9298 36.0301 20.8998 38.5201C20.8598 41.8501 20.8498 45.2901 21.3698 48.5901C22.0498 52.8901 23.9998 53.3301 27.9798 53.7901C32.3298 54.2901 37.0198 54.2701 41.3898 54.0801C44.2698 53.9601 48.4998 54.0501 49.8198 50.9201C50.9298 48.2801 50.9198 43.7501 50.9898 40.8501C51.0498 38.3501 51.2698 33.8001 50.4098 31.5201L50.3998 31.5301ZM44.2198 41.6501C42.9498 44.2101 39.0698 47.1801 36.7998 49.0301C35.8398 49.8201 35.6998 49.3501 34.9698 48.7501C32.3898 46.6401 27.6598 43.3001 27.1998 39.8601C27.1398 39.3901 27.1298 38.9601 27.1398 38.4801C27.1398 38.4401 27.1398 38.4001 27.1398 38.3701C27.1398 38.2401 27.1398 38.1801 27.1998 37.9701C27.6298 36.3501 28.5298 34.8601 30.2398 34.3601C30.5498 34.2701 31.0598 34.2401 31.3898 34.2501C31.4298 34.2501 31.4698 34.2501 31.4998 34.2501C32.0198 34.2801 32.4898 34.4101 32.9898 34.5401C33.9598 35.0501 34.6298 35.5701 35.3098 36.4401C35.4398 36.6001 35.8698 37.3701 35.9198 37.4101C35.9498 37.4301 35.9998 37.4201 36.0398 37.3701C36.1198 37.2701 36.2298 37.0001 36.3198 36.8601C37.5798 34.9501 39.4198 33.7501 41.7998 34.4201C44.8398 35.2801 45.4798 39.1401 44.2298 41.6601L44.2198 41.6501Z" fill="#FFB6BE"/>
<path d="M27.1399 38.3702C27.1599 38.1702 27.1399 38.1802 27.1999 37.9702C27.1899 38.1002 27.3399 38.2902 27.1399 38.3702Z" fill="#F74B58"/>
</svg>
