<svg width="72" height="72" viewBox="0 0 72 72" fill="none" xmlns="http://www.w3.org/2000/svg">
<path d="M44.3441 20.0907C44.5095 20.0659 44.6087 20.1238 44.6418 20.2561L44.9809 20.5539L45.2208 20.6449C45.6508 21.0667 46.114 21.5877 46.5027 22.0509C46.8915 22.5141 48.1486 24.0442 48.1404 24.5404C48.1404 24.59 48.1321 24.6314 48.1238 24.681C48.6035 25.8555 48.9674 27.0713 49.2156 28.3367C49.4389 29.3292 49.8855 30.2473 50.3404 31.1405C50.2411 31.1819 50.3321 31.3225 50.3569 31.3887C51.6224 34.7301 51.9284 39.6264 50.1667 42.8272C50.2494 43.0753 49.902 43.6129 49.6457 43.6378C49.4223 44.043 49.0502 44.4566 48.6532 44.6882C48.6532 44.7295 48.6366 44.7791 48.6201 44.8205C48.5208 45.0603 47.4704 45.7716 47.1396 45.7385C41.7553 48.5589 35.1469 48.8318 29.2498 47.8642C26.9919 47.492 24.4693 46.9957 22.6001 45.6807C22.4677 45.8047 22.0707 45.5566 22.1369 45.3912C21.2188 44.6385 20.2346 43.1498 19.8541 42.0084C18.8865 39.1136 19.6143 34.2586 20.5489 31.5045C20.9459 30.3383 21.1857 29.5112 21.467 28.3119C21.4835 28.2292 21.6572 27.8239 21.7233 27.6585C22.2031 25.7314 23.0136 23.7547 24.3369 22.2494V22.0592C24.5933 21.7201 25.3129 20.9343 25.6603 20.7276C25.743 20.6779 25.8091 20.6779 25.9084 20.6779C30.3167 17.3944 39.7786 17.0471 44.3441 20.099V20.0907Z" fill="#FEF2E1"/>
<path d="M55.551 41.4539C56.0555 41.9254 55.8653 42.7773 55.6419 43.3314C55.1788 44.4893 53.9547 45.4239 52.8133 45.854C52.5073 45.9698 52.1351 46.0029 51.8539 46.1683C52.7802 46.3502 55.3111 47.1691 55.5013 48.2195C55.6668 49.1292 55.0216 49.6668 54.2524 49.9646C51.9118 50.8661 49.2817 49.3443 47.5448 47.8555C47.5035 47.8225 47.4621 47.8225 47.4207 47.839C47.2305 47.8804 45.7004 49.4518 45.4027 49.7247C42.971 51.9082 40.159 53.9759 37.2973 55.5805C35.4363 56.6226 33.1949 58.0038 31.0528 57.0941C28.2159 55.8948 23.6752 50.6263 22.3188 47.8555C21.9218 47.045 21.6902 46.2345 22.1616 45.3908C24.2542 46.9375 26.9174 47.4337 29.44 47.8225C32.8393 48.3518 36.4123 48.5337 39.8199 47.9879C42.7725 47.5164 47.3463 46.3502 49.3396 44.0179C49.6042 43.7036 49.8937 43.1164 50.1336 42.893C50.3486 42.6945 50.9937 42.3306 51.275 42.1735C52.2674 41.6276 54.5585 40.5359 55.5427 41.4456L55.551 41.4539Z" fill="#F23A4D"/>
<path d="M57.2877 23.9611C58.702 24.9371 61.3239 26.8311 61.8698 28.4853C62.5066 30.4124 61.1171 33.3568 59.6036 34.5643C56.0057 37.4591 50.7538 32.8688 49.4801 29.4695C48.959 28.0965 48.868 26.5913 48.3304 25.21C47.7184 23.6303 46.2214 21.513 44.9063 20.4626C44.8567 20.4295 44.3273 20.1566 44.3439 20.1235C46.1717 19.4949 48.1567 19.7017 49.9846 20.2393C52.5899 21.0084 55.0629 22.4228 57.2877 23.9611Z" fill="#414141"/>
<path d="M19.085 33.2166C16.5459 35.3256 12.8074 35.1768 10.7976 32.4474C7.24945 27.6172 12.8157 22.6134 17.1083 21.0419C19.4655 20.1818 22.352 19.8344 24.8001 20.3554C24.9986 20.3968 25.7099 20.5622 25.8505 20.6449C25.9498 20.7028 25.8671 20.7359 25.8257 20.7938C25.6934 20.9427 25.4287 21.0833 25.2716 21.2239C22.5257 23.7217 22.0294 26.9804 20.9956 30.3218C20.582 31.6617 20.1602 32.3068 19.085 33.2083V33.2166Z" fill="#414141"/>
<path d="M35.6842 37.2522C35.5684 38.4267 35.5188 39.6838 36.0233 40.7756C36.2218 41.2139 37.0241 42.2395 36.8918 42.6696C36.8008 42.9756 36.3459 43.0583 36.0895 42.8516C35.8744 42.6779 35.0722 40.8997 34.9812 40.9658C34.7827 41.3794 34.3361 42.9674 33.8398 43.0004C33.6248 43.017 33.3518 42.8268 33.3022 42.6117C33.203 42.1651 33.8729 40.9658 34.0466 40.4696C34.1707 40.1305 34.3195 39.7004 34.3774 39.353C34.4849 38.6831 34.4188 37.947 34.5594 37.277C34.5263 37.1282 34.1128 37.2026 33.9639 37.1778C33.0789 37.0537 32.0947 36.7725 31.3999 36.1936C29.357 34.4898 30.8127 32.4965 32.806 31.7273C34.7992 30.9581 39.5963 30.9581 39.8031 33.9522C39.9685 36.4169 37.7437 37.2026 35.6759 37.2439L35.6842 37.2522Z" fill="#414141"/>
<path d="M22.4429 38.7248C25.2384 34.8954 30.5814 39.4278 27.5956 42.7444C24.6098 46.061 19.7631 42.397 22.4429 38.7248Z" fill="#414141"/>
<path d="M30.6144 20.4052C33.6498 20.0413 34.5347 24.7722 31.061 25.0369C27.9098 25.285 27.5955 20.7609 30.6144 20.4052Z" fill="#414141"/>
<path d="M48.1154 36.045C49.629 35.8383 50.3485 37.0541 50.15 38.427C49.8357 40.5774 45.6921 40.3872 46.18 37.7157C46.3289 36.8969 47.3214 36.1525 48.1154 36.045Z" fill="#414141"/>
<path d="M28.6871 30.8345C28.5796 30.942 28.3397 31.0909 28.1909 31.124C26.6938 31.4465 26.2886 29.5525 27.4134 28.8329C28.6871 28.0224 29.6962 29.8337 28.6954 30.8345H28.6871Z" fill="#414141"/>
<path d="M42.0611 28.6016C43.4258 28.5189 43.9468 30.9919 42.4498 31.1408C40.837 31.2979 40.655 28.6843 42.0611 28.6016Z" fill="#414141"/>
</svg>
