<svg width="72" height="72" viewBox="0 0 72 72" fill="none" xmlns="http://www.w3.org/2000/svg">
<path d="M50.8724 33.3786C50.8724 33.3786 50.8324 33.4486 50.8224 33.4886C50.6324 33.9186 50.4224 34.3386 50.2324 34.7786C50.2324 34.7986 50.2324 34.8186 50.2324 34.8286C49.9424 35.2886 49.7324 35.8186 49.5324 36.3286C49.4124 36.5786 49.2824 36.8286 49.1524 37.0786C48.9024 37.5886 48.6824 38.1186 48.4524 38.6386C48.4524 38.6486 48.4524 38.6786 48.4524 38.6886L47.4824 40.7286C47.4324 40.8286 47.3924 40.8586 47.3724 40.8886C47.3324 40.9686 47.3024 41.0786 47.2624 41.1586C47.2624 41.1686 47.2624 41.1986 47.2624 41.2086C47.1124 41.3986 46.9924 41.6686 46.8924 41.8886C46.7624 42.1786 46.6424 42.4786 46.5124 42.7686C46.5124 42.7786 46.5124 42.8086 46.5124 42.8186C46.5124 42.8186 46.4724 42.8386 46.4624 42.8686C46.4624 42.8786 46.4624 42.9086 46.4624 42.9186C46.3524 43.0086 46.3024 43.1586 46.3024 43.2986C45.8424 44.0586 45.4124 45.0286 45.0124 45.8786C44.9524 45.9986 44.9124 46.1386 44.8524 46.2586C44.8524 46.2686 44.8524 46.2986 44.8524 46.3086C44.7624 46.3486 44.7324 46.4286 44.7024 46.4986C43.9324 48.1286 43.1124 49.7286 42.3324 51.3486C42.3124 51.3886 42.2924 51.4186 42.2824 51.4586C42.2524 51.5286 42.1824 51.6086 42.1224 51.7286C42.1224 51.7386 42.1224 51.7686 42.1224 51.7786C42.1224 51.7786 42.0824 51.7886 42.0724 51.8286C42.0724 51.8486 42.0724 51.8686 42.0724 51.8786C41.9224 51.9786 41.8524 52.1986 41.8024 52.3586C41.3524 52.9086 40.8424 54.2186 40.4124 54.9186C39.7224 56.0486 39.0924 56.7786 37.8824 57.3286C37.7924 57.3686 37.6924 57.3986 37.5924 57.4086C37.5624 57.4186 37.5624 57.4386 37.5624 57.4586C36.5624 57.7286 35.6424 57.6386 34.6524 57.4386C31.5124 56.8186 30.2424 57.1986 27.1424 56.3986C24.7924 55.5986 20.5824 53.3886 18.2924 52.4286C17.7624 52.2086 17.2424 51.9586 16.7424 51.6786C16.5024 51.5386 16.2624 51.3986 16.0224 51.2586C15.4224 50.8886 14.8524 50.4986 14.4824 49.8686C14.0524 49.1386 13.9624 48.4886 14.0724 47.6586C14.1224 47.2886 14.1824 46.9286 14.2724 46.5686C14.4424 45.8586 14.6724 45.1686 14.9324 44.4886C15.1524 43.9186 15.3824 43.3586 15.6124 42.7986C16.9424 39.5686 18.3524 36.3686 19.8824 33.2186C22.6224 27.5586 25.2024 21.7386 28.0224 16.0786C29.0824 13.9486 29.9224 11.6086 32.8224 11.0786C33.6324 10.9286 34.4724 11.0086 35.2724 11.1886C36.9924 11.5786 38.7524 11.7986 40.4724 12.1886C42.3524 12.6186 44.2124 13.0986 46.0724 13.5786C48.7424 14.2686 52.2724 15.0286 54.7524 16.1586C54.8224 16.1886 54.8824 16.2386 54.9324 16.2886L55.6224 17.0786C56.8024 18.9586 56.2824 20.8586 55.5224 22.7586C54.5724 25.1286 53.4924 27.5086 52.4924 29.8486M33.4124 13.9086C32.0624 14.0886 31.4724 15.6286 30.9324 16.6886C27.4524 23.4586 24.2524 30.6186 21.0724 37.5486C19.7624 40.3986 18.2424 43.3986 17.2124 46.3586C16.8924 47.2686 16.5724 48.0186 17.2224 48.8786C17.7324 49.5486 20.2124 50.3686 21.1024 50.6886C24.9124 52.0686 29.0924 53.3086 33.0324 54.2686C34.1724 54.5486 36.1924 55.2086 37.1924 54.5386C37.8524 54.0986 38.7224 52.2586 39.1324 51.4886C42.9424 44.3586 46.3624 36.7386 49.6324 29.3486C50.8324 26.6386 52.2524 23.6986 53.2424 20.9386C53.8224 19.3186 53.4024 18.7286 51.8724 18.2286C49.8324 17.5586 47.5224 16.9986 45.4324 16.4586C42.7324 15.7586 39.9624 15.0686 37.2224 14.5286C36.3124 14.3486 34.2024 13.8186 33.3924 13.9286L33.4124 13.9086Z" fill="#889395"/>
<path d="M42.3423 51.3486C43.1223 49.7286 43.9423 48.1286 44.7123 46.4986C44.7523 46.4186 44.7823 46.3386 44.8623 46.3086C44.8423 46.3486 44.8623 46.4786 44.8023 46.5486L42.3423 51.3586V51.3486Z" fill="#FFFBF4"/>
<path d="M45.0223 45.8687L45.0723 45.9087C45.0723 46.0287 45.0023 46.2787 44.8623 46.2487C44.9223 46.1287 44.9623 45.9987 45.0223 45.8687Z" fill="#FFFBF4"/>
<path d="M47.4924 40.7187L48.4624 38.6787C48.1524 39.3687 47.8124 40.0387 47.4924 40.7187Z" fill="#FFFBF4"/>
<path d="M37.5923 57.4187C37.1723 57.4887 36.7623 57.6387 36.3323 57.6387C35.2023 57.6387 34.0723 57.3487 32.9823 57.0787C30.3823 56.4387 27.7923 55.7787 25.3223 54.9387C22.9723 54.1387 20.5823 53.3887 18.2923 52.4387C17.1523 51.9687 16.4623 51.5387 15.4423 50.9087L15.3823 50.8687C15.3823 50.8687 15.3123 50.8087 15.2823 50.7787C15.0823 50.6187 14.9923 50.5287 14.8523 50.3687C14.8223 50.3387 14.7923 50.3187 14.7423 50.2587C14.5723 50.0387 14.3023 49.5387 14.1923 49.2787C14.1123 49.0887 14.0923 48.4687 14.0223 48.2687C13.7023 53.4587 16.8723 54.6087 20.4223 55.9987C24.3723 57.5487 28.7623 58.9187 32.8823 59.9687C37.9723 61.2787 40.3023 61.3087 43.1323 56.5687C45.4623 52.6787 47.3623 47.8787 49.2223 43.6987C51.8123 37.8587 54.5823 31.8487 56.8623 25.8887C58.2723 22.2187 59.0523 18.1987 54.7423 16.1987L55.6123 17.1187C56.7923 18.9987 56.2823 20.8787 55.5223 22.7687C54.5723 25.1387 53.4923 27.5187 52.4923 29.8587L40.4223 54.9187C39.7323 56.0487 39.1023 56.7787 37.8923 57.3287" fill="#C5CED2"/>
<path d="M44.8022 46.5386L42.3422 51.3486C42.3422 51.3486 42.3022 51.4186 42.2922 51.4586" fill="#C5CED2"/>
<path d="M14.8524 50.3786C14.8524 50.3786 14.7924 50.3286 14.7424 50.2686L14.8524 50.3786Z" fill="#FFFBF4"/>
<path d="M35.2423 24.9988C38.3223 24.8388 41.3623 26.9088 42.1623 29.9088C43.8023 36.0188 37.4723 41.0588 31.9623 37.9088C25.9023 34.4488 28.3423 25.3588 35.2423 24.9888V24.9988ZM40.7023 28.9388C37.4423 23.3788 28.9923 26.2088 29.4623 32.5288C29.4923 32.9688 29.8123 34.4288 30.1323 34.7088C30.2923 34.8488 30.2523 34.7088 30.3223 34.6288C32.3723 32.4588 36.0323 32.6188 37.5823 35.2588C38.0123 35.9788 38.0123 36.4088 38.1123 37.1988C38.1123 37.2588 38.0923 37.3088 38.1923 37.2788C38.4023 37.2188 39.0323 36.7588 39.2323 36.5988C41.5723 34.7788 42.2023 31.4788 40.7023 28.9288V28.9388Z" fill="#FFFBF4"/>
<path d="M24.6123 41.0486C26.7723 40.7886 28.4223 42.8586 27.4623 44.8586C26.6223 46.6186 24.1323 47.0886 22.8523 45.5086C21.5723 43.9286 22.5623 41.2886 24.6123 41.0386V41.0486ZM25.9023 44.8886C26.0823 44.6686 25.8723 44.2186 25.6123 44.1586C25.3523 44.0986 25.0423 44.2386 24.9723 43.8286C24.9123 43.4686 25.3523 43.3986 25.4723 43.1386C25.8023 42.4686 24.9223 42.0186 24.3623 42.6186C23.6023 43.4386 24.1123 45.2186 25.3023 45.1686C25.4923 45.1686 25.7923 45.0286 25.9023 44.8786V44.8886Z" fill="#5BAA60"/>
<path d="M43.0723 23.3288C43.5423 23.8588 42.3723 24.8788 41.8723 24.9688C41.1123 25.0988 40.4223 24.7688 40.1923 24.0188C39.9723 24.0788 39.7923 24.2388 39.5623 24.2788C38.9823 24.3688 38.2623 24.0088 38.1023 23.4288C37.3823 23.8588 36.3423 23.7788 36.0123 22.9488C35.8423 22.9988 35.7123 23.1488 35.5123 23.2288C34.4523 23.6288 33.5623 22.6788 33.4523 21.6688C33.4123 21.2988 33.4923 20.7688 33.9823 20.8588C34.7423 21.0088 34.0523 22.4488 35.1223 22.3588C36.0023 22.2788 35.4923 20.6988 36.3823 20.9888C37.1123 21.2188 36.1623 22.6288 37.1523 22.7388C38.1423 22.8488 37.7423 21.5688 38.3323 21.4988C38.5523 21.4788 38.7023 21.5288 38.8123 21.7188C39.0523 22.0988 38.4323 23.2088 39.2523 23.3288C40.2523 23.4788 39.9923 21.7088 40.8623 22.0888C41.4023 22.3288 40.8423 23.1388 40.8923 23.4988C40.9623 23.9388 41.4323 24.1388 41.8223 23.9688C42.2323 23.7888 42.2823 23.0588 42.7723 23.1688C42.8223 23.1788 43.0323 23.2988 43.0623 23.3388L43.0723 23.3288Z" fill="#FFFBF4"/>
<path d="M51.9023 18.1884C49.8623 17.5184 47.5523 16.9584 45.4623 16.4184C42.7623 15.7184 39.9923 15.0284 37.2523 14.4884C36.3423 14.3084 34.2323 13.7784 33.4223 13.8884C32.0723 14.0684 31.4823 15.6084 30.9423 16.6684C27.4623 23.4384 24.2623 30.5984 21.0823 37.5284C19.7723 40.3784 18.2523 43.3784 17.2223 46.3384C16.9023 47.2484 16.5823 47.9984 17.2323 48.8584C17.7423 49.5284 20.2223 50.3484 21.1123 50.6684C24.9223 52.0484 29.1023 53.2884 33.0423 54.2484C34.1823 54.5284 36.2023 55.1884 37.2023 54.5184C37.8623 54.0784 38.7323 52.2384 39.1423 51.4684C42.9523 44.3384 46.3723 36.7184 49.6423 29.3284C50.8423 26.6184 52.2623 23.6784 53.2523 20.9184C53.8323 19.2984 53.4123 18.7084 51.8823 18.2084L51.9023 18.1884ZM27.4623 44.8684C26.6223 46.6284 24.1323 47.0984 22.8523 45.5184C21.5523 43.9084 22.5623 41.2984 24.6123 41.0484C26.7723 40.7884 28.4223 42.8584 27.4623 44.8584V44.8684ZM37.1323 46.7884C36.8023 48.3684 35.5823 49.4284 33.9423 49.2384C33.4423 49.1784 32.7623 48.7884 32.4023 48.4684C31.2123 47.3784 31.4723 45.4784 32.6223 44.4684C32.7123 44.3884 32.7223 44.4084 32.7823 44.3584C32.8023 44.3484 32.8223 44.3184 32.8323 44.3084C33.8623 43.6884 34.8223 43.6984 35.8923 44.1984C36.6523 44.5484 36.9823 45.4484 37.1023 46.2184C37.1523 46.5484 37.1923 46.4584 37.1223 46.7884H37.1323ZM31.9623 37.9084C25.9023 34.4484 28.3423 25.3584 35.2423 24.9884C38.3223 24.8284 41.3623 26.8984 42.1623 29.8984C43.8023 36.0084 37.4723 41.0484 31.9623 37.8984V37.9084ZM41.8723 24.9684C41.1123 25.0984 40.4223 24.7684 40.1923 24.0184C39.9723 24.0784 39.7923 24.2384 39.5623 24.2784C38.9823 24.3684 38.2623 24.0084 38.1023 23.4284C37.3823 23.8584 36.3423 23.7784 36.0123 22.9484C35.8423 22.9984 35.7123 23.1484 35.5123 23.2284C34.4523 23.6284 33.5623 22.6784 33.4523 21.6684C33.4123 21.2984 33.4923 20.7684 33.9823 20.8584C34.7423 21.0084 34.0523 22.4484 35.1223 22.3584C36.0023 22.2784 35.4923 20.6984 36.3823 20.9884C37.1123 21.2184 36.1623 22.6284 37.1523 22.7384C38.1123 22.8484 37.7423 21.5684 38.3323 21.4984C38.5523 21.4784 38.7023 21.5384 38.8123 21.7184C39.0523 22.0984 38.4323 23.2084 39.2523 23.3284C40.2523 23.4784 39.9923 21.7084 40.8623 22.0884C41.4023 22.3284 40.8423 23.1384 40.8923 23.4984C40.9623 23.9384 41.4323 24.1384 41.8223 23.9684C42.2323 23.7884 42.2823 23.0584 42.7723 23.1684C42.8223 23.1784 43.0323 23.2984 43.0623 23.3384C43.5323 23.8684 42.3623 24.8884 41.8623 24.9784L41.8723 24.9684Z" fill="#F8C6DC"/>
<path d="M37.2422 46.1386C37.1122 45.3686 36.6522 44.5586 35.9022 44.2086C34.8322 43.7086 33.8722 43.6986 32.8422 44.3186C32.8222 44.3286 32.8122 44.3586 32.7922 44.3686L32.6322 44.4786C31.4922 45.4986 31.2222 47.3886 32.4122 48.4786C32.7722 48.8086 33.4522 49.1886 33.9522 49.2486C35.5922 49.4386 36.9222 48.4186 37.2522 46.8386C37.2722 46.4886 37.2822 46.4886 37.2522 46.1386H37.2422ZM35.1722 47.5386C34.4922 47.5386 34.8522 46.6186 34.3522 46.5286C33.9122 46.4486 33.9022 47.2486 33.2922 47.0086C32.4422 46.6686 33.3222 45.6686 34.0122 45.5686C34.6722 45.4786 35.3922 45.8886 35.6122 46.5186C35.7522 46.9286 35.7522 47.5486 35.1822 47.5386H35.1722Z" fill="#F34440"/>
<path d="M32.7823 44.3687L32.6223 44.4787C32.7123 44.3987 32.7223 44.4187 32.7823 44.3687Z" fill="#FFFBF4"/>
<path d="M40.7022 28.9387C42.1922 31.4887 41.5722 34.7887 39.2322 36.6087C39.0322 36.7687 38.4022 37.2187 38.1922 37.2887C38.0922 37.3187 38.1222 37.2787 38.1122 37.2087C38.0122 36.4187 38.0122 35.9887 37.5822 35.2687C36.0322 32.6287 32.3722 32.4687 30.3222 34.6387C30.2522 34.7187 30.2922 34.8587 30.1322 34.7187C29.8122 34.4387 29.4922 32.9787 29.4622 32.5387C28.9922 26.2187 37.4422 23.3887 40.7022 28.9487V28.9387ZM35.5622 28.1087C32.3822 28.3487 32.6522 33.1987 35.9722 32.8687C38.9422 32.5787 38.6522 27.8687 35.5622 28.1087Z" fill="#F8C6DC"/>
<path d="M34.0123 45.5587C34.6723 45.4687 35.3923 45.8787 35.6123 46.5087C35.7523 46.9187 35.7523 47.5387 35.1823 47.5287C34.5023 47.5287 34.8623 46.6087 34.3623 46.5187C33.9223 46.4387 33.9123 47.2387 33.3023 46.9987C32.4523 46.6587 33.3323 45.6587 34.0223 45.5587H34.0123Z" fill="#FFFBF4"/>
<path d="M25.9022 44.8885C25.7822 45.0285 25.4822 45.1685 25.3022 45.1785C24.1122 45.2285 23.6022 43.4485 24.3622 42.6285C24.9222 42.0285 25.8022 42.4785 25.4722 43.1485C25.3522 43.4085 24.9122 43.4685 24.9722 43.8385C25.0422 44.2485 25.3522 44.1185 25.6122 44.1685C25.8722 44.2185 26.0822 44.6685 25.9022 44.8985V44.8885Z" fill="#FFFBF4"/>
<path d="M35.5623 28.1088C38.6623 27.8788 38.9423 32.5788 35.9723 32.8688C32.6423 33.1988 32.3823 28.3488 35.5623 28.1088Z" fill="#FFFBF4"/>
</svg>
