<svg width="72" height="72" viewBox="0 0 72 72" fill="none" xmlns="http://www.w3.org/2000/svg">
<path d="M21.2758 50.9984C20.1755 50.3845 18.4498 47.987 17.7896 46.8752C14.0138 40.5282 13.0178 30.3592 13.6201 23.1089C13.8054 20.9314 15.9249 19.9238 17.7317 19.2405C25.0399 16.4608 36.4946 16.4839 44.0924 18.1286C46.2814 18.6034 51.5164 19.9238 51.8755 22.5645C52.0724 24.0238 51.8755 26.1781 51.8176 27.6722C51.806 28.0081 51.8176 28.3555 51.8176 28.6914L53.856 27.2784C56.7168 25.3558 61.8244 24.2786 62.392 28.9925C62.6583 31.2163 62.6352 36.7872 61.7665 38.7677C59.786 43.2732 54.0761 39.7175 51.0879 38.3855C50.3467 41.7096 49.2348 45.0105 47.3122 47.8481C46.6867 48.7746 45.2274 50.6046 44.2429 51.091C44.046 51.1953 43.7912 51.2068 43.6754 51.2532C46.5825 44.1766 48.3198 36.8451 49.1305 29.2242C49.2 28.6103 49.1537 27.3131 49.3159 26.8035C49.4201 26.4561 50.8447 25.46 50.6015 24.7072C47.6828 26.7804 43.8144 27.5795 40.2935 28.0312C34.931 28.7261 28.7925 28.6335 23.4764 27.6953C20.5693 27.1857 17.4537 26.4213 15.0215 24.7072C14.7898 25.0199 15.867 26.4097 16.1449 26.6414C16.4345 33.5327 17.7664 40.2387 19.9902 46.7362C20.4187 47.9986 20.9631 49.7128 21.5306 50.8941C21.5885 51.0215 21.6696 51.091 21.7854 51.1721C21.658 51.1026 21.3684 51.0447 21.2989 51.0099L21.2758 50.9984ZM17.4537 24.3713C21.4263 26.2939 26.4877 26.653 30.8541 26.8151C36.3324 27.012 43.328 26.8151 48.2387 24.2902C48.4009 24.2091 48.6673 24.1744 48.9105 24.0354C50.4509 23.1204 51.0184 22.3329 49.1885 21.2673C45.0305 18.8698 35.568 18.3371 30.7615 18.5108C27.4027 18.6266 18.1602 19.5763 15.7048 21.7769C14.3729 22.9699 16.5156 23.9312 17.4537 24.3829V24.3713ZM58.0719 29.1199C56.5199 29.1778 53.7054 31.2626 52.5472 32.3166C52.4083 32.444 51.7133 33.0694 51.6902 33.1621C51.6438 33.2895 51.4933 34.6214 51.4933 34.7604C51.4933 34.8414 51.5164 34.8646 51.5628 34.9225C51.6323 35.0152 53.3348 35.9186 53.6012 36.0576C54.7478 36.6482 57.0874 37.8875 58.3498 37.6211C58.6857 37.5516 58.9405 37.2389 59.0448 36.9262C59.1606 36.5787 59.2069 35.7912 59.2301 35.3974C59.2996 34.0075 59.3227 32.0618 59.2301 30.6719C59.1722 29.8264 59.1143 29.062 58.0719 29.1083V29.1199Z" fill="#FECF1C"/>
<path d="M21.7621 51.1603C22.5613 51.5425 23.1172 51.7394 23.9627 51.9711C24.4955 52.1216 25.0514 52.2838 25.5958 52.3764C26.0822 52.4575 26.7308 52.5618 27.2288 52.6197C27.9122 52.7007 28.7229 52.7355 29.4294 52.7818C29.9969 52.8166 30.576 52.8513 31.1436 52.8629C32.0817 52.8861 33.0546 52.8745 33.9927 52.8629C34.5602 52.8629 35.1393 52.8861 35.7069 52.8629C36.5292 52.8281 37.4094 52.7123 38.2317 52.6197C38.7877 52.5618 39.3089 52.4691 39.8648 52.3764C40.4671 52.2722 41.0578 52.1332 41.66 51.9711C42.4244 51.7626 42.9688 51.5425 43.6985 51.2414C43.8143 51.1951 44.0691 51.1835 44.266 51.0793C44.3007 51.6931 43.6521 52.3764 43.2004 52.7471C39.471 55.7352 28.0511 55.492 23.8237 53.5694C22.6771 53.0366 21.6579 52.2722 21.2988 51.0098C21.3683 51.0445 21.6579 51.114 21.7853 51.1719L21.7621 51.1603Z" fill="#E9A512"/>
<path d="M21.7621 51.1607C21.6463 51.0796 21.5768 51.0102 21.5073 50.8828C20.9397 49.7014 20.3954 47.9872 19.9669 46.7248C17.7431 40.2157 16.4112 33.5213 16.1216 26.63C15.8552 26.3984 14.7665 25.0085 14.9982 24.6958C17.4304 26.4099 20.546 27.1628 23.453 27.684C28.7692 28.6221 34.9192 28.7148 40.2701 28.0198C43.7911 27.5681 47.6595 26.769 50.5781 24.6958C50.8214 25.4486 49.3968 26.4447 49.2925 26.7921C49.142 27.3018 49.1767 28.5989 49.1072 29.2128C48.2965 36.8338 46.5592 44.1652 43.6521 51.2418C42.9224 51.5545 42.3781 51.7746 41.6137 51.9715C44.2428 46.1341 45.9801 39.9377 46.9761 33.5908C47.2888 31.6103 47.5668 29.5834 47.729 27.5797C47.729 27.4523 47.7405 27.4407 47.6131 27.4639L43.6637 28.7263C43.2004 36.7295 42.0769 44.6864 39.83 52.3768C39.2857 52.4811 38.7529 52.5621 38.197 52.6201C38.7645 50.1994 39.4478 47.8135 39.9458 45.3697C41.0693 39.9841 41.6252 34.4942 42.019 29.0043C40.5018 29.1665 38.9845 29.5139 37.4557 29.4908C37.3399 30.9153 37.3746 32.3399 37.2936 33.7645C37.1777 35.9767 37.0503 38.2236 36.8766 40.4358C36.5639 44.5821 36.0311 48.7169 35.6605 52.8517C35.093 52.8749 34.5139 52.8517 33.9464 52.8517C34.9424 45.1265 35.5215 37.355 35.7416 29.5603C33.7726 29.6992 31.7689 29.6761 29.8 29.5603L29.8811 36.6948C30.1706 41.2349 30.2633 45.8214 30.7845 50.3731C30.8771 51.2071 31.0393 52.0294 31.1088 52.8633C30.5412 52.8517 29.9621 52.817 29.3946 52.7822L28.5028 41.4202C28.3522 37.4824 28.0627 33.5676 28.0048 29.6297C27.9932 29.5603 27.9469 29.5255 27.8774 29.5139C27.4488 29.3749 26.5339 29.3981 26.0243 29.3286C25.1324 29.2012 24.2522 28.9927 23.3604 28.9348C23.5689 36.9612 24.8545 44.9643 27.1825 52.6316C26.696 52.5737 26.0474 52.4695 25.5494 52.3884C23.1288 44.7095 22.0169 36.66 21.6347 28.6221C20.3143 28.321 19.0056 27.9619 17.7779 27.3944C17.7431 29.2707 17.9748 31.2628 18.2411 33.1275C18.7855 36.9843 19.7236 41.0149 20.8934 44.7211C21.681 47.1997 22.596 49.7477 23.9279 51.983C23.0824 51.7514 22.5265 51.5545 21.7273 51.1723L21.7621 51.1607Z" fill="#FCEAB0"/>
<path d="M48.2272 24.2902C43.3164 26.8151 36.3208 27.0004 30.8425 26.8151C26.4761 26.6645 21.4148 26.2939 17.4421 24.3713C20.1176 22.5876 23.6154 21.9043 26.7772 21.5337C31.5027 20.9662 36.9694 21.0356 41.6486 21.8696C43.8839 22.2749 46.4204 22.8656 48.2272 24.2902Z" fill="#A1581F"/>
<path d="M48.2274 24.2903C46.4206 22.8657 43.8841 22.275 41.6488 21.8697C36.9696 21.0358 31.5029 20.9663 26.7774 21.5338C23.6156 21.916 20.1178 22.5877 17.4423 24.3714C16.5042 23.9197 14.3615 22.9584 15.6935 21.7654C18.1488 19.5764 27.3913 18.6151 30.7501 18.4993C35.5566 18.3371 45.0191 18.8583 49.1771 21.2558C51.007 22.3214 50.4395 23.1089 48.8991 24.0239C48.6559 24.1745 48.3895 24.1976 48.2274 24.2787V24.2903Z" fill="#FCEAB0"/>
<path d="M31.1323 52.8748C31.0628 52.0409 30.9006 51.2186 30.808 50.3847C30.2868 45.8329 30.1941 41.258 29.9046 36.7063L29.8235 29.5718C31.7924 29.6876 33.7961 29.7108 35.7651 29.5718C35.545 37.3665 34.9659 45.138 33.9699 52.8632C33.0317 52.8748 32.0588 52.8864 31.1207 52.8632L31.1323 52.8748Z" fill="#FECE1C"/>
<path d="M29.4179 52.7935C28.723 52.7472 27.9123 52.7125 27.2173 52.6314C24.8893 44.9641 23.5922 36.9609 23.3953 28.9346C24.2871 29.0041 25.1673 29.2125 26.0591 29.3284C26.5687 29.3979 27.4837 29.3747 27.9123 29.5137C27.9817 29.5368 28.0165 29.5716 28.0397 29.6295C28.0976 33.5674 28.3871 37.4937 28.5377 41.42L29.4295 52.782L29.4179 52.7935Z" fill="#FECE1C"/>
<path d="M35.6953 52.8742C36.0659 48.7395 36.6103 44.6047 36.9114 40.4583C37.0736 38.2461 37.2126 35.9992 37.3284 33.7871C37.3979 32.3625 37.3747 30.9263 37.4905 29.5133C39.0194 29.5249 40.5366 29.189 42.0538 29.0269C41.6601 34.5167 41.1041 40.0066 39.9807 45.3923C39.4711 47.8245 38.7993 50.222 38.2318 52.6426C37.4095 52.7353 36.5292 52.8511 35.7069 52.8858L35.6953 52.8742Z" fill="#FECE1C"/>
<path d="M39.8417 52.3884C42.0886 44.6979 43.212 36.741 43.6753 28.7379L47.6248 27.4754C47.7522 27.4523 47.7522 27.4638 47.7406 27.5912C47.59 29.5949 47.3005 31.6218 46.9878 33.6023C45.9917 39.9377 44.2544 46.1456 41.6253 51.983C41.0346 52.1451 40.4439 52.2841 39.8301 52.3884H39.8417Z" fill="#FECE1C"/>
<path d="M23.9628 51.9832C22.6309 49.7478 21.7159 47.1998 20.9284 44.7212C19.7586 41.015 18.8088 36.9844 18.2761 33.1276C18.0097 31.2629 17.778 29.2708 17.8128 27.3945C19.0405 27.9621 20.3608 28.3211 21.6696 28.6222C22.0634 36.6717 23.1637 44.7097 25.5843 52.3885C25.04 52.2959 24.484 52.1337 23.9513 51.9832H23.9628Z" fill="#FECE1C"/>
</svg>
