<svg width="72" height="72" viewBox="0 0 72 72" fill="none" xmlns="http://www.w3.org/2000/svg">
<path d="M20.8962 27.5456C21.2661 30.0358 22.1955 32.5802 23.6211 34.6464C21.9338 36.5232 19.4887 38.2104 17.1789 39.2661C16.9172 39.3834 15.7984 39.8886 15.5999 39.9067C14.9864 39.9698 14.2555 38.7788 13.9758 38.3006C12.7126 36.1262 12.1171 33.1216 12.0179 30.6223C11.9547 29.1336 11.9637 27.0674 13.7322 26.6253C14.9593 26.3185 18.6315 26.7426 19.9579 27.0583C20.3729 27.1576 20.5985 27.2298 20.8962 27.5456Z" fill="#FED93E"/>
<path d="M14.7517 48.7852C15.6179 50.3822 17.3412 51.8168 18.9833 52.5747C19.227 52.692 20.7789 53.2875 20.8962 53.1612C20.9232 53.1341 20.833 52.8363 20.9593 52.7822C20.9413 52.9356 20.9774 53.098 20.9593 53.2604C20.8871 53.9461 20.7428 54.6319 20.7698 55.3176C19.9939 55.6605 19.2811 55.8229 18.4239 55.8229C18.46 55.6514 18.3337 55.6875 18.2254 55.6785C16.9803 55.498 14.9051 53.7116 14.3096 52.6559C14.0389 52.1777 14.084 51.51 14.1201 50.9416C14.3727 50.9957 14.4449 51.4108 14.5712 51.6002C15.4555 52.8815 17.5578 54.1627 19.0014 54.7131C19.5157 54.9116 20.0661 55.0108 20.5623 55.2454C20.7698 55.2815 20.7337 54.5868 20.7067 54.5597C20.6886 54.5416 20.2195 54.4875 20.0931 54.4514C17.8916 53.7567 16.0239 52.5657 14.6344 50.716C14.49 50.5265 14.481 50.2198 14.1833 50.2468C14.2645 49.7867 14.4179 49.2453 14.6254 48.8303C14.6524 48.7761 14.7517 48.7942 14.7517 48.7852Z" fill="#FD9749"/>
<path d="M38.1386 32.5625C36.2078 33.8889 34.2679 35.2242 32.3551 36.5686C30.8934 37.5972 29.3866 38.8243 27.8979 39.7807C27.537 40.0153 27.149 40.2228 26.77 39.8529C26.4272 39.5281 26.6437 39.0769 26.9324 38.8063C27.8437 37.9311 29.5129 36.8934 30.5866 36.1265C32.4543 34.7821 34.3491 33.4829 36.2439 32.1836C36.9025 32.2738 37.5161 32.4723 38.1477 32.5625H38.1386Z" fill="#6099C1"/>
<path d="M37.0559 50.2467C36.9206 50.2197 36.9206 50.3189 36.8664 50.4001C35.5762 52.4302 32.5175 54.334 30.2438 55.0649C30.1084 55.11 29.9731 55.1371 29.8287 55.128C29.8377 55.2002 29.8107 55.3265 29.8287 55.3807C29.7836 55.3807 29.7475 55.3807 29.7024 55.3807C29.7024 55.3626 29.7024 55.3355 29.7024 55.3175C29.9189 54.6769 29.9009 53.6212 29.955 52.9084L30.0182 53.2874C32.31 52.5656 34.8363 51.2392 36.3882 49.3625C36.5055 49.2182 36.5236 48.9926 36.7311 48.9204C36.9837 49.534 36.9837 49.5791 37.0469 50.2558L37.0559 50.2467Z" fill="#FE9548"/>
<path d="M36.6768 48.7218C36.3791 48.8391 36.2888 48.5864 36.2618 48.5954C36.1806 48.6225 35.3234 49.615 35.1159 49.7955C33.7444 51.0316 31.9218 52.0241 30.1714 52.5835C30.1083 52.6015 30.0632 52.5654 30.0722 52.6917L30.009 52.6557C30.0451 52.1233 30.0451 51.5459 30.0722 51.0045L30.1985 51.194L30.2346 50.9955C32.2015 50.0571 33.979 48.7849 35.5851 47.3232C36.1535 47.8105 36.3339 48.018 36.6588 48.7218H36.6768Z" fill="#FE9548"/>
<path d="M21.6539 46.7638C21.6088 46.8991 21.6178 47.0615 21.5908 47.2059C21.4284 48.2255 21.3652 49.2811 21.275 50.3097C21.2569 50.5443 21.1848 50.7699 21.2118 51.0045C21.2118 51.0045 21.1577 50.9323 21.1487 50.8511C21.1396 50.7699 21.1667 50.5172 21.1487 50.4992C21.1396 50.4902 20.9321 50.4992 20.8329 50.4721C19.7862 50.1022 17.2509 48.1713 16.6554 47.233C16.5832 47.1247 16.6193 46.9803 16.52 46.8901C16.9441 46.6465 17.1155 46.5653 17.5937 46.448L21.3291 48.9834C21.2389 48.83 21.4193 48.2435 21.3923 48.2255C21.3742 48.2074 21.0945 48.1804 20.9321 48.0901C20.2193 47.7022 19.4344 46.8721 18.7306 46.4209C18.6764 46.3848 18.4779 46.3307 18.4148 46.3217C18.6494 46.2134 19.0193 46.2405 19.2719 46.2585C20.1201 46.2946 20.8599 46.457 21.6449 46.7728L21.6539 46.7638Z" fill="#FD9749"/>
<path d="M15.9519 47.2693C16.0331 47.4588 16.2225 47.6843 16.3669 47.8377C17.6391 49.2543 19.1098 50.346 20.8331 51.1671L21.1489 51.1942C21.1399 51.4739 21.1128 51.6904 21.0858 51.9521C21.0677 52.1866 21.0497 52.4212 21.0226 52.6468C18.5594 52.0062 16.3128 50.4453 15.0676 48.2076C15.3834 47.7655 15.5188 47.6031 15.9519 47.2603V47.2693Z" fill="#FD9749"/>
<path d="M56.3915 24.9473L60.9931 29.3233C61.354 29.6842 61.3179 30.3519 60.7675 30.4963C60.3705 30.6046 60.0998 30.3519 59.8111 30.1173C58.7915 29.2782 57.8171 28.1684 56.8336 27.2662C56.6622 27.1128 56.4366 26.9594 56.2652 26.788C56.1388 26.3278 55.6606 25.8135 55.4441 25.3894C55.6606 25.2992 56.1659 24.8932 56.3915 24.9473Z" fill="#6099C1"/>
<path d="M37.1187 51.1943C37.0104 54.4515 33.4735 56.6531 30.46 55.6335C32.3547 54.8666 34.1232 53.8921 35.7202 52.6199L37.1097 51.1943H37.1187Z" fill="#FE9649"/>
<path d="M35.2872 47.0799C35.1338 47.0438 35.0797 47.1069 34.9714 47.1701C34.015 47.7295 33.1128 48.6679 32.1383 49.2814C31.4977 49.6965 30.7398 49.9491 30.1533 50.4363C30.1714 49.913 30.1533 49.3807 30.1533 48.8483C30.3608 48.8303 30.5774 48.6408 30.7398 48.5235C31.5879 47.9009 32.3909 47.1701 33.3834 46.7551L33.2571 46.6287C33.4466 46.6107 33.7173 46.4483 33.8887 46.4393C34.385 46.4032 34.9083 46.8092 35.2872 47.0709V47.0799Z" fill="#FE9548"/>
<path d="M37.0556 50.2469C37.0917 50.5807 37.1278 50.8514 37.1187 51.1943L35.7292 52.6199C34.1232 53.8921 32.3638 54.8665 30.469 55.6334C30.4239 55.6334 30.3878 55.6334 30.3427 55.6334V55.5522C30.1893 55.5161 30.2254 55.3267 30.2164 55.3176C30.2073 55.2996 29.9367 55.3718 29.8374 55.3808C29.8194 55.3267 29.8464 55.2004 29.8374 55.1282C29.9818 55.1372 30.1081 55.1101 30.2525 55.065C32.5262 54.3252 35.5849 52.4304 36.8751 50.4003C36.9293 50.3191 36.9292 50.2108 37.0646 50.2469H37.0556Z" fill="#FE8036"/>
<path d="M14.1833 50.247C14.49 50.2109 14.4991 50.5267 14.6344 50.7162C16.0149 52.5658 17.8916 53.7658 20.0931 54.4516C20.2195 54.4877 20.6886 54.5418 20.7067 54.5598C20.7338 54.5869 20.7698 55.2726 20.5623 55.2456C20.0661 55.011 19.5157 54.9117 19.0014 54.7132C17.5578 54.1538 15.4555 52.8726 14.5713 51.6004C14.4449 51.4109 14.3728 50.9959 14.1201 50.9417C14.1382 50.7071 14.1382 50.4816 14.1833 50.247Z" fill="#FE8036"/>
<path d="M30.0273 52.6559L30.0904 52.6919C30.0724 52.5747 30.1175 52.6107 30.1897 52.5837C31.9401 52.0333 33.7627 51.0408 35.1341 49.7957C35.3326 49.6152 36.4154 48.3701 36.4966 48.334C36.5146 48.334 36.4966 48.4332 36.686 48.7129C36.7221 48.7941 36.7311 48.8483 36.7492 48.9024C36.6229 49.119 36.5236 49.2002 36.4063 49.3445C34.8454 51.2213 32.3281 52.5476 30.0363 53.2694L29.9731 52.8905C29.9822 52.7732 30.0363 52.6649 30.0363 52.6378L30.0273 52.6559Z" fill="#FE8036"/>
<path d="M21.0225 52.656C21.0225 52.7191 20.9593 52.7642 20.9593 52.7823C20.833 52.8364 20.9232 53.1342 20.8962 53.1612C20.7698 53.2876 19.227 52.683 18.9834 52.5748C17.3322 51.8169 15.6179 50.3822 14.7517 48.7852C14.86 48.6138 14.887 48.4694 15.0675 48.2168C16.3217 50.4544 18.5593 52.0154 21.0225 52.656Z" fill="#FE8036"/>
<path d="M16.5201 46.8906C16.6193 46.9809 16.5832 47.1252 16.6554 47.2335C17.2509 48.1718 19.7863 50.1027 20.8329 50.4726C20.9322 50.5087 21.1397 50.4907 21.1487 50.4997C21.1668 50.5177 21.1397 50.7704 21.1487 50.8516C21.1578 50.9328 21.2119 50.996 21.2119 51.005C21.2119 51.1584 21.1487 51.1854 21.1487 51.1945L20.8329 51.1674C19.1006 50.3463 17.6389 49.2546 16.3667 47.838C16.2314 47.6846 16.0329 47.4591 15.9517 47.2696C16.1772 47.0891 16.2675 47.035 16.5201 46.8906Z" fill="#FE8036"/>
<path d="M35.2874 47.0801C35.4498 47.1884 35.4679 47.2155 35.6032 47.3328C33.9972 48.7944 32.2197 50.0666 30.2527 51.005L30.2166 51.2035L30.0903 51.014C30.0994 50.8155 30.1445 50.59 30.1535 50.4456C30.74 49.9674 31.4889 49.7057 32.1385 49.2907C33.1039 48.6771 34.0152 47.7388 34.9716 47.1794C35.0799 47.1162 35.143 47.0531 35.2874 47.0892V47.0801Z" fill="#FE8036"/>
<path d="M18.4238 46.313C18.487 46.313 18.6765 46.3672 18.7396 46.4123C19.4434 46.8634 20.2374 47.6935 20.9412 48.0815C21.1036 48.1717 21.3833 48.2078 21.4013 48.2168C21.4284 48.2439 21.248 48.8213 21.3382 48.9747L17.6028 46.4393C17.9276 46.3581 18.0449 46.2769 18.4238 46.313Z" fill="#FE8036"/>
<path d="M33.889 46.4389C33.7085 46.4479 33.8438 46.5562 33.6544 46.5742L33.3747 46.7547C32.3912 47.1607 31.5882 47.9006 30.731 48.5231C30.5596 48.6404 30.3521 48.8389 30.1445 48.848C30.1445 48.6134 30.1445 48.3788 30.1445 48.1532L32.5716 46.5562C32.725 46.3848 32.9506 46.2675 33.1852 46.2494C33.3927 46.2314 33.7265 46.2855 33.8799 46.4389H33.889Z" fill="#FE8036"/>
<path d="M33.194 46.2498C32.9594 46.2679 32.7338 46.3852 32.5804 46.5566L30.1533 48.1536C30.1533 47.7656 30.1894 47.3235 30.1533 46.9446C31.0646 46.4483 32.1473 46.0694 33.194 46.2498Z" fill="#FD9749"/>
<path d="M14.3096 52.6562C14.9051 53.7029 16.9804 55.4984 18.2255 55.6789C18.3428 55.6969 18.4691 55.6608 18.424 55.8232C16.4661 55.8322 14.9412 54.7946 14.3006 52.945C14.2736 52.8638 14.1833 52.7104 14.3006 52.6562H14.3096Z" fill="#FE8036"/>
<path d="M29.8376 55.3807C29.9369 55.3807 30.2076 55.2995 30.2166 55.3176C30.2256 55.3266 30.1895 55.5161 30.3429 55.5521V55.6334C30.2437 55.6243 29.8647 55.4619 29.8376 55.3807Z" fill="#FE9649"/>
<path d="M40.2316 33.0044C40.1865 32.8781 40.1414 32.7518 40.1053 32.6255C39.7534 32.6345 39.3744 32.6345 39.0316 32.6255C39.0316 32.6706 39.0316 32.7157 39.0316 32.7518C39.0406 32.824 39.0767 32.8781 39.0947 32.9413C39.1399 33.1037 39.185 33.2029 39.2211 33.3202C39.9068 35.603 40.3128 38.2557 39.8978 40.6196C39.4105 43.3715 37.7955 43.7234 35.2601 43.5249C32.1743 43.2813 27.654 41.8828 25.3441 44.761C25.1637 44.9866 24.6133 45.934 24.6494 46.1866C25.0284 46.1866 25.4073 46.1866 25.7863 46.1866C25.8404 46.0874 25.8584 45.943 25.9487 45.8077C29.0344 41.3053 37.8406 47.6573 40.4391 42.5505C41.6482 40.1775 41.1248 35.4586 40.2406 32.9954L40.2316 33.0044Z" fill="#FE9548"/>
<path d="M54.2532 39.1307C53.9554 38.8781 53.9735 37.1547 54.8848 37.642C55.2637 37.8405 55.1374 38.8871 54.7855 39.1036C54.6321 39.1939 54.3975 39.257 54.2532 39.1307Z" fill="#FE7D33"/>
<path d="M45.2213 32.4453C45.898 32.2649 46.4213 33.1942 45.7626 33.6273C44.8423 34.2228 44.3641 32.6799 45.2213 32.4453Z" fill="#FE7D33"/>
<path d="M51.4921 42.0182C52.3673 41.9099 52.3944 43.2994 51.5372 43.3446C50.6801 43.3897 50.7973 42.1084 51.4921 42.0182Z" fill="#FE7D33"/>
<path d="M48.7672 35.6752C49.5432 35.4406 49.8409 36.5955 49.2274 36.9564C48.4153 37.4256 48.0995 35.8737 48.7672 35.6752Z" fill="#FE7D33"/>
<path d="M55.5522 45.7626C56.5176 45.546 56.5808 47.3686 55.3627 47.0077C54.8665 46.8633 55.056 45.8799 55.5522 45.7626Z" fill="#FE7D33"/>
<path d="M46.5475 47.161C46.5475 47.161 46.8633 47.5399 46.8724 47.567C47.0528 48.1625 46.5385 48.6227 46.0332 48.2798C45.3385 47.8106 46.0513 46.7459 46.5566 47.161H46.5475Z" fill="#FE7D33"/>
<path d="M51.2396 48.4151C51.9614 48.3068 51.9163 49.8497 51.0411 49.7324C50.3193 49.6422 50.6621 48.4963 51.2396 48.4151Z" fill="#FE7D33"/>
<path d="M45.3748 40.3129C45.456 40.2497 45.7808 40.2137 45.8891 40.2317C46.4665 40.3309 46.4846 41.2332 45.9703 41.4498C45.3658 41.7114 44.9597 40.6377 45.3748 40.3129Z" fill="#FE7D33"/>
<path d="M51.9974 32.0663C52.5477 31.94 53.1162 32.5896 52.7102 32.9686C52.6199 33.0588 52.241 33.2032 52.1147 33.1942C51.5913 33.1581 51.447 32.1927 51.9974 32.0663Z" fill="#FE7D33"/>
<path d="M49.3987 28.1954C50.2559 27.9428 50.4002 29.4044 49.5792 29.3232C48.9295 29.2601 48.8754 28.3488 49.3987 28.1954Z" fill="#FE7D33"/>
<path d="M53.5853 27.2479C53.6936 27.2118 53.9552 27.2209 54.0635 27.2479C54.6049 27.4013 54.1808 28.5833 53.5673 28.1231C53.3056 27.9246 53.2966 27.3291 53.5853 27.2479Z" fill="#FE7D33"/>
<path d="M44.2829 28.0869C44.2558 28.2854 44.4002 29.9907 44.2829 30.1531C44.0483 30.4779 43.5791 30.893 43.2723 31.1637C43.2272 31.299 42.9655 31.5336 42.8663 31.6058C42.7851 31.6599 42.6498 31.6599 42.6407 31.6689C42.6407 31.6689 42.7219 31.7862 42.6768 31.8584C42.6407 31.9126 42.5054 31.9486 42.4422 32.0118C42.3069 32.1471 42.361 32.1291 42.1896 32.2374C42.1264 32.2735 42.0633 32.3366 42.0001 32.3637C41.8467 33.0404 41.9189 33.7351 42.0001 34.4118C42.1535 35.5397 42.5505 36.6134 42.731 37.7322C43.1189 40.0691 42.8031 42.9202 42.6858 45.3203C42.5776 47.4496 41.7294 50.5174 44.5355 51.2031C45.7806 51.5099 47.8288 51.7896 49.1281 51.9339C51.6273 52.2136 52.9807 51.2933 55.1552 50.4362C56.6891 49.8316 59.3327 49.5068 59.044 47.2782C58.638 44.5894 57.2936 41.5578 57.3928 38.842C57.4199 37.9939 57.5733 37.1638 57.5192 36.3066C57.3928 34.3216 56.4815 32.4449 56.3282 30.4689C56.2379 29.296 56.5718 27.9155 56.256 26.7696C56.1297 26.3095 55.6515 25.7952 55.4349 25.3711C54.9748 25.5606 54.7131 25.5967 54.2349 25.5606C53.5853 25.5155 53.4589 25.741 52.9988 25.75C52.6559 25.75 52.2319 25.5245 51.8619 25.4884C51.3296 25.4433 50.5988 25.6508 49.9852 25.6779C49.5792 25.6959 49.4529 25.4343 49.2995 25.6237L47.3867 26.3004L46.0062 27.0403L44.2738 28.0508L44.2829 28.0869ZM47.3235 27.0403C47.3235 27.0403 47.3325 27.2298 47.3055 27.311C47.1701 27.7531 46.4934 28.114 46.0603 28.2313C45.5912 28.3576 44.7611 28.2584 44.6528 28.8178M45.2212 32.4449C45.8979 32.2644 46.4212 33.1938 45.7626 33.6269C44.8423 34.2224 44.3641 32.6795 45.2212 32.4449ZM45.3746 40.3127C45.4558 40.2495 45.7806 40.2134 45.8889 40.2315C46.4664 40.3307 46.4844 41.233 45.9701 41.4495C45.3656 41.7112 44.9596 40.6375 45.3746 40.3127ZM46.0242 48.2797C45.3295 47.8105 46.0423 46.7459 46.5476 47.1609C46.5656 47.179 46.8634 47.5399 46.8724 47.5669C47.0528 48.1624 46.5385 48.6226 46.0333 48.2797H46.0242ZM49.2183 36.9562C48.4062 37.4254 48.0904 35.8735 48.7581 35.675C49.5341 35.4404 49.8318 36.5953 49.2183 36.9562ZM49.5792 29.323C48.9296 29.2599 48.8754 28.3486 49.3987 28.1952C50.2559 27.9426 50.4003 29.4042 49.5792 29.323ZM51.0409 49.7414C50.319 49.6512 50.6619 48.5053 51.2394 48.4241C51.9612 48.3158 51.9161 49.8587 51.0409 49.7414ZM51.5371 43.3443C50.716 43.3804 50.7973 42.1082 51.492 42.018C52.3672 41.9097 52.3943 43.2992 51.5371 43.3443ZM52.7101 32.9682C52.6198 33.0584 52.2409 33.2028 52.1146 33.1938C51.5912 33.1577 51.4469 32.1923 51.9973 32.0659C52.5477 31.9396 53.1161 32.5893 52.7101 32.9682ZM53.5672 28.123C53.3056 27.9245 53.2965 27.329 53.5853 27.2478C53.6935 27.2117 53.9552 27.2207 54.0635 27.2478C54.6048 27.4012 54.1808 28.5832 53.5672 28.123ZM54.7853 39.1036C54.6319 39.1939 54.3973 39.257 54.2529 39.1307C53.9552 38.8781 53.9732 37.1547 54.8845 37.642C55.2635 37.8405 55.1372 38.8871 54.7853 39.1036ZM55.3537 46.9985C54.8575 46.8541 55.0469 45.8707 55.5432 45.7534C56.5086 45.5368 56.5718 47.3594 55.3537 46.9985Z" fill="#FE9548"/>
<path d="M44.5988 29.5127C44.5717 29.7112 44.4003 29.9819 44.283 30.1443L44.5988 29.5127Z" fill="#FDE7C6"/>
<path d="M44.4726 29.134L44.4094 29.0708C44.4094 29.0708 44.4545 29.1069 44.4726 29.134Z" fill="#FDE7C6"/>
<path d="M24.893 48.1536C24.893 48.1536 24.9381 48.1987 24.9561 48.2168C25.0644 48.325 25.4253 48.8032 25.4794 48.8393C25.5246 48.8664 25.5516 48.8483 25.5877 48.8574C25.6148 48.9386 25.5246 49.0829 25.6779 49.0468C25.8133 49.0107 26.0388 48.6859 26.1742 48.5867C26.7246 48.1716 27.2659 48.0273 27.9336 48.2889C27.9517 48.307 27.9787 48.334 27.9968 48.3521C28.3216 48.6769 28.3216 48.9476 28.4389 49.3626C28.4389 49.507 28.4569 49.6694 28.4389 49.8047C28.2765 50.0393 28.2494 50.3822 28.1231 50.6258C28.105 50.6619 27.9426 50.6799 27.9968 50.8153C28.5291 50.9326 28.881 51.2394 29.0073 51.7627C29.3141 53.0619 28.0238 53.5401 26.9772 53.1612L26.5983 54.1717C26.5983 54.1717 26.5531 54.2168 26.5351 54.2349C25.9667 54.7763 25.3441 55.0018 24.6313 54.5507C24.5501 54.4605 24.5411 54.4424 24.4418 54.3612L24.0629 53.6665C24.0629 53.6665 24.0629 53.6213 24.0629 53.6033C24.0629 53.495 24.0629 53.3868 24.0629 53.2875C22.2674 54.0544 21.338 52.2048 22.7907 50.9687C22.8899 50.8784 23.1426 50.8333 23.1696 50.707C23.1877 50.6168 22.9441 50.2559 22.908 50.1025C22.5651 48.704 23.3772 47.2964 24.893 48.1446V48.1536ZM23.9997 51.0048C23.9997 51.0048 23.9546 51.0499 23.9366 51.0679C23.3681 51.1942 22.2583 52.0153 22.7907 52.674C23.2147 53.1973 24.2884 52.4213 24.5591 52.6018C24.7125 52.701 24.6133 54.0093 25.1727 54.1086C25.5246 54.1717 25.6599 54.1086 25.9035 53.9191C25.9667 53.874 25.9847 53.8559 26.0298 53.7928C26.3637 53.3868 26.2915 53.1522 26.4719 52.7461C26.6614 52.304 26.9682 52.5296 27.3652 52.5928C27.3832 52.5928 27.4374 52.6559 27.5186 52.6559C27.9246 52.683 28.3757 52.6379 28.4389 52.1777C28.484 51.8349 28.4389 51.907 28.2584 51.7085C27.8795 51.3115 27.5456 51.4108 27.1847 51.0769C27.1847 50.7972 27.2298 50.8333 27.311 50.6348C28.1863 49.8047 27.8885 48.0092 26.5171 49.1732C26.1652 49.4709 25.9576 50.0484 25.4704 50.0032C25.4614 49.9762 25.4343 49.9491 25.4073 49.9401C25.2629 49.5972 25.1095 49.3085 24.8388 49.0559C24.7666 48.9927 24.7666 48.9386 24.6494 48.8664C24.496 48.731 24.3516 48.5777 24.1441 48.5506C24.099 48.5506 23.9997 48.5416 23.9546 48.5506C23.3952 48.6769 23.4042 49.516 23.5486 49.9401C23.6749 50.3281 24.0448 50.6078 24.0178 51.0228L23.9997 51.0048Z" fill="#D89F5B"/>
<path d="M44.6619 28.818C44.7702 28.2586 45.6003 28.3488 46.0694 28.2315C46.4935 28.1232 47.1792 27.7623 47.3146 27.3112C47.3416 27.23 47.3146 27.0495 47.3326 27.0405C47.3507 27.0315 47.5131 26.9142 47.5221 26.9142C48.2259 26.4721 48.8845 26.7518 49.5522 26.03C49.5793 26.0029 49.5883 25.7322 49.9943 25.7142C49.9672 25.6149 50.0575 25.5067 50.1026 25.3894C50.0575 25.5067 49.9763 25.6149 49.9943 25.7142C50.6079 25.6871 51.3297 25.4706 51.871 25.5247C52.241 25.5608 52.656 25.7864 53.0079 25.7864C53.4771 25.7773 53.6034 25.5518 54.244 25.5969C54.7222 25.633 54.9929 25.5969 55.444 25.4074C55.6606 25.3172 56.1658 24.9112 56.3914 24.9653L57.402 24.1713C60.3975 21.5637 58.0065 16.2674 54.2079 16.0238C53.7117 15.9877 53.2064 15.9967 52.7101 16.0238C52.1778 16.0599 51.6545 16.1231 51.1312 16.2223C50.6079 16.3216 50.0575 16.4569 49.5342 16.6103C49.0108 16.7637 48.4785 16.9622 47.9732 17.1877C47.468 17.4133 46.9807 17.6659 46.5025 17.9547C46.0243 18.2434 45.6003 18.5502 45.1942 18.902C44.7882 19.2539 44.4273 19.6239 44.0935 20.0299C43.8589 20.3276 43.6423 20.6434 43.4529 20.9682C43.2634 21.2931 43.119 21.672 42.9837 22.0329C42.9837 22.0871 42.9386 22.1592 42.9205 22.2134C42.9025 22.2675 42.8754 22.3216 42.8303 22.3668C42.8032 22.4029 42.7762 22.4299 42.7581 22.475C42.5055 22.3668 42.4874 22.3307 42.1175 22.3577L41.3055 22.4299C36.5595 22.7096 33.7535 24.054 29.3865 25.3803C29.1248 25.4615 28.8632 25.5337 28.5925 25.6149C28.3218 25.6961 28.0601 25.7683 27.7985 25.8405C27.5368 25.9127 27.2661 25.9849 27.0045 26.057C26.7428 26.1292 26.4721 26.1924 26.2015 26.2646C25.9308 26.3367 25.6691 26.3999 25.3984 26.4631C25.1278 26.5262 24.8661 26.5984 24.5954 26.6616C24.3247 26.7247 24.0631 26.7879 23.7924 26.8601C23.5217 26.9322 23.2601 26.9864 22.9894 27.0586C22.7187 27.1307 22.457 27.1849 22.1864 27.2571C21.9157 27.3292 21.654 27.3924 21.3833 27.4556C21.248 27.4917 21.1127 27.5187 20.9863 27.5548C20.9593 27.5548 20.9412 27.5548 20.9142 27.5729C20.8781 27.5819 20.8961 27.5999 20.8961 27.627C20.8961 27.645 20.8961 27.6541 20.8961 27.6721C20.9051 27.7353 20.9142 27.7894 20.9232 27.8526C20.9593 28.0962 21.0044 28.3398 21.0585 28.5744C21.1127 28.809 21.1668 29.0526 21.2209 29.2962C21.2751 29.5398 21.3472 29.7744 21.4194 30.018C21.4916 30.2616 21.5638 30.4962 21.645 30.7308C21.7262 30.9654 21.8074 31.2 21.8976 31.4346C21.9879 31.6692 22.0871 31.8947 22.1864 32.1203C22.2856 32.3459 22.3939 32.5714 22.5022 32.797C22.6104 33.0226 22.7277 33.2391 22.845 33.4557C22.9623 33.6722 23.0886 33.8797 23.2149 34.0872C23.3413 34.2948 23.4676 34.4933 23.6029 34.6827C27.8075 33.2572 31.6692 31.606 36.2167 32.2105C36.8753 32.3008 37.4889 32.4993 38.1204 32.5895C38.4453 32.6346 38.6799 32.6436 39.0047 32.6526C39.3566 32.6617 39.7355 32.6617 40.0784 32.6526C40.6558 32.6346 41.3145 32.6075 41.8739 32.4632C41.8829 32.4632 41.937 32.418 41.9822 32.4C42.0453 32.3729 42.1085 32.3098 42.1716 32.2737C42.334 32.1654 42.2799 32.1835 42.4243 32.0481C42.4874 31.985 42.6228 31.9489 42.6589 31.8947C42.704 31.8316 42.7671 31.7053 42.8483 31.6421C42.9566 31.5609 43.2183 31.3263 43.2544 31.2C43.5702 30.9293 44.0303 30.5143 44.2649 30.1894L44.5807 29.5579C44.5987 29.4045 44.5085 29.1969 44.5175 29.1789L44.6439 28.8631L44.6619 28.818ZM40.3581 25.5247C40.3581 25.5247 40.322 25.5247 40.2949 25.5247C40.322 25.5247 40.3491 25.5247 40.3581 25.5247Z" fill="#FFE9CF"/>
<mask id="mask0_1031_8577" style="mask-type:luminance" maskUnits="userSpaceOnUse" x="20" y="16" width="39" height="19">
<path d="M44.6619 28.818C44.7702 28.2586 45.6003 28.3488 46.0694 28.2315C46.4935 28.1232 47.1792 27.7623 47.3146 27.3112C47.3416 27.23 47.3146 27.0495 47.3326 27.0405C47.3507 27.0315 47.5131 26.9142 47.5221 26.9142C48.2259 26.4721 48.8845 26.7518 49.5522 26.03C49.5793 26.0029 49.5883 25.7322 49.9943 25.7142C49.9672 25.6149 50.0575 25.5067 50.1026 25.3894C50.0575 25.5067 49.9763 25.6149 49.9943 25.7142C50.6079 25.6871 51.3297 25.4706 51.871 25.5247C52.241 25.5608 52.656 25.7864 53.0079 25.7864C53.4771 25.7773 53.6034 25.5518 54.244 25.5969C54.7222 25.633 54.9929 25.5969 55.444 25.4074C55.6606 25.3172 56.1658 24.9112 56.3914 24.9653L57.402 24.1713C60.3975 21.5637 58.0065 16.2674 54.2079 16.0238C53.7117 15.9877 53.2064 15.9967 52.7101 16.0238C52.1778 16.0599 51.6545 16.1231 51.1312 16.2223C50.6079 16.3216 50.0575 16.4569 49.5342 16.6103C49.0108 16.7637 48.4785 16.9622 47.9732 17.1877C47.468 17.4133 46.9807 17.6659 46.5025 17.9547C46.0243 18.2434 45.6003 18.5502 45.1942 18.902C44.7882 19.2539 44.4273 19.6239 44.0935 20.0299C43.8589 20.3276 43.6423 20.6434 43.4529 20.9682C43.2634 21.2931 43.119 21.672 42.9837 22.0329C42.9837 22.0871 42.9386 22.1592 42.9205 22.2134C42.9025 22.2675 42.8754 22.3216 42.8303 22.3668C42.8032 22.4029 42.7762 22.4299 42.7581 22.475C42.5055 22.3668 42.4874 22.3307 42.1175 22.3577L41.3055 22.4299C36.5595 22.7096 33.7535 24.054 29.3865 25.3803C29.1248 25.4615 28.8632 25.5337 28.5925 25.6149C28.3218 25.6961 28.0601 25.7683 27.7985 25.8405C27.5368 25.9127 27.2661 25.9849 27.0045 26.057C26.7428 26.1292 26.4721 26.1924 26.2015 26.2646C25.9308 26.3367 25.6691 26.3999 25.3984 26.4631C25.1278 26.5262 24.8661 26.5984 24.5954 26.6616C24.3247 26.7247 24.0631 26.7879 23.7924 26.8601C23.5217 26.9322 23.2601 26.9864 22.9894 27.0586C22.7187 27.1307 22.457 27.1849 22.1864 27.2571C21.9157 27.3292 21.654 27.3924 21.3833 27.4556C21.248 27.4917 21.1127 27.5187 20.9863 27.5548C20.9593 27.5548 20.9412 27.5548 20.9142 27.5729C20.8781 27.5819 20.8961 27.5999 20.8961 27.627C20.8961 27.645 20.8961 27.6541 20.8961 27.6721C20.9051 27.7353 20.9142 27.7894 20.9232 27.8526C20.9593 28.0962 21.0044 28.3398 21.0585 28.5744C21.1127 28.809 21.1668 29.0526 21.2209 29.2962C21.2751 29.5398 21.3472 29.7744 21.4194 30.018C21.4916 30.2616 21.5638 30.4962 21.645 30.7308C21.7262 30.9654 21.8074 31.2 21.8976 31.4346C21.9879 31.6692 22.0871 31.8947 22.1864 32.1203C22.2856 32.3459 22.3939 32.5714 22.5022 32.797C22.6104 33.0226 22.7277 33.2391 22.845 33.4557C22.9623 33.6722 23.0886 33.8797 23.2149 34.0872C23.3413 34.2948 23.4676 34.4933 23.6029 34.6827C27.8075 33.2572 31.6692 31.606 36.2167 32.2105C36.8753 32.3008 37.4889 32.4993 38.1204 32.5895C38.4453 32.6346 38.6799 32.6436 39.0047 32.6526C39.3566 32.6617 39.7355 32.6617 40.0784 32.6526C40.6558 32.6346 41.3145 32.6075 41.8739 32.4632C41.8829 32.4632 41.937 32.418 41.9822 32.4C42.0453 32.3729 42.1085 32.3098 42.1716 32.2737C42.334 32.1654 42.2799 32.1835 42.4243 32.0481C42.4874 31.985 42.6228 31.9489 42.6589 31.8947C42.704 31.8316 42.7671 31.7053 42.8483 31.6421C42.9566 31.5609 43.2183 31.3263 43.2544 31.2C43.5702 30.9293 44.0303 30.5143 44.2649 30.1894L44.5807 29.5579C44.5987 29.4045 44.5085 29.1969 44.5175 29.1789L44.6439 28.8631L44.6619 28.818ZM40.3581 25.5247C40.3581 25.5247 40.322 25.5247 40.2949 25.5247C40.322 25.5247 40.3491 25.5247 40.3581 25.5247Z" fill="white"/>
</mask>
<g mask="url(#mask0_1031_8577)">
<path d="M44.9506 30.6766C43.9942 29.7744 42.7581 29.224 41.4498 29.1067C41.1069 29.0706 41.1069 29.621 41.4498 29.648C42.6137 29.7563 43.7145 30.2616 44.5626 31.0556C44.8152 31.2902 45.2032 30.9112 44.9416 30.6766H44.9506Z" fill="#FFAD69"/>
<path d="M46.9897 28.556C45.4829 27.365 43.6513 26.6703 41.7385 26.58C41.3866 26.562 41.3866 27.1033 41.7385 27.1214C43.4979 27.2026 45.2213 27.8342 46.6108 28.935C46.8815 29.1515 47.2694 28.7725 46.9897 28.556Z" fill="#FFAD69"/>
<path d="M49.7178 25.576V25.5769L49.7266 25.5593C49.7334 25.5435 49.7438 25.5175 49.7549 25.4832C49.7773 25.4142 49.8018 25.3129 49.8096 25.1902C49.8248 24.95 49.7761 24.6159 49.4873 24.2595C49.1934 23.8969 48.6328 23.4886 47.5821 23.1482C46.6631 22.8505 45.3828 22.6091 43.6084 22.492L42.8174 22.45L42.7578 22.4412C42.6222 22.4077 42.5242 22.2825 42.5303 22.1375C42.5373 21.972 42.6773 21.8434 42.8428 21.8504L43.6465 21.8933C45.4545 22.0126 46.787 22.2606 47.7666 22.5779C48.8854 22.9404 49.5624 23.3996 49.9531 23.8816C50.3489 24.3699 50.4317 24.8581 50.4082 25.2283C50.3967 25.4105 50.36 25.5616 50.3252 25.6687C50.3078 25.7222 50.2908 25.7655 50.2774 25.7967C50.2706 25.8122 50.2643 25.8253 50.2598 25.8347L50.251 25.8523V25.8533L50.2168 25.9041C50.1285 26.0121 49.9741 26.0467 49.8457 25.9793C49.6997 25.9025 49.6421 25.7223 49.7178 25.576Z" fill="#FFAD69"/>
<path d="M48.8302 26.9682C48.3069 25.8584 46.9896 25.1907 45.9069 24.7576C44.6708 24.2614 43.3264 24.0538 42 24.1441C41.6572 24.1621 41.6482 24.7035 42 24.6854C43.2091 24.6042 44.4181 24.7757 45.555 25.1997C46.5836 25.5787 47.8828 26.2012 48.3701 27.2389C48.5144 27.5547 48.9836 27.284 48.8392 26.9682H48.8302Z" fill="#FFAD69"/>
<path d="M54.641 18.7756C54.3883 19.9215 53.7748 20.9591 52.8996 21.7441C52.4665 22.1321 51.9703 22.4569 51.4379 22.6825C50.8244 22.9441 50.1477 23.0524 49.5792 23.4223C49.2905 23.6118 49.5612 24.081 49.8499 23.8915C50.4454 23.5126 51.1763 23.4043 51.8079 23.1065C52.3673 22.8449 52.8816 22.493 53.3327 22.0779C54.244 21.2388 54.8936 20.129 55.1553 18.92C55.2275 18.5771 54.7041 18.4328 54.632 18.7756H54.641Z" fill="#FFAD69"/>
<path d="M50.3641 20.4895C50.7701 20.661 51.2122 20.8414 51.5461 21.1211C51.6995 21.2475 51.8168 21.3828 51.916 21.5272C51.9701 21.6084 52.0062 21.6896 52.0333 21.7617C52.0513 21.8069 52.0604 21.852 52.0784 21.8971C52.0784 21.9242 52.0874 21.9512 52.0965 21.9783C52.1055 22.0324 52.0965 21.9602 52.0965 22.0234C52.1145 22.1678 52.2138 22.2941 52.3671 22.2941C52.5025 22.2941 52.6559 22.1678 52.6378 22.0234C52.5927 21.5362 52.3401 21.1031 51.9792 20.7783C51.5912 20.4354 51.122 20.2279 50.6438 20.0294C50.5085 19.9753 50.3551 19.9933 50.2739 20.1286C50.2107 20.2459 50.2378 20.4444 50.3731 20.4986L50.3641 20.4895Z" fill="#FFAD69"/>
<path d="M56.4906 20.6521C56.2921 21.7529 55.6334 22.7454 54.677 23.3319C54.3793 23.5123 54.65 23.9815 54.9477 23.801C56.0214 23.1424 56.7883 22.0326 57.0139 20.7965C57.041 20.6521 56.9778 20.5078 56.8244 20.4626C56.6891 20.4265 56.5176 20.5078 56.4906 20.6521Z" fill="#FFAD69"/>
</g>
<path d="M26.2827 50.4366C26.2827 50.4366 26.3188 50.4818 26.3458 50.4998C26.6255 51.0321 26.6797 51.7269 26.1112 52.0788C25.0646 52.7284 24.1714 51.4833 24.821 50.572C24.8661 50.5359 24.9383 50.4457 24.9473 50.4457C25.4075 50.175 25.8135 50.166 26.2827 50.4457V50.4366Z" fill="#D89F5B"/>
<path d="M30.1533 48.1533C30.1533 47.7654 30.1894 47.3233 30.1533 46.9443C30.1533 46.9263 30.1533 46.8992 30.1533 46.8811C30.1082 46.5563 29.8826 46.3037 29.5488 46.2495C28.421 46.0781 26.9503 46.1864 25.7863 46.1864C25.4074 46.1864 25.0284 46.1864 24.6495 46.1864C23.9728 46.1864 23.1878 46.1232 22.5382 46.1503C22.087 46.1683 21.8073 46.3127 21.672 46.7638C21.6269 46.9082 21.6359 47.0616 21.6088 47.206C21.4464 48.2255 21.3833 49.2812 21.293 50.3098C21.275 50.5444 21.2028 50.7699 21.2299 51.0045C21.2299 51.1579 21.1667 51.185 21.1667 51.194C21.1577 51.4737 21.1306 51.6902 21.1036 51.9519C21.0855 52.1865 21.0675 52.4211 21.0404 52.6466C21.0404 52.7098 20.9772 52.7549 20.9772 52.773C20.9592 52.9263 20.9953 53.0888 20.9772 53.2512C20.9051 53.9369 20.7607 54.6226 20.7878 55.3083H20.8509C20.8509 55.5159 21.2569 55.7775 21.4554 55.8136C22.4479 55.985 23.7201 55.8587 24.7487 55.8768C25.9848 55.9038 27.7984 56.1023 28.9894 55.9399C29.2962 55.8948 29.612 55.6602 29.7202 55.3715C29.7202 55.3535 29.7202 55.3264 29.7202 55.3083C29.9368 54.6677 29.9187 53.6121 29.9729 52.8993C29.9819 52.782 30.036 52.6737 30.036 52.6466C30.0721 52.1143 30.0721 51.5368 30.0992 50.9955C30.1082 50.797 30.1533 50.5714 30.1623 50.4271C30.1804 49.9037 30.1623 49.3714 30.1623 48.8391C30.1623 48.6045 30.1623 48.3699 30.1623 48.1443L30.1533 48.1533ZM26.9864 53.1609L26.6074 54.1715C26.6074 54.1715 26.5623 54.2166 26.5442 54.2346C25.9758 54.776 25.3532 55.0016 24.6405 54.5504C24.5592 54.4602 24.5502 54.4422 24.451 54.361L24.072 53.6662C24.072 53.6662 24.072 53.6211 24.072 53.603C24.072 53.4948 24.072 53.3865 24.072 53.2873C22.2765 54.0542 21.3472 52.2045 22.7998 50.9684C22.8991 50.8782 23.1517 50.8331 23.1788 50.7068C23.1968 50.6165 22.9532 50.2556 22.9171 50.1022C22.5743 48.7037 23.3863 47.2962 24.9021 48.1443C24.9202 48.1624 24.9472 48.1894 24.9653 48.2075C25.0735 48.3157 25.4345 48.794 25.4886 48.83C25.5337 48.8571 25.5608 48.8391 25.5969 48.8481C25.6239 48.9293 25.5337 49.0737 25.6871 49.0376C25.8224 49.0015 26.048 48.6767 26.1833 48.5774C26.7337 48.1624 27.2751 48.018 27.9428 48.2797C27.9608 48.2977 27.9879 48.3248 28.0059 48.3428C28.3307 48.6676 28.3307 48.9383 28.448 49.3534C28.448 49.4977 28.4661 49.6601 28.448 49.7955C28.2856 50.0301 28.2586 50.3729 28.1322 50.6165C28.1142 50.6526 27.9518 50.6707 28.0059 50.806C28.5383 50.9233 28.8901 51.2301 29.0165 51.7534C29.3232 53.0527 28.033 53.5309 26.9864 53.1519V53.1609Z" fill="#9B6A51"/>
<path d="M28.2496 51.7083C27.8706 51.3113 27.5368 51.4106 27.1759 51.0768C27.1759 50.797 27.221 50.8331 27.3022 50.6346C28.1774 49.8046 27.8796 48.009 26.5082 49.173C26.1563 49.4707 25.9488 50.0482 25.4615 50.0031C25.4525 49.976 25.4255 49.9489 25.3984 49.9399C25.254 49.597 25.1006 49.3083 24.83 49.0557C24.7578 48.9925 24.7578 48.9384 24.6405 48.8662C24.4871 48.7308 24.3427 48.5775 24.1352 48.5504C24.0901 48.5504 23.9908 48.5414 23.9457 48.5504C23.3863 48.6767 23.3953 49.5158 23.5397 49.9399C23.666 50.3279 24.036 50.6076 24.0089 51.0226C23.9999 51.0407 23.9638 51.0677 23.9457 51.0858C23.3773 51.2121 22.2675 52.0332 22.7998 52.6918C23.2239 53.2151 24.2976 52.4392 24.5683 52.6196C24.7217 52.7189 24.6224 54.0272 25.1818 54.1264C25.5337 54.1896 25.6691 54.1264 25.9127 53.9369C25.9758 53.8918 25.9939 53.8738 26.039 53.8106C26.3728 53.4046 26.3007 53.17 26.4811 52.764C26.6706 52.3219 26.9774 52.5475 27.3744 52.6106C27.3924 52.6106 27.4465 52.6738 27.5277 52.6738C27.9338 52.7008 28.3849 52.6557 28.4481 52.1956C28.4932 51.8527 28.4481 51.9249 28.2676 51.7264L28.2496 51.7083ZM26.1202 52.0783C25.0736 52.7279 24.1803 51.4828 24.83 50.5715C24.8751 50.5354 24.9472 50.4452 24.9563 50.4452C25.4164 50.1745 25.8225 50.1655 26.2916 50.4452C26.3097 50.4542 26.3277 50.4903 26.3548 50.5083C26.6345 51.0407 26.6886 51.7354 26.1202 52.0873V52.0783Z" fill="#9B6A51"/>
</svg>
