<svg width="72" height="72" viewBox="0 0 72 72" fill="none" xmlns="http://www.w3.org/2000/svg">
<path d="M55.6381 50.0101C54.9436 50.5309 54.4311 50.5805 53.563 50.6136H47.0982C47.0486 50.6136 46.999 50.6136 46.9494 50.6136C47.0238 50.4648 46.5939 50.4482 46.6435 50.6136C46.5608 50.6136 46.4782 50.6136 46.3872 50.6136L46.2136 50.5144C38.0623 50.5805 29.9027 50.4317 21.7514 50.5144C21.6687 50.5144 21.5282 50.4813 21.4703 50.564C21.4042 50.564 21.338 50.564 21.2719 50.564C21.2223 50.4813 21.1314 50.473 21.0487 50.4648C20.5692 50.4234 20.0649 50.4978 19.6102 50.5144C19.5606 50.5144 19.511 50.5144 19.4614 50.5144C19.4614 50.4896 19.4697 50.4234 19.4614 50.4152C19.4366 50.3986 18.9654 50.4152 18.8827 50.4152C18.8001 50.4152 18.8083 50.4648 18.8083 50.4648C18.7587 50.4648 18.7091 50.4648 18.6595 50.4648C18.6843 50.3077 18.5851 50.3656 18.4859 50.3656C17.9485 50.3408 17.3451 50.2746 16.8408 50.2168C16.8077 50.2168 16.7746 50.2168 16.7416 50.2168C16.7746 50.068 16.6672 50.1341 16.5845 50.101C16.4109 50.0349 16.1959 49.977 16.0389 49.9109C16.0223 49.9109 16.0058 49.9109 15.9893 49.9109V49.8613C20.0318 45.4136 24.1571 41.0321 28.4229 36.7993H28.5221C28.9851 37.2623 29.448 37.7252 29.911 38.1965C30.0185 38.3039 30.1838 38.3866 30.2913 38.5023C30.7377 38.957 31.1262 39.5853 31.5809 40.0731C32.4242 40.9659 33.4823 41.867 34.4744 42.5863C34.8712 42.8756 35.6235 43.4543 36.0369 43.6527C36.3262 43.785 36.4916 43.5618 36.7313 43.3964C38.9055 41.8918 41.4849 39.1389 42.4769 36.6836L55.6629 50.0266L55.6381 50.0101Z" fill="#FFCE75"/>
<path d="M27.34 22.2162C33.2344 22.2245 39.1867 22.2245 45.0811 22.2162C47.3546 22.2162 49.6115 22.2906 51.8766 22.4146C52.8935 22.4725 54.8032 22.4311 55.6877 22.7701L42.9565 34.5424C43.1962 30.7891 38.3269 30.0286 36.3594 32.7236L35.8551 33.3271C34.9126 31.7068 33.2427 30.5411 31.3082 31.2521C29.3737 31.9631 28.8364 34.0877 29.1588 35.8982L16.072 22.7618C17.8494 22.2658 19.9079 22.365 21.7598 22.3071C23.6116 22.2493 25.4717 22.1997 27.34 22.2079V22.2162Z" fill="#FFCE75"/>
<path d="M56.3407 49.0509L43.1548 35.8402L48.2556 31.0783C50.8101 28.6974 53.4721 26.4157 55.9853 24.0017C56.1258 23.8612 56.3821 23.6793 56.3903 23.4727C56.7128 24.4399 56.7789 26.548 56.845 27.6393C57.1592 32.6656 56.9277 37.7251 56.7458 42.7514C56.6797 44.628 56.7954 47.2652 56.3407 49.0427V49.0509Z" fill="#FFCE75"/>
<path d="M15.2618 49.0511C14.9972 48.183 14.9559 46.976 14.9063 46.0501C14.7988 43.8842 14.8815 41.7017 14.9063 39.5274C14.9559 35.3939 14.8815 31.219 15.0551 27.0938C15.1047 25.9447 15.1213 24.7542 15.3114 23.6299L27.6872 35.9809C23.4214 40.2219 19.2796 44.5786 15.2618 49.0511Z" fill="#FFCE75"/>
<path d="M16.0721 22.7783L29.1589 35.9146C29.1919 36.1213 29.3408 36.5346 29.4069 36.7496C29.6218 37.3696 29.9525 37.9235 30.2667 38.4939C30.1592 38.3865 29.9939 38.2955 29.8864 38.188C29.4234 37.7251 28.9605 37.2621 28.4975 36.7909H28.3983C24.1325 41.0319 20.0073 45.4052 15.9647 49.8529H15.9151C15.4438 49.6296 15.4025 49.5056 15.262 49.0427C19.288 44.5702 23.4215 40.2135 27.6873 35.9725L15.3116 23.6215C15.3694 23.2577 15.3364 22.9353 15.7745 22.7948C15.882 22.7617 15.9977 22.7783 16.0721 22.7617V22.7783Z" fill="#F7A05A"/>
<path d="M56.3987 23.481C56.3987 23.6877 56.1424 23.8778 55.9936 24.0101C53.4721 26.4241 50.8101 28.7058 48.2639 31.0867L43.1631 35.8485L56.3491 49.0593C56.2168 49.5801 56.0349 49.7206 55.6381 50.0183L42.4521 36.6752C42.6588 36.1627 42.9234 35.1045 42.9564 34.5506L55.6877 22.7783C56.0763 22.9271 56.2664 23.1007 56.3987 23.4893V23.481Z" fill="#F7A05A"/>
<path d="M21.4788 50.5724C21.5284 50.4897 21.6689 50.5228 21.7598 50.5228C29.9112 50.4401 38.0707 50.5889 46.2221 50.5228L46.3957 50.622C38.0873 50.622 29.7789 50.5889 21.4788 50.5724Z" fill="#FFCE75"/>
<path d="M45.0726 22.2161C39.1782 22.2244 33.226 22.2244 27.3315 22.2161C27.5713 22.2078 27.8193 22.2326 28.0673 22.2161C28.1334 22.2161 28.1996 22.1665 28.2161 22.1665H44.2873C44.2873 22.1665 44.3699 22.2161 44.4361 22.2161C44.6428 22.2244 44.8577 22.2078 45.0726 22.2161Z" fill="#FFCE75"/>
<path d="M53.5632 50.6216C51.4469 50.7043 49.223 50.6216 47.0984 50.6216H53.5632Z" fill="#FFCE75"/>
<path d="M16.8242 50.2163C17.3285 50.2741 17.932 50.3485 18.4694 50.3651C18.5686 50.3651 18.6678 50.3155 18.643 50.4643C18.0725 50.4808 17.3781 50.3485 16.8242 50.208V50.2163Z" fill="#FFCE75"/>
<path d="M21.272 50.5719C20.7181 50.5719 20.1477 50.605 19.6021 50.5223C20.0567 50.5058 20.5693 50.4231 21.0405 50.4727C21.1315 50.481 21.2141 50.4892 21.2637 50.5719H21.272Z" fill="#FFCE75"/>
<path d="M18.8003 50.4647C18.8003 50.4647 18.8003 50.4233 18.8747 50.4151C18.9574 50.4151 19.4369 50.3985 19.4534 50.4151C19.4617 50.4151 19.4534 50.4895 19.4534 50.5143C19.2632 50.5143 18.9574 50.5308 18.8003 50.4647Z" fill="#FFCE75"/>
<path d="M16.0224 49.9106C16.1878 49.9768 16.3944 50.0346 16.5681 50.1008C16.6507 50.1339 16.7582 50.0595 16.7251 50.2165C16.5019 50.2 16.1795 50.076 16.0142 49.9106H16.0224Z" fill="#FFCE75"/>
<path d="M46.6436 50.6218C46.5857 50.4565 47.0156 50.473 46.9494 50.6218C46.8502 50.6218 46.751 50.6218 46.6436 50.6218Z" fill="#FFCE75"/>
<path d="M15.9646 49.9104C15.9646 49.9104 15.9316 49.8691 15.915 49.8608H15.9646V49.9104Z" fill="#FFCE75"/>
<path d="M29.1588 35.9146C28.8364 34.1041 29.4482 31.9547 31.3082 31.2685C33.1683 30.5824 34.9127 31.715 35.8551 33.3436L36.3594 32.7401C38.327 30.045 43.188 30.8056 42.9565 34.5588C42.9235 35.1127 42.6589 36.1709 42.4522 36.6835C41.4602 39.1388 38.8809 41.8917 36.7066 43.3963C36.4752 43.5617 36.3015 43.7849 36.0122 43.6526C35.5988 43.4542 34.8465 42.8838 34.4497 42.5861C33.4577 41.8586 32.3995 40.9658 31.5563 40.073C31.1016 39.5852 30.713 38.9569 30.2666 38.5022C29.9525 37.9318 29.6135 37.3862 29.4068 36.7579C29.3324 36.5429 29.1919 36.1213 29.1588 35.9229V35.9146Z" fill="#E3513A"/>
</svg>
