<svg width="72" height="72" viewBox="0 0 72 72" fill="none" xmlns="http://www.w3.org/2000/svg">
<path d="M26.7474 38.9562C25.1202 36.7159 24.7858 33.7512 25.2205 31.0539C25.4545 29.605 26.0118 28.2118 26.8589 27.0192C26.8589 26.9078 25.1536 26.1387 24.8973 26.005C21.7876 24.3331 18.2879 21.647 16.7721 18.3702C14.2643 12.9645 18.221 9.37565 23.5263 11.7831C28.0069 13.8116 30.7599 18.9498 31.5512 23.6309C34.137 22.8062 36.9011 22.5944 39.5538 23.2074C39.8101 23.2631 40.6349 23.5752 40.791 23.5752C40.869 23.5752 40.8801 23.5529 40.9136 23.486C41.0362 23.2074 41.0807 22.5498 41.1699 22.2043C42.2622 17.9132 44.926 13.455 49.1502 11.6605C54.4109 9.43138 57.9998 13.1429 55.6481 18.3256C53.9094 22.1597 49.8747 24.8347 46.2523 26.6737C46.152 26.7294 45.6505 26.8966 45.617 26.9412C45.5501 27.0527 46.0183 27.6545 46.0963 27.7994C47.9242 31.1765 47.991 35.8466 45.6616 39.0119L45.5836 39.1011C43.1873 38.6887 40.3897 39.6695 38.4281 41.0405C37.0683 40.4609 35.3519 40.4497 33.9921 41.0405C31.9859 39.6138 29.2441 38.7667 26.7697 39.09L26.7474 38.9562Z" fill="#595959"/>
<path d="M26.0342 44.6297L26.168 44.6854C26.2906 44.9529 26.4132 45.2316 26.5692 45.4879C27.4386 46.9146 28.1965 46.9146 29.7457 46.5022L31.1835 46.0452C31.3953 46.0006 31.4399 46.1678 31.3395 46.335L30.682 47.4273C29.7457 49.2106 31.2838 49.0322 32.521 48.7648L32.6547 48.787C34.2486 52.1976 35.6864 46.6136 35.9873 45.4211C36.121 45.1758 36.3328 45.3096 36.3774 45.5437C36.6114 46.6359 36.9235 47.7505 37.4697 48.7536C38.3056 50.2806 39.0635 50.3028 39.7991 48.7536C40.1669 48.7647 40.5236 48.8093 40.8914 48.8985C42.2511 49.088 42.1062 48.2855 41.6381 47.3604L41.0028 46.257C40.9471 46.0786 41.0028 46.0006 41.2035 46.0341L42.5521 46.4687C44.5583 47.0149 45.3496 46.5802 46.1187 44.6409L46.2524 44.6074C46.9769 45.2093 47.4562 46.0564 47.824 46.9257C50.354 45.6105 53.3634 46.2012 54.5894 48.9319C56.3281 52.7883 53.6531 58.3166 49.7299 59.6875C47.1106 60.6014 44.2685 59.7544 42.3515 57.8373C42.3292 57.7704 42.2957 57.7036 42.2846 57.6367C42.2734 57.5698 42.2511 57.5029 42.2511 57.4472C42.24 56.5444 42.24 55.6305 42.24 54.7165C42.2957 53.68 42.2846 52.6434 42.24 51.6069C42.24 51.5066 42.1731 50.9047 42.084 50.9939C41.7496 51.3171 41.8833 57.0125 41.9279 57.8485C42.1174 57.8039 42.2511 57.8485 42.1731 58.0491C41.7161 58.8404 41.2926 59.3085 40.4678 59.6986C40.1781 59.8101 40.1669 59.6763 40.2449 59.4311C40.2449 59.2974 40.2449 57.6367 40.0666 57.7593C39.8548 57.893 39.8994 59.5092 39.9551 59.8547L39.6988 59.9884C39.0635 60.1222 38.8963 60.1222 38.261 59.9884L38.1161 59.8993C38.1161 59.2082 38.105 58.5172 38.0492 57.8373C37.8486 57.581 37.8152 59.3754 37.8932 59.4646C37.9266 59.7544 37.8486 59.877 37.6591 59.8212C37.0015 59.5426 36.6895 59.1191 36.3328 58.5506C36.2102 58.3834 36.1879 58.1828 36.2771 57.9376C36.2994 56.1097 36.2994 54.2707 36.2659 52.4317C36.2659 52.1084 36.2102 50.8601 36.0653 51.3951C36.0207 51.5512 35.9984 51.8298 35.9873 51.9858C35.887 54.0589 35.9204 56.21 36.0207 58.3166C35.965 58.4726 35.9204 58.6287 35.887 58.7624C35.5749 59.1971 35.2628 59.5092 34.7836 59.7544C34.6164 59.8101 34.5049 59.7989 34.4492 59.7544C34.4492 59.5537 34.5272 56.9457 34.204 58.0825C34.1482 58.6064 34.0591 59.4311 34.3154 59.8881L34.126 59.9884C33.4015 60.1556 33.1229 60.1222 32.4207 59.9327L32.3092 59.8658V57.9153C32.1866 57.6478 32.0974 57.7704 32.0529 58.2831C32.0529 58.7513 32.0417 59.2082 32.0083 59.6763L31.8745 59.7655C31.3618 59.5203 30.5371 58.8181 30.3364 58.272C30.2138 58.0937 30.0578 57.7927 30.3364 57.7259C30.4813 57.0683 30.5148 51.1053 30.1804 51.0496C30.1247 51.0496 30.0132 51.8298 30.0132 51.919C30.0132 53.9475 30.0132 55.9203 30.0132 57.8373C27.5277 60.2225 24.0726 60.8243 21.0855 58.9073C17.7976 56.8008 15.6353 50.771 18.5778 47.639C20.1605 45.956 22.5456 45.9338 24.5296 46.9146C24.9642 46.1009 25.3209 45.2093 26.0454 44.6074L26.0342 44.6297Z" fill="#595959"/>
<path d="M45.6504 39.0117C46.6981 39.5579 46.6869 41.787 46.5866 42.7901C46.542 43.2805 46.4083 44.1833 46.2522 44.6403C46.1965 44.8298 45.8844 45.4651 45.7618 45.6657C44.6361 47.6496 42.7525 46.6354 41.0695 46.1227C41.3258 46.7803 42.6633 48.3295 41.8051 48.9314C41.3816 49.2323 40.3562 48.8979 39.8546 48.8534C39.576 49.4329 39.1636 50.2911 38.3722 49.9568C37.4806 49.5778 36.745 47.4379 36.4998 46.5351C36.4441 46.3344 36.3103 45.4762 36.1877 45.4093C36.0762 45.3871 36.1097 45.4539 36.0762 45.5208C35.8533 46.0335 35.753 46.7691 35.5635 47.3264C35.0954 48.7308 33.7802 51.6398 32.5877 48.8756C31.9858 48.9202 30.7375 49.3438 30.3697 48.675C29.935 47.8948 31.0384 46.836 31.2948 46.1227C29.9127 46.4905 28.0291 47.5047 26.8588 46.1784C26.6247 45.922 26.1009 44.9412 26.0006 44.6291C25.5993 43.2917 25.343 39.9368 26.6805 39.0563C26.7362 39.0229 26.7139 38.9449 26.7139 38.9449C26.7139 38.9449 26.7919 38.9894 26.8476 38.9783C28.5529 38.5213 31.9189 39.5467 33.4013 40.4941C33.5127 40.5721 33.9028 40.9176 33.9586 40.9176C34.0254 40.9176 34.148 40.795 34.2372 40.7616C35.1066 40.4607 36.6893 40.4272 37.5809 40.6167C37.7704 40.6613 38.3165 40.9399 38.3611 40.9288C38.3945 40.9288 38.7846 40.5944 38.8961 40.5275C40.3227 39.6359 43.2429 38.6997 44.9036 38.878C45.0596 38.8891 45.4943 38.9449 45.6169 39.0117H45.6504Z" fill="#87C8E1"/>
<path d="M30.0021 57.8708C30.0021 57.8708 29.8795 57.9042 29.8906 57.8373V51.9413C29.9575 51.5958 29.9463 51.2168 30.1358 50.9159C30.381 50.8936 30.4256 51.8967 30.4367 52.0973C30.5148 53.758 30.6151 55.9314 30.4925 57.5587C30.459 57.9822 30.2361 57.8373 30.2138 57.9488C30.2138 57.9711 30.303 58.2609 30.3253 58.3055C30.1581 58.272 30.1581 57.9265 30.0912 57.8708C30.0578 57.8485 30.0132 57.8708 29.9909 57.8708H30.0021Z" fill="#2B2B2C"/>
<path d="M42.184 58.0824C42.106 57.8484 41.8608 58.1159 41.8051 57.9375C41.8274 57.4806 41.7605 57.0236 41.7605 56.5778C41.7605 55.2403 41.7382 53.7691 41.7939 52.4316C41.7939 52.1864 41.8831 51.005 42.0169 50.9269C42.0503 50.9046 42.2175 50.9158 42.2286 50.9269C42.2509 50.9492 42.3289 51.4173 42.3289 51.5065C42.4404 52.5876 42.3401 53.6799 42.3289 54.7499C42.3178 55.8199 42.3735 56.8341 42.3289 57.8707C42.2286 57.9153 42.2063 58.0044 42.1617 58.0936L42.184 58.0824Z" fill="#2B2C2C"/>
<path d="M36.3325 58.5838C36.1096 58.216 36.0538 58.5838 35.8867 58.8067C35.7752 58.7733 35.9201 58.673 35.909 58.5838C35.8755 56.5888 35.7195 54.5491 35.8198 52.5429C35.8198 52.3757 35.9312 51.2388 35.987 51.1943C36.0873 51.1274 36.2768 51.2277 36.2879 51.3503C36.3882 52.5094 36.3659 53.6909 36.3771 54.85C36.3771 55.8308 36.4217 56.9677 36.3771 57.9374C36.3771 58.1603 36.2545 58.3498 36.3213 58.5727L36.3325 58.5838Z" fill="#2C2C2C"/>
<path d="M39.6985 60.0218C39.9771 59.8657 39.8211 59.7097 39.8099 59.4979C39.7877 59.1301 39.8099 58.283 39.888 57.9264C39.966 57.592 40.2223 57.6254 40.2892 57.971C40.3895 58.4502 40.3226 58.9518 40.3561 59.4533C40.3672 59.6205 40.1778 59.7988 40.4675 59.7543C40.1332 59.9103 40.0774 59.9437 39.6985 60.0329V60.0218Z" fill="#2E2E2E"/>
<path d="M34.1369 60.0219L34.2483 59.9439C34.1703 59.877 34.1034 59.8324 34.0811 59.721C34.0365 59.4646 34.0588 58.1049 34.148 57.8597C34.1926 57.7371 34.3263 57.6479 34.4378 57.7593C34.7276 58.0714 34.4824 59.6987 34.5715 59.799C34.5938 59.8213 34.761 59.6987 34.7945 59.799C34.5492 59.9327 34.3932 59.955 34.1369 60.0219Z" fill="#2E2D2E"/>
<path d="M31.8743 59.7988C32.0192 59.1189 31.8074 58.4725 32.0526 57.8037C32.0749 57.7368 32.1195 57.5585 32.2086 57.5474C32.1641 57.7591 32.4316 57.748 32.4316 57.9598V59.966C32.2421 59.9102 32.0749 59.888 31.8854 59.7988H31.8743Z" fill="#2D2D2D"/>
<path d="M37.6589 59.8546C37.7592 59.7989 37.7704 59.7766 37.7704 59.6651C37.8038 59.1636 37.6701 58.662 37.7704 58.0825C37.7927 57.9487 37.893 57.7481 38.0602 57.7592C38.3723 57.7815 38.0936 59.7766 38.2608 60.0218C38.049 59.9772 37.8484 59.9438 37.6589 59.8546Z" fill="#2C2C2D"/>
<path d="M46.8875 15.8182C47.8571 14.7483 49.1612 13.7006 50.5767 13.2993C53.3074 12.5414 54.7117 14.5922 53.8424 17.1111C52.8838 19.9087 47.2776 24.0437 44.402 24.5453C42.9865 24.7905 43.2205 23.832 43.41 22.7843C43.8447 20.3657 45.2379 17.635 46.8875 15.8071V15.8182Z" fill="#EFBEC3"/>
<path d="M19.9485 19.1842C18.767 17.7687 17.3515 15.2163 19.146 13.6782C21.1076 11.9953 24.4513 14.5588 25.7888 16.0746C27.2935 17.7799 29.1659 21.5805 29.1213 23.8654C29.0991 24.7793 28.252 24.601 27.6278 24.4338C25.0978 23.7428 21.6315 21.1793 19.9596 19.1731L19.9485 19.1842Z" fill="#EEBEC3"/>
<path d="M38.1606 33.495C39.799 33.9074 41.2145 35.2783 40.7352 37.0951C39.6541 41.1521 31.2168 40.5168 31.5401 36.2257C31.6627 34.643 33.1004 33.7179 34.5159 33.4393C35.6862 33.1495 36.9903 33.183 38.1494 33.495H38.1606Z" fill="#EBC9AB"/>
<path d="M31.5287 31.6892C32.4426 31.6446 32.6767 32.8706 32.3869 33.5505C32.0637 34.3084 31.0271 34.4421 30.6593 33.6842C30.2915 32.9263 30.559 31.7449 31.5287 31.6892Z" fill="#292929"/>
<path d="M40.791 31.6894C42.1842 31.6002 42.1619 34.03 41.0027 34.1526C39.6541 34.3086 39.643 31.7563 40.791 31.6894Z" fill="#282829"/>
<path d="M34.5159 33.439L34.4937 33.3833C35.6751 33.1269 36.8231 33.1938 38.0045 33.4055C38.0268 33.4055 38.3055 33.439 38.1606 33.4947C37.0571 33.2161 35.6417 33.2272 34.5271 33.439H34.5159Z" fill="#24262F"/>
<path d="M20.8624 56.689C19.1683 54.9837 18.0425 51.6066 19.3689 49.4109C20.8513 46.9366 24.1615 48.1403 25.7219 49.8679C27.2823 51.5954 28.3523 55.2958 26.7919 57.224C25.2315 59.1522 22.4005 58.2271 20.8624 56.6779V56.689Z" fill="#EAC8AB"/>
<path d="M52.6834 48.9541C54.3106 50.7486 53.4301 54.1368 52.1484 55.909C50.8666 57.6812 47.9687 59.3641 45.9514 57.6477C43.7 55.7307 45.2492 51.1275 47.1328 49.4111C48.5706 48.0959 51.1787 47.3157 52.6834 48.9652V48.9541Z" fill="#EBC9AB"/>
<path d="M33.68 41.6756C33.8249 41.8539 33.7358 42.322 33.6912 42.5449C33.2231 42.5003 32.6546 42.4446 32.1754 42.4892C31.5289 42.5561 31.3729 42.9796 32.0305 43.1914C32.3203 43.2805 33.6355 43.314 33.6912 43.3697C33.7023 43.3808 33.6912 43.7598 33.68 43.8044C33.6577 43.849 32.9779 44.2279 32.8664 44.2836C31.841 44.8409 29.467 45.8217 28.319 45.7883C27.3827 45.766 26.9926 44.1833 26.87 43.4366C26.7474 42.6898 26.6248 40.7505 26.9481 40.0817C27.1041 39.7697 27.6614 39.8254 27.9735 39.8477C29.1326 39.9591 30.849 40.4272 31.9413 40.8508C32.22 40.9622 33.5351 41.5084 33.68 41.6756Z" fill="#D4E6EB"/>
<path d="M45.3048 39.9039C45.4386 40.0042 45.5835 40.7175 45.5946 40.907C45.6838 42.0773 45.5166 44.3956 44.7921 45.343C44.6584 45.5213 44.4689 45.7108 44.246 45.7331C43.1537 45.8668 41.0249 44.9975 40.0106 44.5071C39.8546 44.4291 38.7735 43.8606 38.7289 43.7937C38.662 43.6823 38.7289 43.4371 38.7066 43.2922C39.2416 43.2922 39.7989 43.3033 40.3116 43.1696C40.7463 43.0581 40.88 42.8798 40.5345 42.5231L38.6955 42.4674C38.7289 42.2445 38.6063 41.7875 38.7846 41.6426C39.0744 41.4197 39.8435 41.0631 40.2001 40.907C41.1698 40.4835 42.4738 40.1491 43.5215 39.9931C43.8002 39.9485 45.1377 39.7813 45.2937 39.8816L45.3048 39.9039Z" fill="#D3E6EC"/>
<path d="M41.0249 48.0512C40.88 48.1961 39.5759 47.806 39.4087 47.8395C39.2081 47.8841 38.9072 48.72 38.7289 48.9317C38.6731 48.9986 38.6397 49.0655 38.5394 49.0432C37.9152 47.8172 37.2911 46.5243 37.1685 45.1311C37.5474 45.0196 37.9932 44.897 38.1827 44.5181C38.4614 44.7521 38.8069 44.8859 39.0855 45.0976C39.6094 45.4989 40.2112 46.3682 40.5456 46.9478C40.6348 47.0927 41.1029 47.9621 41.0137 48.0512H41.0249Z" fill="#D3E6EB"/>
<path d="M35.1734 45.131C35.0397 45.9669 34.8168 46.7917 34.5047 47.5719C34.4155 47.7837 33.8582 49.0097 33.7134 49.0431C33.5127 49.0877 33.2898 47.962 33.0446 47.8951C32.9889 47.8728 32.465 47.9397 32.3424 47.9509C32.0081 47.9843 31.6737 48.118 31.317 48.0512C31.2947 47.9732 31.3393 47.9174 31.3728 47.8506C31.6403 47.2933 32.1864 46.3793 32.5431 45.8778C32.9554 45.2982 33.4793 44.975 34.0477 44.5737C34.4155 44.7855 34.761 45.0307 35.1734 45.131Z" fill="#D3E5EB"/>
<path d="M34.7502 43.9607C34.6164 43.8493 34.5941 42.0548 34.6276 41.7985C34.6276 41.7204 34.6387 41.6536 34.7056 41.5978C34.8951 41.4529 36.6338 41.4641 36.9682 41.4864C37.1242 41.4864 37.6815 41.5532 37.7372 41.6536C37.7818 41.7316 37.7818 43.2362 37.7706 43.448C37.7484 43.7712 37.7372 44.0387 37.3583 44.0833C36.8679 44.139 35.7644 44.1279 35.2629 44.0833C35.1737 44.0833 34.8059 44.0053 34.7502 43.9607Z" fill="#D3E6EB"/>
<path d="M35.8198 37.1734C35.9758 36.9839 35.8198 36.4378 35.8867 36.1814C35.8309 36.0142 34.9281 36.0254 34.8055 35.3344C34.5826 34.1529 35.987 34.1641 36.7895 34.3424C37.4693 34.4873 37.7703 34.9777 37.3467 35.5907C37.0792 35.9808 36.4551 36.07 36.4105 36.148C36.3882 36.1926 36.4439 37.1177 36.4885 37.1734C36.6446 37.374 37.2799 37.6861 37.4248 37.8867C37.5585 38.0762 37.447 38.2657 37.2576 38.3325C37.0124 38.4106 36.3882 37.7975 36.1319 37.7195C35.8421 37.8533 35.2625 38.444 34.9616 38.3214C34.2928 38.0427 35.6637 37.374 35.8086 37.1845L35.8198 37.1734Z" fill="#292828"/>
<path d="M21.7653 49.4442C22.4341 49.2436 22.9579 50.9935 22.2892 51.1941C21.5201 51.4281 21.2415 49.6114 21.7653 49.4442Z" fill="#AC7F49"/>
<path d="M20.0602 50.381C20.7178 50.1915 21.2973 52.2534 20.3277 52.1308C19.7258 52.0528 19.6032 50.5147 20.0602 50.381Z" fill="#A97E49"/>
<path d="M23.6379 49.6118C24.1506 49.6118 24.7525 51.1611 24.106 51.3282C23.8163 51.4063 23.4819 50.9382 23.415 50.6929C23.3481 50.4477 23.2924 49.6118 23.6379 49.6118Z" fill="#AB7F49"/>
<path d="M50.6437 51.0716C50.3985 51.3056 50.0642 51.3279 49.897 51.0047C49.6295 50.492 50.3205 48.9205 50.8221 49.6338C51.0561 49.9681 50.9335 50.7929 50.6437 51.0716Z" fill="#AC7E47"/>
<path d="M52.3044 50.3252C52.4048 50.3252 52.5385 50.4924 52.5831 50.5815C52.7837 51.0274 52.5608 52.2645 51.9255 52.1308C51.2122 51.9859 51.7137 50.3363 52.3044 50.3363V50.3252Z" fill="#AC7F49"/>
<path d="M48.37 49.7231C48.5149 49.5782 48.7044 49.4779 48.8716 49.6451C49.2505 50.0241 48.8716 51.395 48.214 51.3058C47.5564 51.2167 48.0691 50.0129 48.37 49.7231Z" fill="#AA7E48"/>
</svg>
