<svg width="72" height="72" viewBox="0 0 72 72" fill="none" xmlns="http://www.w3.org/2000/svg">
<path d="M55.51 40.4342C57.17 43.2442 56.11 47.0142 53.22 48.5142C54.04 51.6642 51.69 54.8942 48.5 55.2642C48 58.8042 43.81 61.0242 40.6 59.4342C38.45 62.5942 33.51 62.5942 31.34 59.4442C28.05 61.0442 23.93 58.8442 23.37 55.2642C20.09 54.8842 18.04 51.6942 18.72 48.5142C15.84 46.9942 14.85 43.3242 16.36 40.4642C14.37 38.4842 14.13 35.2442 15.66 32.9042C15.87 32.5842 16.16 32.3042 16.37 31.9842C14.88 29.2642 15.97 25.5742 18.79 24.2642C17.91 21.1242 20.15 17.9042 23.32 17.4142C24.01 13.8442 28.1 11.6642 31.43 13.2442C31.79 12.5842 32.55 12.0042 33.21 11.6642C35.79 10.3242 38.7 11.1042 40.6 13.1742C43.87 11.6642 47.86 13.9542 48.56 17.3942C51.75 17.8942 54.13 21.0642 53.18 24.2642C55.65 25.4842 56.84 28.3342 56.03 30.9742C55.91 31.3542 55.7 31.7042 55.58 32.0842C57.86 34.2042 57.93 38.2042 55.66 40.3542C55.62 40.3942 55.56 40.4042 55.51 40.4142V40.4342Z" fill="#F0C76E"/>
<path d="M41.5401 55.564L41.5901 55.394C41.4601 53.794 41.2401 52.074 40.6301 50.664C40.5901 50.704 40.5501 50.724 40.5001 50.704C40.0701 49.894 39.6301 49.084 39.1801 48.284C39.2301 47.704 39.4601 47.154 39.8701 46.644C40.0701 46.284 40.1301 45.804 39.7501 45.544L39.7801 45.404C38.9101 45.284 38.0001 45.254 37.0701 45.334L36.9401 45.284C37.0801 43.274 37.6201 41.164 38.2701 39.214C38.3101 39.104 39.7501 38.514 39.9701 38.504C40.0401 38.404 40.1201 38.324 40.2201 38.264C41.7801 37.624 43.3101 36.934 44.8301 36.224C44.9601 36.164 46.0901 35.614 46.0701 35.444C46.0401 35.254 45.5101 35.064 45.3401 35.044C42.9201 34.694 40.8101 36.194 39.0501 37.684C38.9701 37.714 38.8201 37.774 38.7701 37.754C38.7401 37.744 38.7401 37.654 38.7501 37.554C38.7701 37.174 39.5901 35.054 39.8301 34.814C39.8701 34.774 39.8701 34.684 39.9201 34.644C39.9901 34.334 40.1601 34.074 40.3201 33.784C40.2601 33.624 40.5401 33.294 40.7001 33.244L40.8301 33.364L40.8801 33.944C41.1701 36.174 43.1201 34.954 42.6101 33.234C42.6201 33.074 42.7101 33.004 42.8601 33.074C43.4501 33.464 44.4501 33.904 44.9401 33.154C45.4301 32.404 44.5801 31.724 43.8601 31.644C43.7401 31.564 43.7001 31.514 43.7701 31.394C43.8001 31.344 44.5801 30.764 44.6601 30.714H44.8301C45.7501 29.344 44.1001 28.584 43.0801 29.444C43.1501 29.664 42.6101 30.014 42.5301 29.684C42.5601 28.434 41.4001 26.974 40.6601 28.734L40.5301 28.814C40.7301 28.894 40.7201 29.594 40.5301 29.694L40.3701 29.744C39.3401 29.014 37.7701 29.004 38.5401 30.604L38.4701 30.724C38.6801 31.094 39.0301 31.364 39.5101 31.544L39.2501 31.754C39.2501 31.894 39.1601 32.024 38.9601 32.154C38.8401 32.344 38.7201 32.434 38.5901 32.414C38.0401 33.054 38.3001 34.064 39.2701 34.044L39.3301 34.104L39.3001 34.444C38.0501 37.684 36.8401 40.964 36.3301 44.414C36.2601 44.814 36.0001 44.794 35.9701 44.454C35.7501 42.834 35.5101 41.224 35.2301 39.594L35.2701 39.374C34.8601 37.684 34.4101 36.004 33.8801 34.354C33.5901 34.094 33.4301 33.734 33.4001 33.264C33.1401 33.214 32.9601 32.404 33.2601 32.494C35.5101 34.434 37.2301 33.104 34.4701 31.224L34.4901 31.084C34.4901 31.084 34.5101 30.974 34.5401 30.964C34.6301 30.944 35.5001 30.944 35.5801 30.964L35.6601 31.084L35.6901 30.954C36.0201 30.864 36.3501 30.764 36.6501 30.594C36.7601 30.534 36.9201 30.414 36.9901 30.304C37.5501 29.414 35.4201 29.094 34.9201 29.094C34.7401 28.944 34.8501 28.804 35.2501 28.694C37.8901 27.254 36.2201 26.114 34.2201 27.244C34.0201 27.294 33.9301 27.224 34.0101 27.034C35.7701 23.994 33.5501 23.694 32.4501 26.344H32.3001C32.3001 26.344 32.1901 26.344 32.1801 26.304C32.1601 26.214 32.1601 25.344 32.1801 25.264L32.3001 25.184L32.1801 25.164C31.7201 23.004 30.6901 24.074 30.5601 25.584L30.4301 25.664C30.6301 25.744 30.6201 26.444 30.4301 26.544H30.3001C30.0601 25.974 29.1501 24.204 28.3601 24.684C27.7601 25.054 28.5201 26.694 28.8201 27.114C28.8201 27.244 28.7401 27.264 28.6201 27.274C25.6601 25.774 25.2901 27.944 27.9701 28.874C28.0301 29.084 27.8601 29.184 27.4701 29.154C24.9501 29.554 25.1101 31.024 27.6601 30.954C28.4701 30.824 28.1801 31.204 27.6701 31.494C25.4701 33.644 28.0301 33.744 29.3001 32.464C29.5801 32.414 29.4401 32.824 29.3701 32.984C28.7001 35.364 30.5601 35.834 30.9701 33.394C30.9701 32.984 31.0701 32.834 31.2601 32.924C31.4401 33.624 31.9001 35.154 32.8501 34.884L32.9701 34.954C33.0201 34.994 33.0701 35.034 33.1201 35.084C33.1701 35.134 33.2001 35.184 33.2301 35.234C33.8101 36.434 34.1701 37.954 34.4501 39.254C34.5401 39.644 35.0501 42.114 34.8701 42.204C34.8401 42.224 34.7701 42.164 34.7001 42.094C32.8701 39.614 29.6801 36.584 26.3801 36.774C25.7001 36.814 25.9601 37.214 26.2601 37.564C28.6401 40.364 31.8601 42.304 35.1201 43.984C35.2701 44.074 35.4001 45.014 35.3701 45.204L35.2501 45.294C34.4501 45.294 33.6401 45.294 32.8401 45.284C31.6601 45.284 31.5201 46.084 32.1101 46.934C32.3101 46.934 32.5801 47.404 32.6601 47.594C32.9801 48.384 32.2701 49.404 31.7601 50.014H31.6201C31.4901 50.084 31.2801 50.574 31.1801 50.864C30.6201 52.424 30.4401 53.944 30.2901 55.574C26.8501 53.914 23.7501 50.374 22.1101 46.964C17.7401 37.884 19.9601 24.034 28.8401 18.404C37.7201 12.774 47.1301 18.974 50.4801 27.794C52.5901 33.334 52.6101 40.404 50.3401 45.894C48.7801 49.674 45.3001 53.864 41.5401 55.574V55.564Z" fill="#D4A044"/>
<path d="M32.9301 45.1943C31.6501 45.2243 31.4901 45.8943 32.1001 46.8443C32.3301 47.2843 32.7101 47.5743 32.6401 48.1443C32.5801 48.6043 31.8701 49.4743 31.6201 49.9343C30.6301 51.5743 30.4301 53.6143 30.3501 55.5043C34.2001 57.3343 37.6601 57.2843 41.5401 55.5643C41.6001 54.7143 41.4601 53.7943 41.3001 52.9443C41.1501 52.1543 40.9601 51.3343 40.6401 50.6043C40.5701 50.5943 40.3001 49.9143 40.2301 49.7743C40.0401 49.4243 39.3501 48.5043 39.3101 48.2043C39.1901 47.3243 40.5601 46.5143 40.0501 45.5943C39.9801 45.4743 39.8001 45.3743 39.8001 45.3343C39.7601 45.3143 39.7201 45.2943 39.6701 45.2843L32.9501 45.1943H32.9301Z" fill="#FBEDCF"/>
<path d="M46.61 17.9841C46.61 17.9841 46.4 18.0641 46.35 18.0541C46.09 18.0241 46.08 17.5341 45.98 17.3241C45.39 15.9641 43.99 15.0241 42.48 15.2141C42.21 15.2441 41.65 15.6241 41.55 15.2841C41.44 14.9241 41.94 14.8041 42.2 14.7541C43.91 14.3741 45.81 15.4341 46.45 17.0441C46.53 17.2441 46.72 17.8041 46.61 17.9841Z" fill="#E1A545"/>
<path d="M28.52 14.684C28.96 14.644 29.43 14.684 29.84 14.834C30.06 14.914 30.24 14.974 30.23 15.234C30.21 15.654 29.55 15.244 29.22 15.214C27.86 15.074 26.52 15.904 25.92 17.104C25.8 17.344 25.64 18.254 25.26 18.024C24.92 17.814 25.39 16.924 25.54 16.664C26.15 15.624 27.3 14.794 28.52 14.684Z" fill="#E1A646"/>
<path d="M54.1599 33.4944C54.6499 33.4544 55.3499 35.0944 55.4299 35.5244C55.6499 36.6444 55.2499 38.4744 54.2299 39.1344C53.9799 39.2944 53.6999 39.1344 53.7599 38.9044C53.7799 38.8444 54.3699 38.2644 54.4899 38.0544C55.1999 36.8644 55.1099 35.5344 54.3699 34.3944C54.2599 34.2144 53.5699 33.5344 54.1499 33.4844L54.1599 33.4944Z" fill="#E1A545"/>
<path d="M17.8701 33.5441C17.8701 33.5441 17.9501 33.8341 17.9301 33.9141C17.9001 34.0041 17.5701 34.3241 17.4901 34.4441C16.7001 35.6441 16.8301 37.2341 17.6701 38.3641C17.8201 38.5641 18.2201 38.7741 18.0901 39.0341C17.8901 39.4441 17.4301 38.8941 17.2701 38.7041C16.2801 37.5041 16.1501 35.7041 16.9201 34.3641C17.0401 34.1541 17.5701 33.3541 17.8701 33.5441Z" fill="#E0A445"/>
<path d="M25.3602 55.084C25.8002 54.934 25.7902 55.384 25.9202 55.664C26.4502 56.784 27.5602 57.564 28.8102 57.674C29.1402 57.704 29.8702 57.564 30.0602 57.634C30.2702 57.704 30.2402 57.964 30.0302 58.074C29.7802 58.214 28.9302 58.194 28.6102 58.164C27.2202 58.044 25.7402 56.994 25.3302 55.634C25.2902 55.494 25.1602 55.144 25.3502 55.084H25.3602Z" fill="#E2A746"/>
<path d="M38.6201 14.2941C38.4601 14.5541 37.7601 13.9541 37.5401 13.8541C36.5001 13.3641 35.1301 13.3841 34.1101 13.9341C33.8801 14.0541 33.4901 14.4541 33.2401 14.3441C32.6701 14.0641 34.0801 13.3241 34.3101 13.2341C35.5001 12.7841 36.9401 12.8941 38.0301 13.5341C38.2401 13.6541 38.8101 13.9841 38.6101 14.3041L38.6201 14.2941Z" fill="#E2A746"/>
<path d="M33.47 58.4744C33.68 58.4244 33.83 58.7044 33.98 58.7944C35.08 59.5144 36.37 59.6944 37.56 59.0544C37.81 58.9244 38.4 58.3244 38.63 58.4844C39.1 58.8144 37.69 59.5844 37.46 59.6744C36.31 60.1544 34.93 60.0444 33.89 59.3544C33.76 59.2644 33.35 58.9644 33.31 58.8344C33.27 58.6944 33.31 58.4944 33.46 58.4644L33.47 58.4744Z" fill="#E2A645"/>
<path d="M46.3599 55.0344C46.8899 54.9844 46.4099 55.9544 46.2899 56.1744C45.7399 57.2244 44.4299 58.0544 43.2499 58.1644C42.9799 58.1944 41.7099 58.2944 41.8599 57.8044C41.9599 57.4744 42.4799 57.6944 42.7799 57.6844C43.9799 57.6644 45.2999 56.9444 45.8699 55.8644C45.9899 55.6444 46.0899 55.0544 46.3599 55.0244V55.0344Z" fill="#E1A645"/>
<path d="M18.1001 41.4744C18.7201 41.2944 18.2101 42.2144 18.1601 42.3844C17.8301 43.5244 18.0701 44.8144 18.8701 45.7044C19.0601 45.9144 19.4901 46.1144 19.4401 46.3844C19.3101 47.0644 18.4401 46.0444 18.2701 45.8244C17.6401 44.9644 17.4101 43.9644 17.5201 42.9044C17.5501 42.6244 17.8301 41.5644 18.1001 41.4844V41.4744Z" fill="#E1A545"/>
<path d="M52.67 46.604C52.44 46.164 52.85 46.024 53.09 45.734C53.84 44.784 54.12 43.714 53.83 42.524C53.77 42.264 53.44 41.714 53.67 41.524C53.99 41.274 54.2 41.964 54.28 42.194C54.6 43.204 54.54 44.294 54.06 45.244C53.92 45.524 53.01 46.834 52.68 46.604H52.67Z" fill="#E1A545"/>
<path d="M52.77 26.2843C53.15 26.1643 53.91 27.2844 54.05 27.5844C54.32 28.1544 54.48 29.0043 54.42 29.6343C54.39 29.9543 54.12 30.9943 53.78 31.0543C53.15 31.1643 53.59 30.5844 53.68 30.3444C54.02 29.4044 53.95 28.4043 53.42 27.5543C53.27 27.3143 52.66 26.7543 52.63 26.6443C52.6 26.5343 52.63 26.3243 52.77 26.2843Z" fill="#E1A545"/>
<path d="M19.0701 26.2241C19.3101 26.1741 19.4401 26.3741 19.3801 26.5941C19.3401 26.7341 18.9701 26.9541 18.8401 27.0941C18.0601 27.9241 17.8501 29.0741 18.1501 30.1541C18.2301 30.4541 18.5501 30.8341 18.2601 30.9941C17.7701 31.2741 17.5301 29.9541 17.5101 29.6441C17.4501 28.8141 17.6101 27.9341 18.0701 27.2341C18.2101 27.0141 18.8501 26.2741 19.0701 26.2341V26.2241Z" fill="#E1A545"/>
<path d="M20.9499 49.1043C21.0499 49.2043 20.9499 49.9043 20.9699 50.1443C21.0699 51.0843 21.7199 52.0443 22.5199 52.5343C22.7499 52.6743 23.3499 52.8043 23.2599 53.1043C23.1099 53.6143 22.1099 52.9143 21.8799 52.7443C21.0399 52.1143 20.4199 50.8443 20.4199 49.7843C20.4199 49.5243 20.5999 48.7543 20.9499 49.1043Z" fill="#E1A645"/>
<path d="M51.05 49.1041C51.25 48.9041 51.43 49.1041 51.5 49.3141C51.92 50.5741 50.63 52.8241 49.37 53.2041C49.11 53.2841 48.61 53.2741 48.85 52.9241C48.96 52.7641 49.65 52.4641 49.88 52.2641C50.48 51.7441 50.95 50.8741 51.02 50.0741C51.04 49.8441 50.94 49.1941 51.04 49.0941L51.05 49.1041Z" fill="#E2A645"/>
<path d="M20.95 23.6641C20.61 24.0041 20.44 23.4241 20.42 23.1641C20.35 22.3541 20.69 21.3641 21.18 20.7241C21.42 20.4041 22.55 19.3041 22.96 19.5941C23.35 19.8641 22.35 20.3141 22.17 20.4541C21.31 21.1341 20.96 22.0441 20.95 23.1141C20.95 23.2841 21.09 23.5241 20.94 23.6741L20.95 23.6641Z" fill="#E1A646"/>
<path d="M49.08 19.5142C49.31 19.4742 50.15 20.0542 50.34 20.2342C51.21 21.0342 51.64 22.1642 51.52 23.3442C51.49 23.5942 51.44 23.8142 51.14 23.7242C50.84 23.6342 51.04 23.0942 51.04 22.8542C51.04 21.7742 50.36 20.7942 49.48 20.2342C49.36 20.1542 48.93 19.9942 48.88 19.9242C48.79 19.7842 48.93 19.5342 49.07 19.5142H49.08Z" fill="#E1A545"/>
<path d="M32.94 34.8742C32.19 35.3342 31.59 34.2342 31.34 33.6642L31.1 32.8142C31.15 33.5442 30.51 35.6542 29.48 34.9242C28.84 34.4742 29.11 33.0742 29.38 32.4542C27.85 33.9542 25.28 33.5642 27.56 31.3342L28.1 30.9442C27.45 31.1142 25.37 31.0142 25.5 30.0142C25.59 29.3242 27.32 28.8742 27.92 28.9542C27.72 28.7742 27.4 28.7342 27.15 28.6042C26.61 28.3242 25.53 27.4042 26.19 26.7742C26.71 26.2842 28.15 26.8042 28.7 27.1342C28.57 26.8342 28.38 26.5842 28.25 26.2842C27.38 24.2342 28.86 23.7442 29.88 25.4442L30.4 26.4642V25.5842C30.4 25.3342 30.6 24.5642 30.71 24.3242C31.06 23.5442 31.74 23.5442 32.06 24.3442C32.1 24.4442 32.27 25.0342 32.27 25.1042V26.2842L32.67 25.5642C33.44 23.9942 35.33 23.6642 34.57 26.0142C34.44 26.4242 34.2 26.7542 34.02 27.1342C34.55 26.7342 36.55 26.1442 36.68 27.1742C36.77 27.8542 35.43 28.7842 34.81 28.8942L35.79 29.0342C37.02 29.1742 37.87 30.1742 36.32 30.8042C36.23 30.8442 35.68 31.0142 35.63 31.0142H34.45C35.02 31.5042 36.28 32.2742 35.92 33.1742C35.71 33.7042 34.78 33.4542 34.38 33.2942C33.91 33.1142 33.5 32.8042 33.13 32.4642C33.22 32.7042 33.28 32.9542 33.37 33.1942C33.51 33.6542 33.56 34.1842 33.33 34.6242C33.25 34.7742 33.12 35.0242 32.95 34.8842L32.94 34.8742Z" fill="#E76C22"/>
<path d="M38.4499 30.6344C38.0899 30.0944 38.0199 29.1344 38.8399 29.0544C39.4699 28.9944 39.9899 29.2944 40.5099 29.6044V28.7244C40.5099 28.3944 40.9299 27.8144 41.2799 27.7444C42.2399 27.5444 42.6199 28.9444 42.6299 29.6644C42.7799 29.5944 42.9199 29.4444 43.0499 29.3644C44.0799 28.5144 45.7199 29.2544 44.7999 30.6344C44.4899 30.9644 44.1199 31.1444 43.7699 31.4244C44.0299 31.5144 44.3599 31.5744 44.5999 31.7144C45.5899 32.2944 45.1899 33.6944 43.9799 33.6044C43.4599 33.5644 43.1199 33.2644 42.6799 33.0644C42.8999 33.9144 42.6899 35.3844 41.5099 35.1644C40.7399 35.0244 40.7199 33.8444 40.6799 33.2444L40.6199 33.2144L40.2599 33.6544C40.2599 33.6544 40.1899 33.6244 40.1799 33.6344C39.9499 33.7944 39.5899 34.0344 39.3499 33.9644C39.2299 34.0844 38.9299 33.9944 38.7599 33.9244C38.1499 33.6744 38.1599 32.7544 38.5599 32.3244C38.6899 32.1044 39.0099 31.8044 39.2299 31.6544C39.3999 31.5644 39.4499 31.4644 39.3899 31.3644C39.0299 31.2244 38.5699 30.9844 38.4499 30.6244V30.6344Z" fill="#FEF3DD"/>
<path d="M45.83 35.014C45.62 34.904 45.3 34.824 45.07 34.804C42.69 34.584 40.51 36.174 38.81 37.644C39.09 36.604 39.52 35.604 39.96 34.614C40.16 34.154 40.33 33.564 40.69 33.224C40.69 33.184 40.71 33.104 40.66 33.104C40.32 33.464 39.87 33.894 39.36 33.954C39.23 33.994 39.21 34.034 39.31 34.064C39.31 34.064 39.31 34.064 39.31 34.074C37.9 37.434 36.68 40.914 36.16 44.544C36.08 44.504 36.06 44.234 36.05 44.144C35.82 42.454 35.62 40.954 35.26 39.284C34.89 37.554 34.49 35.924 33.87 34.264C33.73 33.894 33.53 33.534 33.39 33.174C33.39 33.674 33.46 34.564 32.97 34.864C34.02 37.124 34.45 39.614 34.84 42.064C33.82 40.584 32.59 39.234 31.11 38.204C29.9 37.354 27.97 36.424 26.46 36.554C25.25 36.664 26.06 37.434 26.52 37.944C28.87 40.574 31.96 42.384 35.06 43.994C35.2 44.144 35.27 45.274 35.27 45.244L36.96 45.274C36.96 44.854 37.08 44.234 37.16 43.814C37.44 42.244 37.84 40.694 38.32 39.164C38.39 39.034 39.72 38.554 39.98 38.434C41.76 37.654 43.95 36.804 45.62 35.874C46.07 35.624 46.54 35.384 45.85 35.014H45.83Z" fill="#8F9340"/>
<path d="M38.45 30.6343C38.71 31.0343 39.2 31.3143 39.66 31.4243C39.71 31.4943 39.3 31.6243 39.24 31.6643L39.13 31.4543C38.78 31.3543 38.75 31.1143 38.51 30.8543C38.45 30.7843 38.35 30.7343 38.45 30.6443V30.6343Z" fill="#E4A747"/>
<path d="M31.18 27.9842C33.25 27.9142 33.26 30.7842 31.28 30.8142C29.3 30.8442 29.22 28.0542 31.18 27.9842Z" fill="#FCC61B"/>
<path d="M41.4601 30.344C42.4801 30.234 43.0801 31.524 42.1901 32.114C41.7401 32.414 41.0801 32.294 40.7801 31.844C40.3801 31.244 40.7401 30.424 41.4601 30.354V30.344Z" fill="#FCC41E"/>
</svg>
