<svg width="23" height="12" viewBox="0 0 23 12" fill="none" xmlns="http://www.w3.org/2000/svg">
<path d="M4.90938 11.1719C2.40938 11.1719 0.878125 9.45312 0.878125 6.8125C0.878125 4.20312 2.44063 2.40625 4.8 2.40625C6.7375 2.40625 8.56563 3.60938 8.56563 6.67188V7.26562H2.53438C2.58125 8.875 3.52656 9.79688 4.925 9.79688C5.87813 9.79688 6.4875 9.39062 6.76875 8.875H8.45625C8.08125 10.25 6.76875 11.1719 4.90938 11.1719ZM2.55 6.01562H6.925C6.925 4.71875 6.09688 3.78125 4.81563 3.78125C3.47969 3.78125 2.6125 4.8125 2.55 6.01562ZM13.8906 2.51562V3.84375H12.1562V8.5C12.1562 9.45312 12.6406 9.625 13.1719 9.64062C13.4062 9.64062 13.7812 9.60938 14.0156 9.59375V11.0469C13.7812 11.0781 13.4219 11.1094 12.9688 11.1094C11.6562 11.1094 10.4844 10.3906 10.5 8.84375V3.84375H9.25V2.51562H10.5V0.484375H12.1562V2.51562H13.8906ZM18.7156 11.1719C16.2469 11.1719 14.7469 9.34375 14.7469 6.79688C14.7469 4.20312 16.2937 2.40625 18.6844 2.40625C20.6219 2.40625 22.0281 3.54688 22.2 5.26562H20.575C20.4031 4.46875 19.7625 3.79688 18.7156 3.79688C17.3406 3.79688 16.4187 4.9375 16.4187 6.75C16.4187 8.60938 17.325 9.75 18.7156 9.75C19.6531 9.75 20.3719 9.23438 20.575 8.3125H22.2C22.0125 9.95312 20.7156 11.1719 18.7156 11.1719Z" fill="#72787F"/>
</svg>
