<svg width="72" height="72" viewBox="0 0 72 72" fill="none" xmlns="http://www.w3.org/2000/svg">
<path d="M35.5101 45.6997C35.6101 45.7997 36.0101 46.4997 36.1401 46.3997C36.2601 46.0797 36.5901 45.7197 36.8401 45.4897C39.2101 43.2597 42.8501 44.7397 42.7501 48.0597C42.7001 49.7097 41.2301 51.6597 40.1801 52.8797C38.9601 54.2797 37.5301 55.4997 36.0901 56.6697C33.8201 54.7597 30.1001 51.7897 29.4901 48.7397C28.7301 44.9497 32.9101 42.9697 35.5101 45.7097V45.6997Z" fill="#FF6464"/>
<path d="M35.86 42.4696C35.86 42.4696 36.03 42.4696 36.04 42.3296C36.22 42.5296 36.38 42.7396 36.56 42.9296C36.64 43.0096 36.77 43.0196 36.77 43.0296C36.77 43.0296 36.77 43.0696 36.77 43.0996C36.86 43.5996 36.77 44.5396 36.77 45.0996C36.77 45.2196 36.73 45.4096 36.84 45.4896C36.59 45.7296 36.26 46.0796 36.14 46.3996C36.01 46.4896 35.6 45.7996 35.51 45.6996C35.6 44.8696 35.38 43.7496 35.51 42.9596C35.54 42.7396 35.7 42.5896 35.86 42.4696Z" fill="#929292"/>
<path d="M35.8601 42.4696L36.1401 42.1196C36.2401 42.4796 36.5101 42.7896 36.7701 43.0296C36.7701 43.0296 36.6301 43.0096 36.5601 42.9296C36.3801 42.7396 36.2101 42.5296 36.0401 42.3296C36.0401 42.4796 35.9001 42.4396 35.8601 42.4696Z" fill="#929292"/>
<path d="M19.8601 26.5098C19.8601 26.5098 19.9101 26.5598 19.8601 26.5798V26.5098Z" fill="#FEFEFE"/>
<path d="M20.99 31.2896C20.99 31.2896 21.04 31.3396 20.99 31.3596V31.2896Z" fill="#FEFEFE"/>
<path d="M17.49 22.2598C18.8707 22.2598 19.99 21.1405 19.99 19.7598C19.99 18.3791 18.8707 17.2598 17.49 17.2598C16.1093 17.2598 14.99 18.3791 14.99 19.7598C14.99 21.1405 16.1093 22.2598 17.49 22.2598Z" fill="#A5DAFF"/>
<path d="M18.7869 18.6175C18.9151 18.5662 19.0608 18.629 19.1121 18.7572C19.2472 19.0949 19.3066 19.4947 19.2254 19.89C19.018 20.944 17.9973 21.6315 16.9422 21.4251C16.8067 21.3986 16.7185 21.2676 16.7449 21.1322C16.7681 21.0134 16.8716 20.9308 16.9881 20.93L17.0379 20.9349L17.1844 20.9554C17.9145 21.0229 18.5911 20.528 18.7351 19.7923V19.7894C18.779 19.576 18.7666 19.3541 18.7137 19.1458L18.6482 18.9427L18.6336 18.8939C18.6131 18.7796 18.6749 18.6624 18.7869 18.6175Z" fill="#6DBAEE"/>
<path d="M18.71 26.9297C20.0907 26.9297 21.21 25.8104 21.21 24.4297C21.21 23.049 20.0907 21.9297 18.71 21.9297C17.3292 21.9297 16.21 23.049 16.21 24.4297C16.21 25.8104 17.3292 26.9297 18.71 26.9297Z" fill="#A5DAFF"/>
<path d="M20.0069 23.2972C20.1351 23.2459 20.2808 23.3086 20.3321 23.4368C20.4671 23.7745 20.5266 24.1744 20.4453 24.5697C20.238 25.6237 19.2172 26.3112 18.1621 26.1048C18.0267 26.0783 17.9385 25.9473 17.9649 25.8118C17.9881 25.6931 18.0916 25.6105 18.208 25.6097L18.2578 25.6146L18.4043 25.6351C19.1345 25.7026 19.811 25.2077 19.9551 24.472V24.4691C19.999 24.2557 19.9866 24.0338 19.9336 23.8255L19.8682 23.6224L19.8535 23.5736C19.833 23.4593 19.8949 23.3421 20.0069 23.2972Z" fill="#6DBAEE"/>
<path d="M20.23 31.5098C21.6107 31.5098 22.73 30.3905 22.73 29.0098C22.73 27.6291 21.6107 26.5098 20.23 26.5098C18.8493 26.5098 17.73 27.6291 17.73 29.0098C17.73 30.3905 18.8493 31.5098 20.23 31.5098Z" fill="#A5DAFF"/>
<path d="M21.5169 27.8675C21.6451 27.8162 21.7908 27.879 21.8421 28.0072C21.9771 28.3449 22.0366 28.7447 21.9554 29.14C21.748 30.194 20.7272 30.8815 19.6721 30.6751C19.5367 30.6486 19.4485 30.5176 19.4749 30.3822C19.4981 30.2634 19.6016 30.1808 19.718 30.18L19.7679 30.1849L19.9143 30.2054C20.6445 30.2729 21.321 29.778 21.4651 29.0423V29.0394C21.509 28.826 21.4966 28.6041 21.4436 28.3958L21.3782 28.1927L21.3636 28.1439C21.3431 28.0296 21.4049 27.9124 21.5169 27.8675Z" fill="#6DBAEE"/>
<path d="M22.3699 35.8296C23.7506 35.8296 24.8699 34.7103 24.8699 33.3296C24.8699 31.9489 23.7506 30.8296 22.3699 30.8296C20.9892 30.8296 19.8699 31.9489 19.8699 33.3296C19.8699 34.7103 20.9892 35.8296 22.3699 35.8296Z" fill="#A5DAFF"/>
<path d="M23.6568 32.1873C23.785 32.136 23.9307 32.1988 23.982 32.327C24.117 32.6647 24.1765 33.0645 24.0952 33.4598C23.8879 34.5139 22.8671 35.2013 21.812 34.9949C21.6766 34.9684 21.5884 34.8374 21.6148 34.702C21.638 34.5833 21.7415 34.5006 21.8579 34.4998L21.9077 34.5047L22.0542 34.5252C22.7844 34.5927 23.4609 34.0978 23.605 33.3621V33.3592C23.6489 33.1458 23.6365 32.9239 23.5835 32.7156L23.5181 32.5125L23.5034 32.4637C23.4829 32.3494 23.5448 32.2322 23.6568 32.1873Z" fill="#6DBAEE"/>
<path d="M25.55 39.4697C26.9308 39.4697 28.05 38.3504 28.05 36.9697C28.05 35.589 26.9308 34.4697 25.55 34.4697C24.1693 34.4697 23.05 35.589 23.05 36.9697C23.05 38.3504 24.1693 39.4697 25.55 39.4697Z" fill="#A5DAFF"/>
<path d="M26.847 35.8275C26.9751 35.7762 27.1209 35.8389 27.1721 35.9671C27.3072 36.3048 27.3667 36.7047 27.2854 37.0999C27.0781 38.154 26.0573 38.8414 25.0022 38.6351C24.8668 38.6086 24.7786 38.4776 24.805 38.3421C24.8282 38.2234 24.9317 38.1408 25.0481 38.14L25.0979 38.1448L25.2444 38.1654C25.9745 38.2329 26.6511 37.7379 26.7952 37.0023V36.9993C26.8391 36.786 26.8267 36.564 26.7737 36.3558L26.7083 36.1527L26.6936 36.1038C26.6731 35.9895 26.735 35.8723 26.847 35.8275Z" fill="#6DBAEE"/>
<path d="M29.3999 42.21C30.7806 42.21 31.8999 41.0907 31.8999 39.71C31.8999 38.3292 30.7806 37.21 29.3999 37.21C28.0192 37.21 26.8999 38.3292 26.8999 39.71C26.8999 41.0907 28.0192 42.21 29.3999 42.21Z" fill="#A5DAFF"/>
<path d="M30.6968 38.5672C30.825 38.5159 30.9707 38.5787 31.022 38.7069C31.1571 39.0446 31.2166 39.4444 31.1353 39.8397C30.928 40.8937 29.9072 41.5812 28.8521 41.3748C28.7166 41.3483 28.6284 41.2173 28.6548 41.0819C28.678 40.9631 28.7815 40.8805 28.898 40.8797L28.9478 40.8846L29.0943 40.9051C29.8244 40.9726 30.501 40.4777 30.645 39.742V39.7391C30.689 39.5257 30.6766 39.3038 30.6236 39.0955L30.5581 38.8924L30.5435 38.8436C30.523 38.7293 30.5848 38.6121 30.6968 38.5672Z" fill="#6DBAEE"/>
<path d="M33.8101 43.6396C35.1908 43.6396 36.3101 42.5204 36.3101 41.1396C36.3101 39.7589 35.1908 38.6396 33.8101 38.6396C32.4293 38.6396 31.3101 39.7589 31.3101 41.1396C31.3101 42.5204 32.4293 43.6396 33.8101 43.6396Z" fill="#A5DAFF"/>
<path d="M35.107 39.9974C35.2352 39.9461 35.3809 40.0088 35.4322 40.137C35.5669 40.474 35.6249 40.8725 35.5445 41.2669C35.338 42.3221 34.318 43.0115 33.2622 42.805C33.1268 42.7785 33.0386 42.6475 33.065 42.512C33.0882 42.3933 33.1917 42.3107 33.3081 42.3099L33.3579 42.3148L33.5044 42.3353C34.2346 42.4028 34.9111 41.9079 35.0552 41.1722V41.1693C35.0991 40.9559 35.0867 40.734 35.0337 40.5257L34.9683 40.3226L34.9536 40.2738C34.9331 40.1595 34.995 40.0423 35.107 39.9974Z" fill="#6DBAEE"/>
<path d="M38.3601 43.6396C39.7408 43.6396 40.8601 42.5204 40.8601 41.1396C40.8601 39.7589 39.7408 38.6396 38.3601 38.6396C36.9794 38.6396 35.8601 39.7589 35.8601 41.1396C35.8601 42.5204 36.9794 43.6396 38.3601 43.6396Z" fill="#A5DAFF"/>
<path d="M39.6568 39.9974C39.785 39.9461 39.9307 40.0088 39.982 40.137C40.1167 40.474 40.1747 40.8725 40.0943 41.2669C39.8878 42.3221 38.8678 43.0115 37.812 42.805C37.6766 42.7785 37.5884 42.6475 37.6148 42.512C37.638 42.3933 37.7415 42.3107 37.8579 42.3099L37.9077 42.3148L38.0542 42.3353C38.7844 42.4028 39.4609 41.9079 39.605 41.1722V41.1693C39.6489 40.9559 39.6365 40.734 39.5835 40.5257L39.5181 40.3226L39.5034 40.2738C39.4829 40.1595 39.5448 40.0423 39.6568 39.9974Z" fill="#6DBAEE"/>
<path d="M42.77 42.21C44.1507 42.21 45.27 41.0907 45.27 39.71C45.27 38.3292 44.1507 37.21 42.77 37.21C41.3893 37.21 40.27 38.3292 40.27 39.71C40.27 41.0907 41.3893 42.21 42.77 42.21Z" fill="#A5DAFF"/>
<path d="M44.0669 38.5672C44.1951 38.5159 44.3408 38.5787 44.3921 38.7069C44.5269 39.0438 44.5849 39.4423 44.5044 39.8367C44.298 40.8919 43.2779 41.5813 42.2222 41.3748C42.0868 41.3483 41.9985 41.2173 42.0249 41.0819C42.0482 40.9631 42.1516 40.8805 42.2681 40.8797L42.3179 40.8846L42.4644 40.9051C43.1945 40.9726 43.8711 40.4777 44.0152 39.742V39.7391C44.0591 39.5257 44.0467 39.3038 43.9937 39.0955L43.9283 38.8924L43.9136 38.8436C43.8931 38.7293 43.9549 38.6121 44.0669 38.5672Z" fill="#6DBAEE"/>
<path d="M46.6199 39.4697C48.0006 39.4697 49.1199 38.3504 49.1199 36.9697C49.1199 35.589 48.0006 34.4697 46.6199 34.4697C45.2392 34.4697 44.1199 35.589 44.1199 36.9697C44.1199 38.3504 45.2392 39.4697 46.6199 39.4697Z" fill="#A5DAFF"/>
<path d="M47.9168 35.8275C48.045 35.7762 48.1907 35.8389 48.242 35.9671C48.377 36.3048 48.4365 36.7047 48.3553 37.0999C48.1479 38.154 47.1271 38.8414 46.0721 38.6351C45.9366 38.6086 45.8484 38.4776 45.8748 38.3421C45.898 38.2234 46.0015 38.1408 46.1179 38.14L46.1678 38.1448L46.3142 38.1654C47.0444 38.2329 47.7209 37.7379 47.865 37.0023V36.9993C47.9089 36.786 47.8965 36.564 47.8435 36.3558L47.7781 36.1527L47.7635 36.1038C47.743 35.9895 47.8048 35.8723 47.9168 35.8275Z" fill="#6DBAEE"/>
<path d="M49.8101 35.8296C51.1908 35.8296 52.3101 34.7103 52.3101 33.3296C52.3101 31.9489 51.1908 30.8296 49.8101 30.8296C48.4293 30.8296 47.3101 31.9489 47.3101 33.3296C47.3101 34.7103 48.4293 35.8296 49.8101 35.8296Z" fill="#A5DAFF"/>
<path d="M51.107 32.1873C51.2352 32.136 51.3809 32.1988 51.4322 32.327C51.5669 32.6639 51.6249 33.0624 51.5445 33.4569C51.338 34.512 50.318 35.2014 49.2622 34.9949C49.1268 34.9684 49.0386 34.8374 49.065 34.702C49.0882 34.5833 49.1917 34.5006 49.3081 34.4998L49.3579 34.5047L49.5044 34.5252C50.2346 34.5927 50.9111 34.0978 51.0552 33.3621V33.3592C51.0991 33.1458 51.0867 32.9239 51.0337 32.7156L50.9683 32.5125L50.9536 32.4637C50.9331 32.3494 50.995 32.2322 51.107 32.1873Z" fill="#6DBAEE"/>
<path d="M51.97 31.5098C53.3507 31.5098 54.47 30.3905 54.47 29.0098C54.47 27.6291 53.3507 26.5098 51.97 26.5098C50.5893 26.5098 49.47 27.6291 49.47 29.0098C49.47 30.3905 50.5893 31.5098 51.97 31.5098Z" fill="#A5DAFF"/>
<path d="M53.2669 27.8675C53.3951 27.8162 53.5408 27.879 53.5921 28.0072C53.7268 28.3441 53.7848 28.7426 53.7044 29.137C53.4979 30.1922 52.4779 30.8816 51.4221 30.6751C51.2867 30.6486 51.1985 30.5176 51.2249 30.3822C51.2481 30.2634 51.3516 30.1808 51.468 30.18L51.5179 30.1849L51.6643 30.2054C52.3945 30.2729 53.071 29.778 53.2151 29.0423V29.0394C53.259 28.826 53.2466 28.6041 53.1936 28.3958L53.1282 28.1927L53.1136 28.1439C53.0931 28.0296 53.1549 27.9124 53.2669 27.8675Z" fill="#6DBAEE"/>
<path d="M53.49 26.9297C54.8707 26.9297 55.99 25.8104 55.99 24.4297C55.99 23.049 54.8707 21.9297 53.49 21.9297C52.1093 21.9297 50.99 23.049 50.99 24.4297C50.99 25.8104 52.1093 26.9297 53.49 26.9297Z" fill="#A5DAFF"/>
<path d="M54.7769 23.2972C54.9051 23.2459 55.0508 23.3086 55.1021 23.4368C55.2372 23.7745 55.2966 24.1744 55.2154 24.5697C55.008 25.6237 53.9872 26.3112 52.9322 26.1048C52.7967 26.0783 52.7085 25.9473 52.7349 25.8118C52.7581 25.6931 52.8616 25.6105 52.9781 25.6097L53.0279 25.6146L53.1743 25.6351C53.9045 25.7026 54.581 25.2077 54.7251 24.472V24.4691C54.769 24.2557 54.7566 24.0338 54.7036 23.8255L54.6382 23.6224L54.6236 23.5736C54.6031 23.4593 54.6649 23.3421 54.7769 23.2972Z" fill="#6DBAEE"/>
<path d="M54.6899 22.2598C56.0707 22.2598 57.1899 21.1405 57.1899 19.7598C57.1899 18.3791 56.0707 17.2598 54.6899 17.2598C53.3092 17.2598 52.1899 18.3791 52.1899 19.7598C52.1899 21.1405 53.3092 22.2598 54.6899 22.2598Z" fill="#A5DAFF"/>
<path d="M55.9768 18.6175C56.105 18.5662 56.2508 18.629 56.302 18.7572C56.4368 19.0941 56.4948 19.4926 56.4143 19.887C56.2079 20.9422 55.1879 21.6316 54.1321 21.4251C53.9967 21.3986 53.9084 21.2676 53.9348 21.1322C53.9581 21.0134 54.0615 20.9308 54.178 20.93L54.2278 20.9349L54.3743 20.9554C55.1044 21.0229 55.781 20.528 55.9251 19.7923V19.7894C55.969 19.576 55.9566 19.3541 55.9036 19.1458L55.8382 18.9427L55.8235 18.8939C55.803 18.7796 55.8648 18.6624 55.9768 18.6175Z" fill="#6DBAEE"/>
<path d="M17.49 22.2598C18.8707 22.2598 19.99 21.1405 19.99 19.7598C19.99 18.3791 18.8707 17.2598 17.49 17.2598C16.1093 17.2598 14.99 18.3791 14.99 19.7598C14.99 21.1405 16.1093 22.2598 17.49 22.2598Z" fill="#A5DAFF"/>
<path d="M18.7869 18.6175C18.9151 18.5662 19.0608 18.629 19.1121 18.7572C19.2472 19.0949 19.3066 19.4947 19.2254 19.89C19.018 20.944 17.9973 21.6315 16.9422 21.4251C16.8067 21.3986 16.7185 21.2676 16.7449 21.1322C16.7681 21.0134 16.8716 20.9308 16.9881 20.93L17.0379 20.9349L17.1844 20.9554C17.9145 21.0229 18.5911 20.528 18.7351 19.7923V19.7894C18.779 19.576 18.7666 19.3541 18.7137 19.1458L18.6482 18.9427L18.6336 18.8939C18.6131 18.7796 18.6749 18.6624 18.7869 18.6175Z" fill="#6DBAEE"/>
<path d="M18.71 26.9297C20.0907 26.9297 21.21 25.8104 21.21 24.4297C21.21 23.049 20.0907 21.9297 18.71 21.9297C17.3292 21.9297 16.21 23.049 16.21 24.4297C16.21 25.8104 17.3292 26.9297 18.71 26.9297Z" fill="#A5DAFF"/>
<path d="M20.0069 23.2972C20.1351 23.2459 20.2808 23.3086 20.3321 23.4368C20.4671 23.7745 20.5266 24.1744 20.4453 24.5697C20.238 25.6237 19.2172 26.3112 18.1621 26.1048C18.0267 26.0783 17.9385 25.9473 17.9649 25.8118C17.9881 25.6931 18.0916 25.6105 18.208 25.6097L18.2578 25.6146L18.4043 25.6351C19.1345 25.7026 19.811 25.2077 19.9551 24.472V24.4691C19.999 24.2557 19.9866 24.0338 19.9336 23.8255L19.8682 23.6224L19.8535 23.5736C19.833 23.4593 19.8949 23.3421 20.0069 23.2972Z" fill="#6DBAEE"/>
<path d="M20.23 31.5098C21.6107 31.5098 22.73 30.3905 22.73 29.0098C22.73 27.6291 21.6107 26.5098 20.23 26.5098C18.8493 26.5098 17.73 27.6291 17.73 29.0098C17.73 30.3905 18.8493 31.5098 20.23 31.5098Z" fill="#A5DAFF"/>
<path d="M21.5169 27.8675C21.6451 27.8162 21.7908 27.879 21.8421 28.0072C21.9771 28.3449 22.0366 28.7447 21.9554 29.14C21.748 30.194 20.7272 30.8815 19.6721 30.6751C19.5367 30.6486 19.4485 30.5176 19.4749 30.3822C19.4981 30.2634 19.6016 30.1808 19.718 30.18L19.7679 30.1849L19.9143 30.2054C20.6445 30.2729 21.321 29.778 21.4651 29.0423V29.0394C21.509 28.826 21.4966 28.6041 21.4436 28.3958L21.3782 28.1927L21.3636 28.1439C21.3431 28.0296 21.4049 27.9124 21.5169 27.8675Z" fill="#6DBAEE"/>
<path d="M22.3699 35.8296C23.7506 35.8296 24.8699 34.7103 24.8699 33.3296C24.8699 31.9489 23.7506 30.8296 22.3699 30.8296C20.9892 30.8296 19.8699 31.9489 19.8699 33.3296C19.8699 34.7103 20.9892 35.8296 22.3699 35.8296Z" fill="#A5DAFF"/>
<path d="M23.6568 32.1873C23.785 32.136 23.9307 32.1988 23.982 32.327C24.117 32.6647 24.1765 33.0645 24.0952 33.4598C23.8879 34.5139 22.8671 35.2013 21.812 34.9949C21.6766 34.9684 21.5884 34.8374 21.6148 34.702C21.638 34.5833 21.7415 34.5006 21.8579 34.4998L21.9077 34.5047L22.0542 34.5252C22.7844 34.5927 23.4609 34.0978 23.605 33.3621V33.3592C23.6489 33.1458 23.6365 32.9239 23.5835 32.7156L23.5181 32.5125L23.5034 32.4637C23.4829 32.3494 23.5448 32.2322 23.6568 32.1873Z" fill="#6DBAEE"/>
<path d="M25.55 39.4697C26.9308 39.4697 28.05 38.3504 28.05 36.9697C28.05 35.589 26.9308 34.4697 25.55 34.4697C24.1693 34.4697 23.05 35.589 23.05 36.9697C23.05 38.3504 24.1693 39.4697 25.55 39.4697Z" fill="#A5DAFF"/>
<path d="M26.847 35.8275C26.9751 35.7762 27.1209 35.8389 27.1721 35.9671C27.3072 36.3048 27.3667 36.7047 27.2854 37.0999C27.0781 38.154 26.0573 38.8414 25.0022 38.6351C24.8668 38.6086 24.7786 38.4776 24.805 38.3421C24.8282 38.2234 24.9317 38.1408 25.0481 38.14L25.0979 38.1448L25.2444 38.1654C25.9745 38.2329 26.6511 37.7379 26.7952 37.0023V36.9993C26.8391 36.786 26.8267 36.564 26.7737 36.3558L26.7083 36.1527L26.6936 36.1038C26.6731 35.9895 26.735 35.8723 26.847 35.8275Z" fill="#6DBAEE"/>
<path d="M29.3999 42.21C30.7806 42.21 31.8999 41.0907 31.8999 39.71C31.8999 38.3292 30.7806 37.21 29.3999 37.21C28.0192 37.21 26.8999 38.3292 26.8999 39.71C26.8999 41.0907 28.0192 42.21 29.3999 42.21Z" fill="#A5DAFF"/>
<path d="M30.6968 38.5672C30.825 38.5159 30.9707 38.5787 31.022 38.7069C31.1571 39.0446 31.2166 39.4444 31.1353 39.8397C30.928 40.8937 29.9072 41.5812 28.8521 41.3748C28.7166 41.3483 28.6284 41.2173 28.6548 41.0819C28.678 40.9631 28.7815 40.8805 28.898 40.8797L28.9478 40.8846L29.0943 40.9051C29.8244 40.9726 30.501 40.4777 30.645 39.742V39.7391C30.689 39.5257 30.6766 39.3038 30.6236 39.0955L30.5581 38.8924L30.5435 38.8436C30.523 38.7293 30.5848 38.6121 30.6968 38.5672Z" fill="#6DBAEE"/>
</svg>
